<svg width="112" height="111" viewBox="0 0 112 111" fill="none" xmlns="http://www.w3.org/2000/svg">
<path d="M56 111C86.9279 111 112 86.1518 112 55.5C112 24.8482 86.9279 0 56 0C25.0721 0 0 24.8482 0 55.5C0 86.1518 25.0721 111 56 111Z" fill="#F5D8FF"/>
<path d="M14.7109 15.6879C15.9519 15.2845 16.6302 13.9493 16.2259 12.7055C15.8216 11.4617 14.4879 10.7804 13.247 11.1837C12.006 11.5871 11.3277 12.9223 11.732 14.1661C12.1362 15.4099 13.47 16.0912 14.7109 15.6879Z" fill="#F6E2FF"/>
<path d="M19.8627 7.95857C20.7063 7.6836 21.1679 6.77487 20.8937 5.92888C20.6195 5.08288 19.7133 4.61997 18.8697 4.89494C18.0261 5.16991 17.5644 6.07864 17.8386 6.92463C18.1128 7.77063 19.019 8.23354 19.8627 7.95857Z" fill="#F6E2FF"/>
<path d="M91.9021 6.45685C92.4028 5.99794 92.4378 5.21882 91.9802 4.71664C91.5226 4.21447 90.7456 4.1794 90.2449 4.63831C89.7441 5.09722 89.7091 5.87633 90.1667 6.37851C90.6244 6.88069 91.4013 6.91576 91.9021 6.45685Z" fill="#F6E2FF"/>
<path d="M20.7737 85.52C21.39 84.9552 21.433 83.9962 20.8698 83.3782C20.3066 82.7601 19.3503 82.7169 18.734 83.2818C18.1177 83.8466 18.0746 84.8055 18.6379 85.4236C19.2011 86.0416 20.1573 86.0848 20.7737 85.52Z" fill="#F6E2FF"/>
<path d="M56.5964 17.317C56.5019 17.317 56.313 17.317 56.2185 17.2222C55.7461 17.0327 55.5571 16.4643 55.7461 15.9905L63.2103 0.546363C63.3992 0.0726165 63.9661 -0.116882 64.4386 0.0726165C64.911 0.262115 65.1 0.830611 64.911 1.30436L57.4468 16.7485C57.2578 17.1275 56.8799 17.317 56.5964 17.317Z" fill="#D7B2FF"/>
<path d="M85.036 11.0634V84.2099C85.036 86.2944 83.3353 87.9999 81.2567 87.9999H31.7472C29.6685 87.9999 27.9678 86.2944 27.9678 84.2099V11.0634C27.9678 8.97893 29.6685 7.27344 31.7472 7.27344H81.2567C83.3353 7.27344 85.036 8.97893 85.036 11.0634Z" fill="white"/>
<path d="M31.4637 41.1936H29.6685V42.9938H31.4637V41.1936Z" fill="#F6E2FF"/>
<path d="M31.4637 37.5931H29.6685V39.3934H31.4637V37.5931Z" fill="#F6E2FF"/>
<path d="M31.4637 33.9928H29.6685V35.793H31.4637V33.9928Z" fill="#F6E2FF"/>
<path d="M31.4637 30.4871H29.6685V32.2873H31.4637V30.4871Z" fill="#FFD986"/>
<path d="M31.4637 23.2861H29.6685V25.0864H31.4637V23.2861Z" fill="#F6E2FF"/>
<path d="M35.1487 44.6995H33.3535V46.4997H35.1487V44.6995Z" fill="#F6E2FF"/>
<path d="M35.1487 41.1936H33.3535V42.9938H35.1487V41.1936Z" fill="#F6E2FF"/>
<path d="M35.1487 30.4871H33.3535V32.2873H35.1487V30.4871Z" fill="#F6E2FF"/>
<path d="M35.1487 16.1798H33.3535V17.98H35.1487V16.1798Z" fill="#FFD986"/>
<path d="M38.8334 44.6995H37.0382V46.4997H38.8334V44.6995Z" fill="#F6E2FF"/>
<path d="M38.8334 37.5931H37.0382V39.3934H38.8334V37.5931Z" fill="#F6E2FF"/>
<path d="M38.8334 33.9928H37.0382V35.793H38.8334V33.9928Z" fill="#F6E2FF"/>
<path d="M38.8334 30.4871H37.0382V32.2873H38.8334V30.4871Z" fill="#FFD986"/>
<path d="M38.8334 26.8865H37.0382V28.6867H38.8334V26.8865Z" fill="#F6E2FF"/>
<path d="M38.8334 23.2861H37.0382V25.0864H38.8334V23.2861Z" fill="#F6E2FF"/>
<path d="M38.8334 16.1798H37.0382V17.98H38.8334V16.1798Z" fill="#F6E2FF"/>
<path d="M38.8334 12.5793H37.0382V14.3796H38.8334V12.5793Z" fill="#F6E2FF"/>
<path d="M42.5188 41.1936H40.7236V42.9938H42.5188V41.1936Z" fill="#F6E2FF"/>
<path d="M42.5188 37.5931H40.7236V39.3934H42.5188V37.5931Z" fill="#F6E2FF"/>
<path d="M42.5188 26.8865H40.7236V28.6867H42.5188V26.8865Z" fill="#F6E2FF"/>
<path d="M42.5188 19.7804H40.7236V21.5806H42.5188V19.7804Z" fill="#F6E2FF"/>
<path d="M46.2978 44.6995H44.5026V46.4997H46.2978V44.6995Z" fill="#F6E2FF"/>
<path d="M46.2978 41.1936H44.5026V42.9938H46.2978V41.1936Z" fill="#F6E2FF"/>
<path d="M46.2978 30.4871H44.5026V32.2873H46.2978V30.4871Z" fill="#F6E2FF"/>
<path d="M46.2978 26.8865H44.5026V28.6867H46.2978V26.8865Z" fill="#FFD986"/>
<path d="M46.2978 23.2861H44.5026V25.0864H46.2978V23.2861Z" fill="#F6E2FF"/>
<path d="M49.9828 44.6995H48.1876V46.4997H49.9828V44.6995Z" fill="#F6E2FF"/>
<path d="M49.9828 41.1936H48.1876V42.9938H49.9828V41.1936Z" fill="#F6E2FF"/>
<path d="M49.9828 37.5931H48.1876V39.3934H49.9828V37.5931Z" fill="#F6E2FF"/>
<path d="M49.9828 33.9928H48.1876V35.793H49.9828V33.9928Z" fill="#F6E2FF"/>
<path d="M49.9828 30.4871H48.1876V32.2873H49.9828V30.4871Z" fill="#F6E2FF"/>
<path d="M49.9828 26.8865H48.1876V28.6867H49.9828V26.8865Z" fill="#F6E2FF"/>
<path d="M49.9828 16.1798H48.1876V17.98H49.9828V16.1798Z" fill="#F6E2FF"/>
<path d="M53.6674 44.6995H51.8723V46.4997H53.6674V44.6995Z" fill="#F6E2FF"/>
<path d="M53.6674 41.1936H51.8723V42.9938H53.6674V41.1936Z" fill="#F6E2FF"/>
<path d="M53.6674 37.5931H51.8723V39.3934H53.6674V37.5931Z" fill="#F6E2FF"/>
<path d="M53.6674 30.4871H51.8723V32.2873H53.6674V30.4871Z" fill="#F6E2FF"/>
<path d="M53.6674 26.8865H51.8723V28.6867H53.6674V26.8865Z" fill="#F6E2FF"/>
<path d="M57.3523 44.6995H55.5571V46.4997H57.3523V44.6995Z" fill="#D7B2FF"/>
<path d="M57.3523 41.1936H55.5571V42.9938H57.3523V41.1936Z" fill="#F6E2FF"/>
<path d="M57.3523 37.5931H55.5571V39.3934H57.3523V37.5931Z" fill="#F6E2FF"/>
<path d="M57.3523 33.9928H55.5571V35.793H57.3523V33.9928Z" fill="#F6E2FF"/>
<path d="M57.3523 30.4871H55.5571V32.2873H57.3523V30.4871Z" fill="#F6E2FF"/>
<path d="M57.3523 23.2861H55.5571V25.0864H57.3523V23.2861Z" fill="#F6E2FF"/>
<path d="M61.0366 44.6995H59.2414V46.4997H61.0366V44.6995Z" fill="#F6E2FF"/>
<path d="M61.0366 41.1936H59.2414V42.9938H61.0366V41.1936Z" fill="#F6E2FF"/>
<path d="M61.0366 37.5931H59.2414V39.3934H61.0366V37.5931Z" fill="#FFD986"/>
<path d="M61.0366 33.9928H59.2414V35.793H61.0366V33.9928Z" fill="#F6E2FF"/>
<path d="M61.0366 30.4871H59.2414V32.2873H61.0366V30.4871Z" fill="#F6E2FF"/>
<path d="M61.0366 26.8865H59.2414V28.6867H61.0366V26.8865Z" fill="#F6E2FF"/>
<path d="M64.722 44.6995H62.9268V46.4997H64.722V44.6995Z" fill="#F6E2FF"/>
<path d="M64.722 41.1936H62.9268V42.9938H64.722V41.1936Z" fill="#F6E2FF"/>
<path d="M64.722 37.5931H62.9268V39.3934H64.722V37.5931Z" fill="#F6E2FF"/>
<path d="M64.722 30.4871H62.9268V32.2873H64.722V30.4871Z" fill="#F6E2FF"/>
<path d="M64.722 23.2861H62.9268V25.0864H64.722V23.2861Z" fill="#F6E2FF"/>
<path d="M64.722 12.5793H62.9268V14.3796H64.722V12.5793Z" fill="#F6E2FF"/>
<path d="M68.407 41.1936H66.6118V42.9938H68.407V41.1936Z" fill="#F6E2FF"/>
<path d="M68.407 37.5931H66.6118V39.3934H68.407V37.5931Z" fill="#F6E2FF"/>
<path d="M68.407 33.9928H66.6118V35.793H68.407V33.9928Z" fill="#F6E2FF"/>
<path d="M68.407 19.7804H66.6118V21.5806H68.407V19.7804Z" fill="#F6E2FF"/>
<path d="M72.0915 44.6995H70.2963V46.4997H72.0915V44.6995Z" fill="#F6E2FF"/>
<path d="M72.0915 37.5931H70.2963V39.3934H72.0915V37.5931Z" fill="#F6E2FF"/>
<path d="M72.0915 33.9928H70.2963V35.793H72.0915V33.9928Z" fill="#FFD986"/>
<path d="M72.0915 30.4871H70.2963V32.2873H72.0915V30.4871Z" fill="#F6E2FF"/>
<path d="M72.0915 26.8865H70.2963V28.6867H72.0915V26.8865Z" fill="#F6E2FF"/>
<path d="M72.0915 23.2861H70.2963V25.0864H72.0915V23.2861Z" fill="#FFD986"/>
<path d="M75.871 44.6995H74.0758V46.4997H75.871V44.6995Z" fill="#F6E2FF"/>
<path d="M75.871 33.9928H74.0758V35.793H75.871V33.9928Z" fill="#F6E2FF"/>
<path d="M75.871 26.8865H74.0758V28.6867H75.871V26.8865Z" fill="#F6E2FF"/>
<path d="M79.5557 44.6995H77.7605V46.4997H79.5557V44.6995Z" fill="#F6E2FF"/>
<path d="M79.5557 41.1936H77.7605V42.9938H79.5557V41.1936Z" fill="#F6E2FF"/>
<path d="M79.5557 37.5931H77.7605V39.3934H79.5557V37.5931Z" fill="#F6E2FF"/>
<path d="M79.5557 33.9928H77.7605V35.793H79.5557V33.9928Z" fill="#F6E2FF"/>
<path d="M79.5557 30.4871H77.7605V32.2873H79.5557V30.4871Z" fill="#F6E2FF"/>
<path d="M79.5557 19.7804H77.7605V21.5806H79.5557V19.7804Z" fill="#F6E2FF"/>
<path d="M83.2405 44.6995H81.4453V46.4997H83.2405V44.6995Z" fill="#F6E2FF"/>
<path d="M83.2405 37.5931H81.4453V39.3934H83.2405V37.5931Z" fill="#F6E2FF"/>
<path d="M83.2405 33.9928H81.4453V35.793H83.2405V33.9928Z" fill="#F6E2FF"/>
<path d="M81.4149 57.2788L83.2101 57.2788L83.2101 55.4786L81.4149 55.4786L81.4149 57.2788Z" fill="#F6E2FF"/>
<path d="M81.4149 53.6511L83.2101 53.6511L83.2101 51.8509L81.4149 51.8509L81.4149 53.6511Z" fill="#F6E2FF"/>
<path d="M81.4149 50.1182L83.2101 50.1182L83.2101 48.3179L81.4149 48.3179L81.4149 50.1182Z" fill="#F6E2FF"/>
<path d="M77.7072 60.8118L79.5024 60.8118L79.5024 59.0115L77.7072 59.0115L77.7072 60.8118Z" fill="#F6E2FF"/>
<path d="M77.7072 57.2788L79.5024 57.2788L79.5024 55.4786L77.7072 55.4786L77.7072 57.2788Z" fill="#F6E2FF"/>
<path d="M77.7072 50.1182L79.5024 50.1182L79.5024 48.3179L77.7072 48.3179L77.7072 50.1182Z" fill="#F6E2FF"/>
<path d="M73.9997 60.8118L75.7949 60.8118L75.7949 59.0115L73.9997 59.0115L73.9997 60.8118Z" fill="#F6E2FF"/>
<path d="M73.9997 57.2788L75.7949 57.2788L75.7949 55.4786L73.9997 55.4786L73.9997 57.2788Z" fill="#F6E2FF"/>
<path d="M73.9997 53.6511L75.7949 53.6511L75.7949 51.8509L73.9997 51.8509L73.9997 53.6511Z" fill="#F6E2FF"/>
<path d="M73.9997 50.1182L75.7949 50.1182L75.7949 48.3179L73.9997 48.3179L73.9997 50.1182Z" fill="#F6E2FF"/>
<path d="M70.3864 60.8118L72.1816 60.8118L72.1816 59.0115L70.3864 59.0115L70.3864 60.8118Z" fill="#F6E2FF"/>
<path d="M70.3864 57.2788L72.1816 57.2788L72.1816 55.4786L70.3864 55.4786L70.3864 57.2788Z" fill="#F6E2FF"/>
<path d="M70.3864 53.6512L72.1816 53.6512L72.1816 51.851L70.3864 51.851L70.3864 53.6512Z" fill="#F6E2FF"/>
<path d="M70.3864 50.1183L72.1816 50.1183L72.1816 48.3181L70.3864 48.3181L70.3864 50.1183Z" fill="#F6E2FF"/>
<path d="M66.6788 60.8118L68.474 60.8118L68.474 59.0115L66.6788 59.0115L66.6788 60.8118Z" fill="#F6E2FF"/>
<path d="M66.6788 57.2788L68.474 57.2788L68.474 55.4786L66.6788 55.4786L66.6788 57.2788Z" fill="#F6E2FF"/>
<path d="M66.6788 53.6511L68.474 53.6511L68.474 51.8509L66.6788 51.8509L66.6788 53.6511Z" fill="#F6E2FF"/>
<path d="M62.9712 60.8118L64.7664 60.8118L64.7664 59.0115L62.9712 59.0115L62.9712 60.8118Z" fill="#F6E2FF"/>
<path d="M62.9712 57.2788L64.7664 57.2788L64.7664 55.4786L62.9712 55.4786L62.9712 57.2788Z" fill="#F6E2FF"/>
<path d="M62.9712 53.6511L64.7664 53.6511L64.7664 51.8509L62.9712 51.8509L62.9712 53.6511Z" fill="#F6E2FF"/>
<path d="M62.9712 50.1182L64.7664 50.1182L64.7664 48.3179L62.9712 48.3179L62.9712 50.1182Z" fill="#F6E2FF"/>
<path d="M59.2645 60.8118L61.0597 60.8118L61.0597 59.0115L59.2645 59.0115L59.2645 60.8118Z" fill="#F6E2FF"/>
<path d="M59.2645 57.2788L61.0597 57.2788L61.0597 55.4786L59.2645 55.4786L59.2645 57.2788Z" fill="#F6E2FF"/>
<path d="M59.2645 53.6511L61.0597 53.6511L61.0597 51.8509L59.2645 51.8509L59.2645 53.6511Z" fill="#F6E2FF"/>
<path d="M55.5571 60.8067H57.3523V59.0065H55.5571V60.8067Z" fill="#D7B2FF"/>
<path d="M55.5564 57.2788L57.3516 57.2788L57.3516 55.4786L55.5564 55.4786L55.5564 57.2788Z" fill="#F6E2FF"/>
<path d="M55.5564 53.6511L57.3516 53.6511L57.3516 51.8509L55.5564 51.8509L55.5564 53.6511Z" fill="#F6E2FF"/>
<path d="M55.5564 50.1182L57.3516 50.1182L57.3516 48.3179L55.5564 48.3179L55.5564 50.1182Z" fill="#F6E2FF"/>
<path d="M51.8488 60.8118L53.644 60.8118L53.644 59.0115L51.8488 59.0115L51.8488 60.8118Z" fill="#F6E2FF"/>
<path d="M51.8488 57.2788L53.644 57.2788L53.644 55.4786L51.8488 55.4786L51.8488 57.2788Z" fill="#F6E2FF"/>
<path d="M51.8723 53.7006H53.6674V51.9004H51.8723V53.7006Z" fill="#FFD986"/>
<path d="M51.8488 50.1182L53.644 50.1182L53.644 48.3179L51.8488 48.3179L51.8488 50.1182Z" fill="#F6E2FF"/>
<path d="M48.1412 60.8118L49.9363 60.8118L49.9363 59.0115L48.1412 59.0115L48.1412 60.8118Z" fill="#F6E2FF"/>
<path d="M48.1412 57.2788L49.9363 57.2788L49.9363 55.4786L48.1412 55.4786L48.1412 57.2788Z" fill="#F6E2FF"/>
<path d="M48.1412 53.6511L49.9363 53.6511L49.9363 51.8509L48.1412 51.8509L48.1412 53.6511Z" fill="#F6E2FF"/>
<path d="M44.4339 57.2788L46.2291 57.2788L46.2291 55.4786L44.4339 55.4786L44.4339 57.2788Z" fill="#F6E2FF"/>
<path d="M44.4339 53.6511L46.2291 53.6511L46.2291 51.8509L44.4339 51.8509L44.4339 53.6511Z" fill="#F6E2FF"/>
<path d="M44.4339 50.1182L46.2291 50.1182L46.2291 48.3179L44.4339 48.3179L44.4339 50.1182Z" fill="#F6E2FF"/>
<path d="M40.8205 60.8118L42.6157 60.8118L42.6157 59.0115L40.8205 59.0115L40.8205 60.8118Z" fill="#F6E2FF"/>
<path d="M40.8205 53.6511L42.6157 53.6511L42.6157 51.8509L40.8205 51.8509L40.8205 53.6511Z" fill="#F6E2FF"/>
<path d="M40.8205 50.1182L42.6157 50.1182L42.6157 48.3179L40.8205 48.3179L40.8205 50.1182Z" fill="#FFD986"/>
<path d="M37.1129 60.8118L38.9081 60.8118L38.9081 59.0115L37.1129 59.0115L37.1129 60.8118Z" fill="#F6E2FF"/>
<path d="M37.1129 50.1182L38.9081 50.1182L38.9081 48.3179L37.1129 48.3179L37.1129 50.1182Z" fill="#F6E2FF"/>
<path d="M33.406 60.8118L35.2012 60.8118L35.2012 59.0115L33.406 59.0115L33.406 60.8118Z" fill="#F6E2FF"/>
<path d="M33.406 57.2788L35.2012 57.2788L35.2012 55.4786L33.406 55.4786L33.406 57.2788Z" fill="#F6E2FF"/>
<path d="M33.406 53.6511L35.2012 53.6511L35.2012 51.8509L33.406 51.8509L33.406 53.6511Z" fill="#F6E2FF"/>
<path d="M29.698 60.8118L31.4932 60.8118L31.4932 59.0115L29.698 59.0115L29.698 60.8118Z" fill="#F6E2FF"/>
<path d="M29.698 53.6511L31.4932 53.6511L31.4932 51.8509L29.698 51.8509L29.698 53.6511Z" fill="#F6E2FF"/>
<path d="M29.698 50.1182L31.4932 50.1182L31.4932 48.3179L29.698 48.3179L29.698 50.1182Z" fill="#F6E2FF"/>
<path d="M56.502 20.0648C58.6937 20.0648 60.4703 18.2831 60.4703 16.0853C60.4703 13.8875 58.6937 12.1058 56.502 12.1058C54.3104 12.1058 52.5337 13.8875 52.5337 16.0853C52.5337 18.2831 54.3104 20.0648 56.502 20.0648Z" fill="#F0C7FF"/>
<path d="M59.62 13.6218C60.1869 14.2851 60.4703 15.1378 60.4703 16.0853C60.4703 18.2645 58.6751 20.0648 56.502 20.0648C54.3289 20.0648 52.5337 18.2645 52.5337 16.0853C52.5337 14.6641 53.2896 13.4323 54.4234 12.6743" stroke="#011132" stroke-miterlimit="10" stroke-linecap="round" stroke-linejoin="round"/>
<path d="M73.5087 57.7749C73.1307 58.1539 72.8473 58.5329 72.4694 58.8172C68.2176 62.7967 62.5486 65.1654 56.2181 65.1654C51.2105 65.1654 46.4863 63.6494 42.6125 60.9017C41.4787 60.1437 40.4393 59.1962 39.4945 58.2487C39.9669 57.5854 40.9118 57.1117 42.8014 56.3537L43.5573 56.0695C44.9746 55.501 46.9587 54.743 49.5098 53.7007C49.8877 53.5112 50.2657 53.3217 50.4546 52.9427C50.5491 52.7532 50.7381 52.5637 50.7381 52.3742C50.927 52.09 50.927 51.711 50.927 51.332V46.4998C50.8326 46.405 50.8326 46.3103 50.7381 46.2155C50.3601 45.5523 50.0767 44.889 49.9822 44.131L49.6043 43.9415C48.376 44.2258 48.4705 42.8993 48.187 40.3411C48.0925 39.2988 48.187 39.1093 48.6594 38.9198L49.0374 38.3513C48.0925 36.2668 47.7146 34.5614 47.7146 33.0454C47.7146 30.6766 48.7539 29.0659 50.1712 28.3079C49.5098 26.7919 49.4153 26.1287 49.4153 26.1287C49.4153 26.1287 54.4229 26.9814 56.1237 26.6024C58.2968 26.1287 61.6982 26.6972 62.9265 29.6344C63.2099 29.7291 63.3989 29.8239 63.6824 29.9186C65.2886 30.7714 65.8555 31.9084 66.0445 33.1401C66.3279 35.4141 65.0996 37.8776 64.8162 38.9198C64.8162 38.9198 64.8162 39.0146 64.9107 39.0146C65.2886 39.2041 65.3831 39.4883 65.1941 40.4358C64.9107 42.8993 65.0051 44.3205 63.7768 44.0363L62.643 45.9313C62.643 46.1208 62.5486 46.2155 62.5486 46.405C62.5486 46.784 62.5486 47.4473 62.5486 51.4267C62.5486 51.5215 62.5486 51.711 62.5486 51.8057C62.5486 52.1847 62.7375 52.469 62.9265 52.7532C63.021 52.848 63.1155 52.9427 63.2099 53.0375C63.4934 53.3217 63.7768 53.5112 64.1548 53.7007C66.9893 54.9325 69.0679 55.6905 70.5797 56.259C71.9969 56.9222 72.9418 57.3959 73.5087 57.7749Z" fill="#F6E2FF"/>
<path d="M75.7764 64.8811C71.5246 68.8606 62.5487 65.2601 56.2182 65.2601C51.2106 65.2601 40.7229 69.2396 36.8491 66.5866C36.0932 66.0181 37.038 63.8389 37.3215 63.1757C37.7939 61.8492 38.2663 60.5227 38.9277 59.2909C40.345 56.5432 46.8643 55.2167 49.5099 53.7955C49.9823 53.5112 50.2658 53.3217 50.4547 53.0375C53.5727 57.3959 59.9976 57.3959 63.1156 53.1322C63.399 53.4165 63.6825 53.606 64.0604 53.7955C64.1549 53.7955 64.2494 53.8902 64.3438 53.8902C73.1308 57.4907 73.6977 57.0169 74.8316 60.3332C75.0205 60.9017 76.1543 64.5021 75.7764 64.8811Z" fill="white"/>
<path d="M75.7764 64.8811C71.5246 68.8606 62.5487 65.2601 56.2182 65.2601C51.2106 65.2601 40.7229 69.2396 36.8491 66.5866C36.0932 66.0181 37.038 63.8388 37.3215 63.1756C37.7939 61.8491 38.2663 60.5226 38.9277 59.2909C40.345 56.5431 46.8643 55.2167 49.5099 53.7954C49.5099 53.7954 49.5099 53.7954 49.6044 53.7954C53.1948 58.8171 60.659 58.8171 64.2494 53.8902H64.3438C73.1308 57.4906 73.6977 57.0169 74.8316 60.3331C75.0205 60.9016 76.1543 64.5021 75.7764 64.8811Z" fill="#D7B2FF"/>
<path d="M64.8163 38.9198C64.9107 38.3513 64.6273 37.5933 64.4383 37.0248C64.4383 36.9301 64.3438 36.8353 64.3438 36.7406C63.399 34.8456 61.2259 33.9929 59.2417 33.8981C54.0451 33.6139 53.5727 34.6561 51.872 33.1401C52.3444 33.8981 52.4389 35.1299 51.683 36.6458C51.1161 37.6881 50.0768 38.1618 49.132 38.4461C46.7699 33.0454 47.9037 29.6344 50.2658 28.4026C49.5099 26.7919 49.4154 26.1287 49.4154 26.1287C49.4154 26.1287 54.423 26.9814 56.1238 26.6024C58.2969 26.1287 61.6983 26.6972 62.9266 29.6344C65.0052 30.4871 65.8556 31.8136 66.0445 33.2349C66.4225 35.5088 65.0997 37.9723 64.8163 38.9198Z" fill="#011132"/>
<path d="M50.8324 46.0259C51.1158 46.4996 51.3993 46.8786 51.8717 47.1629L55.6511 49.8159C56.5014 50.5738 57.8242 50.5738 58.6746 49.8159L59.9973 48.5841" stroke="#011132" stroke-miterlimit="10" stroke-linecap="round" stroke-linejoin="round"/>
<path d="M75.7763 64.8811C76.1542 64.5021 75.1149 60.9016 74.9259 60.4279C73.7921 57.0169 73.8866 57.8697 64.1548 53.7954C63.3044 53.5112 62.7375 52.6585 62.643 51.9005C62.5485 51.5215 62.5485 46.9735 62.7375 46.026L63.8713 44.131C65.0996 44.51 65.0051 42.994 65.2886 40.5305C65.383 39.583 65.2886 39.2988 65.0051 39.1093C65.0051 39.1093 65.0051 39.0146 64.9106 39.0146C65.2886 37.3091 68.501 31.9083 63.021 29.7291C61.7927 26.7919 58.3912 26.3181 56.2181 26.6971C54.5174 27.0761 49.5098 26.2234 49.5098 26.2234C49.5098 26.2234 49.5098 26.8866 50.3601 28.5921C46.9587 30.2976 47.5256 34.8456 49.2263 38.6356L48.8484 39.204C48.376 39.3935 48.187 39.583 48.376 40.6253C48.6594 43.1835 48.6594 44.51 49.7932 44.2258L50.1712 44.4153C50.2656 45.4575 50.6436 46.026 51.116 46.784C51.116 51.2372 51.2105 51.9952 50.927 52.6585C50.1712 54.4587 43.7463 55.9747 40.8173 57.5854" stroke="#011132" stroke-miterlimit="10" stroke-linecap="round" stroke-linejoin="round"/>
<path d="M85.036 60.9965V84.21C85.036 86.2945 83.3353 88 81.2567 88H31.7472C29.6685 88 27.9678 86.2945 27.9678 84.21V60.9965H85.036Z" fill="white"/>
<path d="M63.8716 69.903H49.1321C48.3762 69.903 47.8093 69.3345 47.8093 68.5765C47.8093 67.8185 48.3762 67.25 49.1321 67.25H63.8716C64.6274 67.25 65.1943 67.8185 65.1943 68.5765C65.1943 69.3345 64.6274 69.903 63.8716 69.903Z" fill="#FFD986"/>
<path d="M69.9187 75.7774H43.1798C42.424 75.7774 41.8571 75.2089 41.8571 74.4509C41.8571 73.6929 42.424 73.1244 43.1798 73.1244H69.9187C70.6746 73.1244 71.2415 73.6929 71.2415 74.4509C71.2415 75.2089 70.5801 75.7774 69.9187 75.7774Z" fill="#F0C7FF"/>
<path d="M61.793 81.7465H51.3053C50.8329 81.7465 50.455 81.3675 50.455 80.8937V79.9463C50.455 79.4725 50.8329 79.0935 51.3053 79.0935H61.793C62.2654 79.0935 62.6434 79.4725 62.6434 79.9463V80.8937C62.6434 81.3675 62.2654 81.7465 61.793 81.7465Z" fill="#F0C7FF"/>
<path d="M27.9678 19.7805V19.4962" stroke="#011132" stroke-miterlimit="10" stroke-linecap="round" stroke-linejoin="round"/>
<path d="M56.7854 7.27344H81.2567C83.3353 7.27344 85.0361 8.97893 85.0361 11.0634V84.2099C85.0361 86.2944 83.3353 87.9999 81.2567 87.9999H31.7472C29.6685 87.9999 27.9678 86.2944 27.9678 84.2099V23.2861" stroke="#011132" stroke-miterlimit="10" stroke-linecap="round" stroke-linejoin="round"/>
<path d="M27.9678 14.4745V11.1583C27.9678 9.07377 29.6685 7.36829 31.7472 7.36829H50.9274" stroke="#011132" stroke-miterlimit="10" stroke-linecap="round" stroke-linejoin="round"/>
<path d="M56.4071 17.317C56.0291 17.317 55.7457 17.1275 55.5567 16.7485L48.0925 1.30436C47.9035 0.830611 48.0925 0.262115 48.5649 0.0726165C49.0373 -0.116882 49.6042 0.0726165 49.7932 0.546363L57.2574 15.9905C57.4464 16.4643 57.2574 17.0327 56.785 17.2222C56.6905 17.317 56.5016 17.317 56.4071 17.317Z" fill="#D7B2FF"/>
<path d="M79.8401 61.1859H80.1243" stroke="#011132" stroke-miterlimit="10" stroke-linecap="round" stroke-linejoin="round"/>
<path d="M27.968 61.1859H75.8713" stroke="#011132" stroke-miterlimit="10" stroke-linecap="round" stroke-linejoin="round"/>
<g opacity="0.3">
<path opacity="0.3" d="M31.9308 11.8748C31.7444 11.8748 31.297 11.7072 31.1479 11.6514C30.3651 11.2976 29.079 10.255 28.3707 10.255C27.6624 10.255 26.3763 11.2976 25.5935 11.6514C25.463 11.7072 24.997 11.8748 24.8106 11.8748C24.5124 11.8934 24.2887 12.1541 24.326 12.4334C24.4006 13.1222 24.587 14.351 25.0716 15.9336C25.6867 17.8885 27.4201 19.0615 28.0911 19.4525C28.2589 19.5456 28.4453 19.5456 28.613 19.4525C29.284 19.0615 31.0361 17.8885 31.6325 15.9336C32.1172 14.351 32.3036 13.1222 32.3781 12.4334C32.4527 12.1355 32.229 11.8934 31.9308 11.8748Z" fill="#D7B2FF"/>
</g>
<path d="M31.4648 11.1116C31.2784 11.1116 30.831 10.9441 30.6819 10.8882C29.8991 10.5344 28.613 9.49182 27.9047 9.49182C27.1964 9.49182 25.9103 10.5158 25.1275 10.8882C24.997 10.9441 24.531 11.1116 24.3446 11.1116C24.0464 11.1302 23.8227 11.3909 23.86 11.6702C23.9346 12.359 24.121 13.5879 24.6056 15.1704C25.2393 17.1253 26.9914 18.2983 27.6624 18.6893C27.8301 18.7824 28.0165 18.7824 28.1843 18.6893C28.8553 18.2983 30.6074 17.1253 31.2038 15.1704C31.6884 13.5879 31.8748 12.359 31.9494 11.6702C31.9867 11.3723 31.763 11.1116 31.4648 11.1116Z" fill="#D7B2FF"/>
<path d="M24.3632 11.1115C24.065 11.1301 23.8413 11.3908 23.8786 11.67C23.9531 12.3589 24.1395 13.5877 24.6241 15.1703C25.2392 17.1252 26.9913 18.2982 27.6623 18.6892C27.8301 18.7823 28.0165 18.7823 28.1842 18.6892C28.8552 18.2982 30.6073 17.1252 31.2037 15.1703C31.6883 13.5877 31.8747 12.3589 31.9493 11.67C31.9866 11.3722 31.7629 11.1115 31.4647 11.1115C31.2783 11.1115 30.831 10.9439 30.6818 10.8881C29.899 10.5343 28.6129 9.4917 27.9046 9.4917C27.5878 9.4917 27.1777 9.67788 26.749 9.93854" stroke="#011132" stroke-width="0.25747" stroke-miterlimit="10" stroke-linecap="round" stroke-linejoin="round"/>
<path d="M25.7984 10.5157C25.5561 10.6647 25.3325 10.795 25.1274 10.8881" stroke="#011132" stroke-width="0.25747" stroke-miterlimit="10" stroke-linecap="round" stroke-linejoin="round"/>
<path d="M30.9428 11.9867C30.8869 12.4335 30.775 13.1224 30.5514 13.9788C30.5141 14.1278 30.4768 14.2953 30.4209 14.4443C30.3836 14.5932 30.3463 14.7236 30.2904 14.8725C29.8244 16.362 28.5384 17.2929 27.9046 17.6653C27.9046 17.6653 27.9046 17.6653 27.886 17.6653C27.886 17.6653 27.886 17.6653 27.8673 17.6653C27.8114 17.628 27.7555 17.5908 27.681 17.5535C27.0099 17.1067 25.9289 16.2316 25.5188 14.8911C25.4256 14.5746 25.3324 14.2767 25.2579 13.9788C25.0342 13.1224 24.9224 12.4335 24.8665 11.9867C25.1833 11.9308 25.5375 11.7819 25.612 11.7446C25.8916 11.6143 26.2271 11.4095 26.5626 11.2047C26.9354 10.9813 27.5878 10.5717 27.8487 10.5344C27.8487 10.5344 27.8487 10.5344 27.8673 10.5344C27.8673 10.5344 27.8673 10.5344 27.886 10.5344C28.1283 10.5344 28.8179 10.9626 29.2094 11.2047C29.5449 11.4095 29.8804 11.6143 30.16 11.7446C30.2718 11.7819 30.6259 11.9308 30.9428 11.9867Z" fill="#D7B2FF"/>
<path d="M27.8861 10.5344V13.9602H25.2767C25.053 13.1038 24.9412 12.4149 24.8853 11.968C25.2021 11.9122 25.5563 11.7632 25.6308 11.726C25.9104 11.5957 26.2459 11.3909 26.5814 11.1861C26.9728 10.9813 27.6252 10.5717 27.8861 10.5344Z" fill="white"/>
<path d="M30.5516 13.9789C30.5143 14.1278 30.477 14.2954 30.4211 14.4443C30.3838 14.5933 30.3465 14.7236 30.2906 14.8726C29.8246 16.362 28.5385 17.2929 27.9048 17.6653C27.9048 17.6653 27.9048 17.6653 27.8862 17.6653V13.9789H30.5516Z" fill="white"/>
<path d="M30.2533 15.0402C29.75 16.4365 28.5198 17.3116 27.9234 17.684C27.9234 17.684 27.9234 17.684 27.9047 17.684C27.9047 17.684 27.9047 17.684 27.8861 17.684C27.8302 17.6467 27.7743 17.6095 27.6997 17.5723C27.5692 17.4792 27.4015 17.3675 27.2524 17.2371" stroke="#011132" stroke-width="0.25747" stroke-miterlimit="10" stroke-linecap="round" stroke-linejoin="round"/>
<path d="M28.4825 10.7579C28.7434 10.9069 29.0417 11.0744 29.2467 11.2048C29.5822 11.4096 29.9177 11.6144 30.1973 11.7447C30.2718 11.7819 30.6446 11.9309 30.9428 11.9867C30.9056 12.3591 30.8124 12.899 30.6633 13.5693" stroke="#011132" stroke-width="0.25747" stroke-miterlimit="10" stroke-linecap="round" stroke-linejoin="round"/>
<path d="M25.0716 13.048C24.9784 12.6197 24.9224 12.2474 24.9038 11.9867C25.2207 11.9309 25.5748 11.7819 25.6494 11.7447C25.873 11.633 26.134 11.484 26.3949 11.3351" stroke="#011132" stroke-width="0.25747" stroke-miterlimit="10" stroke-linecap="round" stroke-linejoin="round"/>
</svg>
