<svg width="641" height="541" viewBox="0 0 641 541" fill="none" xmlns="http://www.w3.org/2000/svg">
<g clip-path="url(#clip0_358_1235)">
<path d="M301.342 200C292.523 200 285.372 192.873 285.372 184.085V150.212H317.312V184.085C317.312 192.873 310.16 200 301.342 200Z" fill="#F89DA7"/>
<path d="M285.358 160.973C285.358 160.973 294.148 177.257 304.191 176.447C319.72 175.212 317.141 156.046 317.141 156.046C317.141 156.046 311.115 168.838 301.598 168.852C290.985 168.852 285.358 160.973 285.358 160.973Z" fill="#F0717C"/>
<path d="M277.508 138.457L275.912 122.357C273.861 112.065 281.924 106.627 288.962 106.627H313.366C320.845 106.627 329.735 112.022 325.945 123.635L323.766 141.182L277.508 138.457Z" fill="#000714"/>
<path d="M322.127 147.287C326.971 150.85 335.334 134.652 330.618 130.819C325.903 126.986 322.783 134.013 322.783 134.013L322.669 139.961L321.971 145.541L321.7 147.259L322.127 147.287Z" fill="#F89DA7"/>
<path d="M329.308 135.702C329.308 135.702 325.803 134.538 323.31 139.678" stroke="#F0717C" stroke-width="0.6735" stroke-miterlimit="10" stroke-linecap="round" stroke-linejoin="round"/>
<path d="M325.019 137.165C325.019 137.165 328.837 139.195 326.316 142.247" stroke="#F0717C" stroke-width="0.6735" stroke-miterlimit="10" stroke-linecap="round" stroke-linejoin="round"/>
<path d="M279.887 147.287C275.057 150.85 266.681 134.652 271.396 130.819C276.112 126.986 279.075 134.084 279.075 134.084L279.346 139.961L280.044 145.541L280.314 147.259L279.887 147.287Z" fill="#F89DA7"/>
<path d="M272.693 135.702C272.693 135.702 276.197 134.538 278.69 139.678" stroke="#F0717C" stroke-width="0.6735" stroke-miterlimit="10" stroke-linecap="round" stroke-linejoin="round"/>
<path d="M276.995 137.165C276.995 137.165 273.177 139.195 275.698 142.247" stroke="#F0717C" stroke-width="0.6735" stroke-miterlimit="10" stroke-linecap="round" stroke-linejoin="round"/>
<path d="M323.709 126.403C323.709 136.426 322.37 145.087 321.03 151.22C319.72 157.225 316.044 162.478 310.844 165.857L309.904 166.467C304.405 170.045 297.296 170.13 291.711 166.68C286.084 163.202 282.138 157.566 280.927 151.12C278.719 139.394 278.477 126.389 278.477 126.389C278.477 126.389 276.382 101.09 300.772 101.587C325.162 102.07 323.709 126.403 323.709 126.403Z" fill="#F89DA7"/>
<path d="M324.036 97.7258C316.286 92.26 300.972 96.079 292.623 99.8979C292.794 97.4135 291.27 97.6832 291.27 97.6832C276.596 101.616 280.443 113.144 280.443 113.144C280.443 113.144 280.5 113.172 280.585 113.215C279.046 116.537 277.066 123.592 278.947 136.398C278.947 136.398 282.836 122.556 282.95 114.294C289.461 117.161 307.311 124.118 318.965 120.228C320.119 127.284 323.167 136.398 323.167 136.398C324.392 128.107 323.88 122.187 323.053 118.198C323.766 117.701 324.449 117.147 325.076 116.494C325.048 116.48 335.02 105.463 324.036 97.7258Z" fill="#000714"/>
<path d="M298.963 136.086V144.249C298.963 144.519 299.02 144.788 299.12 145.03C299.504 145.981 300.587 146.435 301.584 146.165L303.707 145.598" stroke="#F0717C" stroke-width="0.6735" stroke-miterlimit="10" stroke-linecap="round" stroke-linejoin="round"/>
<path d="M292.951 133.814C292.951 134.978 291.996 135.93 290.828 135.93C289.66 135.93 288.705 134.978 288.705 133.814C288.705 132.65 289.66 131.699 290.828 131.699C292.011 131.699 292.951 132.65 292.951 133.814Z" fill="#000714"/>
<path d="M312.568 133.814C312.568 134.978 311.614 135.93 310.445 135.93C309.277 135.93 308.323 134.978 308.323 133.814C308.323 132.65 309.277 131.699 310.445 131.699C311.614 131.699 312.568 132.65 312.568 133.814Z" fill="#000714"/>
<path d="M294.675 136.128L289.404 139.592" stroke="#F0717C" stroke-width="0.5051" stroke-miterlimit="10" stroke-linecap="round" stroke-linejoin="round"/>
<path d="M307.112 136.1L311.77 139.607" stroke="#F0717C" stroke-width="0.5051" stroke-miterlimit="10" stroke-linecap="round" stroke-linejoin="round"/>
<path d="M300.872 161.583V163.869" stroke="#F0717C" stroke-width="0.5051" stroke-miterlimit="10" stroke-linecap="round" stroke-linejoin="round"/>
<path d="M296.213 127.127L296.299 123.01L288.634 123.152C287.665 123.167 286.739 123.521 285.999 124.132L282.95 127.624L288.022 126.872L296.213 127.127Z" fill="#000714"/>
<path d="M305.174 127.127L305.089 123.01L312.753 123.152C313.722 123.167 314.648 123.521 315.389 124.132L318.438 127.624L313.366 126.872L305.174 127.127Z" fill="#000714"/>
<path d="M292.039 148.877H309.178C309.178 148.877 308.28 154.712 300.402 154.712C292.524 154.712 292.039 148.877 292.039 148.877Z" fill="white"/>
<path opacity="0.19" d="M321.515 135.972C321.515 141.012 317.412 145.101 312.354 145.101C307.297 145.101 303.194 141.012 303.194 135.972C303.194 130.932 307.297 126.844 312.354 126.844C317.412 126.844 321.515 130.932 321.515 135.972Z" fill="white"/>
<path opacity="0.19" d="M298.991 135.972C298.991 141.012 294.888 145.101 289.831 145.101C284.773 145.101 280.671 141.012 280.671 135.972C280.671 130.932 284.773 126.844 289.831 126.844C294.888 126.844 298.991 130.932 298.991 135.972Z" fill="white"/>
<path d="M298.991 135.972C298.991 141.012 294.888 145.101 289.831 145.101C284.773 145.101 280.671 141.012 280.671 135.972C280.671 130.932 284.773 126.844 289.831 126.844C294.888 126.844 298.991 130.932 298.991 135.972Z" stroke="#000714" stroke-width="0.4282" stroke-miterlimit="10" stroke-linecap="round" stroke-linejoin="round"/>
<path d="M321.515 135.972C321.515 141.012 317.412 145.101 312.354 145.101C307.297 145.101 303.194 141.012 303.194 135.972C303.194 130.932 307.297 126.844 312.354 126.844C317.412 126.844 321.515 130.932 321.515 135.972Z" stroke="#000714" stroke-width="0.4282" stroke-miterlimit="10" stroke-linecap="round" stroke-linejoin="round"/>
<path d="M298.991 135.972C298.991 135.972 301.157 133.956 303.18 135.972" stroke="#000714" stroke-width="0.4282" stroke-miterlimit="10" stroke-linecap="round" stroke-linejoin="round"/>
<path d="M280.656 135.972H279.132" stroke="#000714" stroke-width="0.4282" stroke-miterlimit="10"/>
<path d="M323.31 135.972H321.785" stroke="#000714" stroke-width="0.4282" stroke-miterlimit="10"/>
</g>
<path d="M631.764 298.634H405.204C400.542 298.634 396.727 294.819 396.727 290.157V144.449C396.727 139.787 400.542 135.973 405.204 135.973H631.764C636.426 135.973 640.241 139.787 640.241 144.449V290.157C640.241 294.819 636.426 298.634 631.764 298.634Z" fill="#FDE9AA"/>
<path d="M640.241 159.128H396.727V144.45C396.727 139.787 400.542 135.973 405.204 135.973H631.764C636.426 135.973 640.241 139.787 640.241 144.45V159.128Z" fill="#FCD66A"/>
<path d="M411.617 147.55C411.617 149.176 410.299 150.495 408.672 150.495C407.045 150.495 405.726 149.176 405.726 147.55C405.726 145.923 407.045 144.605 408.672 144.605C410.299 144.605 411.617 145.923 411.617 147.55Z" fill="#FABE2C"/>
<path d="M421.437 147.55C421.437 149.176 420.117 150.495 418.491 150.495C416.864 150.495 415.545 149.176 415.545 147.55C415.545 145.923 416.864 144.605 418.491 144.605C420.117 144.605 421.437 145.923 421.437 147.55Z" fill="#FABE2C"/>
<path d="M432.041 147.55C432.041 149.176 430.722 150.495 429.095 150.495C427.468 150.495 426.149 149.176 426.149 147.55C426.149 145.923 427.468 144.605 429.095 144.605C430.722 144.605 432.041 145.923 432.041 147.55Z" fill="#FABE2C"/>
<path d="M528.118 206.465H410.566C407.904 206.465 405.726 204.288 405.726 201.626V174.942C405.726 172.28 407.904 170.102 410.566 170.102H528.118C530.78 170.102 532.958 172.28 532.958 174.942V201.626C532.958 204.288 530.78 206.465 528.118 206.465Z" fill="#FCD66A"/>
<path d="M419.647 188.11C419.647 185.362 421.875 183.135 424.622 183.135C427.371 183.135 429.598 185.362 429.598 188.11C429.598 190.857 427.371 193.085 424.622 193.085C421.875 193.085 419.647 190.857 419.647 188.11ZM436.849 184.965H433.89C433.753 184.557 433.59 184.16 433.402 183.776L435.506 181.672C435.977 181.202 435.977 180.432 435.506 179.962L432.77 177.226C432.3 176.756 431.531 176.756 431.06 177.226L428.974 179.311C428.568 179.106 428.144 178.93 427.707 178.783V175.739C427.707 175.074 427.163 174.53 426.499 174.53H422.63C421.964 174.53 421.42 175.074 421.42 175.739V178.783C420.874 178.967 420.348 179.195 419.849 179.468L417.608 177.226C417.138 176.756 416.368 176.756 415.898 177.226L413.162 179.962C412.692 180.432 412.692 181.202 413.162 181.672L415.58 184.09C415.453 184.375 415.338 184.667 415.237 184.965H411.796C411.13 184.965 410.586 185.51 410.586 186.175V190.044C410.586 190.709 411.13 191.254 411.796 191.254H415.237C415.384 191.691 415.562 192.113 415.766 192.521L413.39 194.896C412.92 195.367 412.92 196.136 413.39 196.607L416.126 199.342C416.596 199.812 417.366 199.812 417.836 199.342L420.231 196.947C420.614 197.136 421.011 197.298 421.42 197.437V200.829C421.42 201.495 421.964 202.039 422.63 202.039H426.499C427.163 202.039 427.707 201.495 427.707 200.829V197.437C428.006 197.336 428.298 197.221 428.584 197.093L431.06 199.571C431.531 200.04 432.3 200.04 432.77 199.571L435.506 196.835C435.977 196.364 435.977 195.594 435.506 195.125L433.206 192.823C433.478 192.325 433.707 191.8 433.89 191.254H436.849C437.513 191.254 438.058 190.709 438.058 190.044V186.175C438.058 185.51 437.513 184.965 436.849 184.965Z" fill="white"/>
<path d="M528.292 187.065H442.784C442.546 187.065 442.351 186.87 442.351 186.632V186.554C442.351 186.316 442.546 186.121 442.784 186.121H528.292C528.53 186.121 528.725 186.316 528.725 186.554V186.632C528.725 186.87 528.53 187.065 528.292 187.065Z" fill="white"/>
<path d="M498.639 190.649H442.784C442.546 190.649 442.351 190.454 442.351 190.215V190.139C442.351 189.9 442.546 189.704 442.784 189.704H498.639C498.877 189.704 499.072 189.9 499.072 190.139V190.215C499.072 190.454 498.877 190.649 498.639 190.649Z" fill="white"/>
<path d="M515.134 194.232H442.784C442.546 194.232 442.351 194.037 442.351 193.799V193.722C442.351 193.484 442.546 193.289 442.784 193.289H515.134C515.373 193.289 515.568 193.484 515.568 193.722V193.799C515.568 194.037 515.373 194.232 515.134 194.232Z" fill="white"/>
<path d="M470.851 198.111H442.784C442.546 198.111 442.351 197.915 442.351 197.677V197.6C442.351 197.362 442.546 197.167 442.784 197.167H470.851C471.089 197.167 471.284 197.362 471.284 197.6V197.677C471.284 197.915 471.089 198.111 470.851 198.111Z" fill="white"/>
<path d="M518.555 202.039H442.784C442.546 202.039 442.351 201.844 442.351 201.606V201.529C442.351 201.29 442.546 201.094 442.784 201.094H518.555C518.793 201.094 518.988 201.29 518.988 201.529V201.605C518.988 201.844 518.793 202.039 518.555 202.039Z" fill="white"/>
<path d="M413.974 220.114C413.974 222.392 412.128 224.238 409.85 224.238C407.573 224.238 405.726 222.392 405.726 220.114C405.726 217.837 407.573 215.99 409.85 215.99C412.128 215.99 413.974 217.837 413.974 220.114Z" fill="white"/>
<path d="M413.974 233.468C413.974 235.745 412.128 237.592 409.85 237.592C407.573 237.592 405.726 235.745 405.726 233.468C405.726 231.191 407.573 229.344 409.85 229.344C412.128 229.344 413.974 231.191 413.974 233.468Z" fill="white"/>
<path d="M413.974 246.822C413.974 249.099 412.128 250.946 409.85 250.946C407.573 250.946 405.726 249.099 405.726 246.822C405.726 244.544 407.573 242.698 409.85 242.698C412.128 242.698 413.974 244.544 413.974 246.822Z" fill="white"/>
<path d="M413.974 260.176C413.974 262.453 412.128 264.3 409.85 264.3C407.573 264.3 405.726 262.453 405.726 260.176C405.726 257.898 407.573 256.051 409.85 256.051C412.128 256.051 413.974 257.898 413.974 260.176Z" fill="white"/>
<path d="M413.974 273.53C413.974 275.808 412.128 277.653 409.85 277.653C407.573 277.653 405.726 275.808 405.726 273.53C405.726 271.252 407.573 269.406 409.85 269.406C412.128 269.406 413.974 271.252 413.974 273.53Z" fill="white"/>
<path d="M413.974 286.884C413.974 289.161 412.128 291.008 409.85 291.008C407.573 291.008 405.726 289.161 405.726 286.884C405.726 284.606 407.573 282.76 409.85 282.76C412.128 282.76 413.974 284.606 413.974 286.884Z" fill="white"/>
<path d="M531.875 221.292H423.932C423.336 221.292 422.85 220.806 422.85 220.211V220.018C422.85 219.423 423.336 218.936 423.932 218.936H531.875C532.471 218.936 532.958 219.423 532.958 220.018V220.211C532.958 220.806 532.471 221.292 531.875 221.292Z" fill="white"/>
<path d="M531.875 234.646H423.932C423.336 234.646 422.85 234.159 422.85 233.564V233.372C422.85 232.776 423.336 232.289 423.932 232.289H531.875C532.471 232.289 532.958 232.776 532.958 233.372V233.564C532.958 234.159 532.471 234.646 531.875 234.646Z" fill="white"/>
<path d="M531.875 248.001H423.932C423.336 248.001 422.85 247.513 422.85 246.918V246.726C422.85 246.13 423.336 245.644 423.932 245.644H531.875C532.471 245.644 532.958 246.13 532.958 246.726V246.918C532.958 247.513 532.471 248.001 531.875 248.001Z" fill="white"/>
<path d="M531.875 261.354H423.932C423.336 261.354 422.85 260.867 422.85 260.272V260.079C422.85 259.485 423.336 258.998 423.932 258.998H531.875C532.471 258.998 532.958 259.485 532.958 260.079V260.272C532.958 260.867 532.471 261.354 531.875 261.354Z" fill="white"/>
<path d="M531.875 274.708H423.932C423.336 274.708 422.849 274.221 422.849 273.626V273.434C422.849 272.839 423.336 272.351 423.932 272.351H531.875C532.471 272.351 532.957 272.839 532.957 273.434V273.626C532.957 274.221 532.471 274.708 531.875 274.708Z" fill="white"/>
<path d="M531.875 288.061H423.932C423.336 288.061 422.849 287.575 422.849 286.979V286.788C422.849 286.192 423.336 285.706 423.932 285.706H531.875C532.471 285.706 532.957 286.192 532.957 286.788V286.979C532.957 287.575 532.471 288.061 531.875 288.061Z" fill="white"/>
<path d="M623.28 288.061H610.459V279.924C610.459 279.543 610.417 279.172 610.339 278.815H622.404C623.075 278.815 623.619 278.267 623.619 277.598V277.381C623.619 276.712 623.075 276.164 622.404 276.164H608.729C607.867 275.425 606.744 274.98 605.514 274.98H545.341V178.579C545.341 173.917 549.156 170.102 553.818 170.102H623.28C627.942 170.102 631.757 173.917 631.757 178.579V279.585C631.757 284.247 627.942 288.061 623.28 288.061Z" fill="#FEF6D9"/>
<path d="M593.598 182H554.698C554.029 182 553.48 181.452 553.48 180.782V180.566C553.48 179.897 554.029 179.349 554.698 179.349H593.598C594.269 179.349 594.82 179.897 594.82 180.566V180.782C594.82 181.452 594.269 182 593.598 182Z" fill="#FABE2C"/>
<path d="M622.404 182H599.475C598.804 182 598.253 181.452 598.253 180.782V180.566C598.253 179.897 598.804 179.349 599.475 179.349H622.404C623.076 179.349 623.619 179.897 623.619 180.566V180.782C623.619 181.452 623.076 182 622.404 182Z" fill="#FCD66A"/>
<path d="M565.442 190.719H554.698C554.029 190.719 553.48 190.171 553.48 189.502V189.286C553.48 188.616 554.029 188.068 554.698 188.068H565.442C566.111 188.068 566.66 188.616 566.66 189.286V189.502C566.66 190.171 566.111 190.719 565.442 190.719Z" fill="#FABE2C"/>
<path d="M581.596 190.719H570.85C570.18 190.719 569.632 190.171 569.632 189.502V189.286C569.632 188.616 570.18 188.068 570.85 188.068H581.596C582.267 188.068 582.811 188.616 582.811 189.286V189.502C582.811 190.171 582.267 190.719 581.596 190.719Z" fill="#FABE2C"/>
<path d="M622.404 190.719H587.516C586.845 190.719 586.301 190.171 586.301 189.502V189.286C586.301 188.616 586.845 188.068 587.516 188.068H622.404C623.076 188.068 623.619 188.616 623.619 189.286V189.502C623.619 190.171 623.076 190.719 622.404 190.719Z" fill="#FCD66A"/>
<path d="M608.022 199.753H554.698C554.029 199.753 553.48 199.205 553.48 198.535V198.32C553.48 197.649 554.029 197.102 554.698 197.102H608.022C608.693 197.102 609.244 197.649 609.244 198.32V198.535C609.244 199.205 608.693 199.753 608.022 199.753Z" fill="#FABE2C"/>
<path d="M622.405 199.753H614.324C613.653 199.753 613.102 199.205 613.102 198.535V198.32C613.102 197.649 613.653 197.102 614.324 197.102H622.405C623.076 197.102 623.62 197.649 623.62 198.32V198.535C623.62 199.205 623.076 199.753 622.405 199.753Z" fill="#FCD66A"/>
<path d="M593.598 208.982H554.698C554.029 208.982 553.48 208.435 553.48 207.765V207.549C553.48 206.879 554.029 206.331 554.698 206.331H593.598C594.269 206.331 594.82 206.879 594.82 207.549V207.765C594.82 208.435 594.269 208.982 593.598 208.982Z" fill="#FABE2C"/>
<path d="M622.404 208.982H599.475C598.804 208.982 598.253 208.435 598.253 207.765V207.549C598.253 206.879 598.804 206.331 599.475 206.331H622.404C623.076 206.331 623.619 206.879 623.619 207.549V207.765C623.619 208.435 623.076 208.982 622.404 208.982Z" fill="#FCD66A"/>
<path d="M575.754 218.507H554.698C554.029 218.507 553.48 217.959 553.48 217.29V217.073C553.48 216.404 554.029 215.856 554.698 215.856H575.754C576.418 215.856 576.969 216.404 576.969 217.073V217.29C576.969 217.959 576.418 218.507 575.754 218.507Z" fill="#FABE2C"/>
<path d="M622.404 218.507H582.111C581.447 218.507 580.896 217.959 580.896 217.29V217.073C580.896 216.404 581.447 215.856 582.111 215.856H622.404C623.075 215.856 623.619 216.404 623.619 217.073V217.29C623.619 217.959 623.075 218.507 622.404 218.507Z" fill="#FCD66A"/>
<path d="M564.559 228.522H554.698C554.029 228.522 553.48 227.974 553.48 227.305V227.089C553.48 226.419 554.029 225.871 554.698 225.871H564.559C565.228 225.871 565.776 226.419 565.776 227.089V227.305C565.776 227.974 565.228 228.522 564.559 228.522Z" fill="#FABE2C"/>
<path d="M599.517 228.522H570.932C570.262 228.522 569.715 227.974 569.715 227.305V227.089C569.715 226.419 570.262 225.871 570.932 225.871H599.517C600.181 225.871 600.732 226.419 600.732 227.089V227.305C600.732 227.974 600.181 228.522 599.517 228.522Z" fill="#FABE2C"/>
<path d="M622.404 228.522H605.486C604.815 228.522 604.264 227.974 604.264 227.305V227.089C604.264 226.419 604.815 225.871 605.486 225.871H622.404C623.075 225.871 623.619 226.419 623.619 227.089V227.305C623.619 227.974 623.075 228.522 622.404 228.522Z" fill="#FCD66A"/>
<path d="M609.718 239.245H554.698C554.029 239.245 553.48 238.698 553.48 238.028V237.811C553.48 237.142 554.029 236.594 554.698 236.594H609.718C610.389 236.594 610.94 237.142 610.94 237.811V238.028C610.94 238.698 610.389 239.245 609.718 239.245Z" fill="#FABE2C"/>
<path d="M622.404 239.245H615.432C614.761 239.245 614.217 238.698 614.217 238.028V237.811C614.217 237.142 614.761 236.594 615.432 236.594H622.404C623.075 236.594 623.619 237.142 623.619 237.811V238.028C623.619 238.698 623.075 239.245 622.404 239.245Z" fill="#FCD66A"/>
<path d="M593.598 249.359H554.698C554.029 249.359 553.48 248.811 553.48 248.141V247.924C553.48 247.255 554.029 246.708 554.698 246.708H593.598C594.269 246.708 594.82 247.255 594.82 247.924V248.141C594.82 248.811 594.269 249.359 593.598 249.359Z" fill="#FABE2C"/>
<path d="M622.404 249.359H599.475C598.804 249.359 598.253 248.811 598.253 248.141V247.924C598.253 247.255 598.804 246.708 599.475 246.708H622.404C623.076 246.708 623.619 247.255 623.619 247.924V248.141C623.619 248.811 623.076 249.359 622.404 249.359Z" fill="#FCD66A"/>
<path d="M581.646 259.178H554.698C554.029 259.178 553.48 258.63 553.48 257.96V257.744C553.48 257.074 554.029 256.526 554.698 256.526H581.646C582.31 256.526 582.861 257.074 582.861 257.744V257.96C582.861 258.63 582.31 259.178 581.646 259.178Z" fill="#FABE2C"/>
<path d="M622.404 259.178H587.615C586.944 259.178 586.393 258.63 586.393 257.96V257.744C586.393 257.074 586.944 256.526 587.615 256.526H622.404C623.075 256.526 623.619 257.074 623.619 257.744V257.96C623.619 258.63 623.075 259.178 622.404 259.178Z" fill="#FCD66A"/>
<path d="M567.635 268.899H554.698C554.029 268.899 553.48 268.35 553.48 267.681V267.465C553.48 266.795 554.029 266.247 554.698 266.247H567.635C568.305 266.247 568.852 266.795 568.852 267.465V267.681C568.852 268.35 568.305 268.899 567.635 268.899Z" fill="#FABE2C"/>
<path d="M622.404 268.899H599.475C598.804 268.899 598.253 268.35 598.253 267.681V267.465C598.253 266.795 598.804 266.247 599.475 266.247H622.404C623.076 266.247 623.619 266.795 623.619 267.465V267.681C623.619 268.35 623.076 268.899 622.404 268.899Z" fill="#FCD66A"/>
<path d="M593.597 268.899H573.55C572.88 268.899 572.333 268.35 572.333 267.681V267.465C572.333 266.795 572.88 266.247 573.55 266.247H593.597C594.268 266.247 594.82 266.795 594.82 267.465V267.681C594.82 268.35 594.268 268.899 593.597 268.899Z" fill="#FCD66A"/>
<path d="M586.294 278.816H554.698C554.029 278.816 553.48 278.267 553.48 277.598V277.382C553.48 276.712 554.029 276.164 554.698 276.164H586.294C586.958 276.164 587.509 276.712 587.509 277.382V277.598C587.509 278.267 586.958 278.816 586.294 278.816Z" fill="#FABE2C"/>
<path d="M622.404 278.816H592.263C591.591 278.816 591.041 278.267 591.041 277.598V277.382C591.041 276.712 591.591 276.164 592.263 276.164H622.404C623.075 276.164 623.619 276.712 623.619 277.382V277.598C623.619 278.267 623.075 278.816 622.404 278.816Z" fill="#FCD66A"/>
<path d="M610.459 298.634H524.419V288.061H531.875C532.47 288.061 532.957 287.575 532.957 286.979V286.788C532.957 286.192 532.47 285.706 531.875 285.706H524.419V279.924C524.419 277.205 526.645 274.98 529.364 274.98H545.341V279.585C545.341 284.247 549.156 288.061 553.818 288.061H610.459V298.634Z" fill="#FCD570"/>
<path d="M531.875 288.061H524.419V285.706H531.875C532.47 285.706 532.957 286.192 532.957 286.788V286.979C532.957 287.575 532.47 288.061 531.875 288.061Z" fill="#FDE19A"/>
<path d="M610.459 288.061H553.818C549.156 288.061 545.341 284.247 545.341 279.585V274.98H605.514C606.744 274.98 607.867 275.425 608.729 276.164H592.263C591.592 276.164 591.041 276.712 591.041 277.381V277.598C591.041 278.267 591.592 278.815 592.263 278.815H610.339C610.417 279.172 610.459 279.543 610.459 279.924V288.061ZM554.697 276.164C554.029 276.164 553.48 276.712 553.48 277.381V277.598C553.48 278.267 554.029 278.815 554.697 278.815H586.294C586.958 278.815 587.509 278.267 587.509 277.598V277.381C587.509 276.712 586.958 276.164 586.294 276.164H554.697Z" fill="#FCDB85"/>
<path d="M586.294 278.816H554.698C554.029 278.816 553.48 278.267 553.48 277.598V277.382C553.48 276.712 554.029 276.164 554.698 276.164H586.294C586.958 276.164 587.509 276.712 587.509 277.382V277.598C587.509 278.267 586.958 278.816 586.294 278.816Z" fill="#FBC037"/>
<path d="M610.339 278.816H592.263C591.591 278.816 591.041 278.267 591.041 277.598V277.382C591.041 276.712 591.591 276.164 592.263 276.164H608.728C609.52 276.841 610.099 277.764 610.339 278.816Z" fill="#FBCC53"/>
<path d="M600.379 329.04H533.661C531.176 329.04 529.143 327.394 529.143 325.383V283.488C529.143 281.477 531.176 279.831 533.661 279.831H600.379C602.866 279.831 604.9 281.477 604.9 283.488V325.383C604.9 327.394 602.866 329.04 600.379 329.04Z" fill="#F3E4F4"/>
<path d="M604.9 290.694H529.143V284.349C529.143 281.863 531.176 279.83 533.661 279.83H600.379C602.866 279.83 604.9 281.863 604.9 284.349V290.694Z" fill="#B68FCE"/>
<path d="M538.708 285.263C538.708 286.444 537.75 287.401 536.569 287.401C535.388 287.401 534.43 286.444 534.43 285.263C534.43 284.081 535.388 283.123 536.569 283.123C537.75 283.123 538.708 284.081 538.708 285.263Z" fill="#7B5BB3"/>
<path d="M545.341 285.263C545.341 286.444 544.383 287.401 543.202 287.401C542.021 287.401 541.063 286.444 541.063 285.263C541.063 284.081 542.021 283.123 543.202 283.123C544.383 283.123 545.341 284.081 545.341 285.263Z" fill="#7B5BB3"/>
<path d="M552.07 285.263C552.07 286.444 551.113 287.401 549.932 287.401C548.75 287.401 547.792 286.444 547.792 285.263C547.792 284.081 548.75 283.123 549.932 283.123C551.113 283.123 552.07 284.081 552.07 285.263Z" fill="#7B5BB3"/>
<path d="M168.665 158.486H32.9756C30.2387 158.486 28 156.246 28 153.51V64.9758C28 62.2392 30.2387 60.0002 32.9756 60.0002H168.665C171.401 60.0002 173.641 62.2392 173.641 64.9758V153.51C173.641 156.246 171.401 158.486 168.665 158.486Z" fill="#F3E4F4"/>
<path d="M173.641 74.8253H28V64.9757C28 62.2395 30.2387 60.0001 32.9756 60.0001H168.665C171.401 60.0001 173.641 62.2395 173.641 64.9757V74.8253Z" fill="#CDAADA"/>
<path d="M37.1381 67.4129C37.1381 68.5366 36.227 69.4475 35.1033 69.4475C33.9797 69.4475 33.0687 68.5366 33.0687 67.4129C33.0687 66.2893 33.9797 65.3783 35.1033 65.3783C36.227 65.3783 37.1381 66.2893 37.1381 67.4129Z" fill="#B68FCE"/>
<path d="M44.1346 67.4129C44.1346 68.5366 43.2237 69.4475 42.0999 69.4475C40.9762 69.4475 40.0651 68.5366 40.0651 67.4129C40.0651 66.2893 40.9762 65.3783 42.0999 65.3783C43.2237 65.3783 44.1346 66.2893 44.1346 67.4129Z" fill="#B68FCE"/>
<path d="M51.3452 67.4129C51.3452 68.5366 50.4342 69.4475 49.3105 69.4475C48.1869 69.4475 47.2759 68.5366 47.2759 67.4129C47.2759 66.2893 48.1869 65.3783 49.3105 65.3783C50.4342 65.3783 51.3452 66.2893 51.3452 67.4129Z" fill="#B68FCE"/>
<path d="M33.3269 87.1899L37.5392 85.0537V86.2275L34.5161 87.7003L37.5392 89.2154V90.3963L33.3269 88.2277V87.1899Z" fill="#B68FCE"/>
<path d="M38.5925 90.7905L41.1365 83.8906H42.2287L39.6923 90.7905H38.5925Z" fill="#B68FCE"/>
<path d="M47.4924 88.2592L43.2806 90.3963V89.2137L46.3037 87.741L43.2806 86.2259V85.0537L47.4924 87.221V88.2592Z" fill="#B68FCE"/>
<path d="M140.992 88.7173H52.0717C51.5323 88.7173 51.0907 88.2757 51.0907 87.7363V87.7135C51.0907 87.1736 51.5323 86.732 52.0717 86.732H140.992C141.532 86.732 141.974 87.1736 141.974 87.7135V87.7363C141.974 88.2757 141.532 88.7173 140.992 88.7173Z" fill="#CDAADA"/>
<path d="M134.085 95.4642H80.843C80.3032 95.4642 79.862 95.0226 79.862 94.4832V94.4608C79.862 93.921 80.3032 93.4789 80.843 93.4789H134.085C134.624 93.4789 135.066 93.921 135.066 94.4608V94.4832C135.066 95.0226 134.624 95.4642 134.085 95.4642Z" fill="#82D3AE"/>
<path d="M167.845 88.7173H145.31C144.771 88.7173 144.329 88.2757 144.329 87.7363V87.7135C144.329 87.1736 144.771 86.732 145.31 86.732H167.845C168.385 86.732 168.826 87.1736 168.826 87.7135V87.7363C168.826 88.2757 168.385 88.7173 167.845 88.7173Z" fill="white"/>
<path d="M100.334 102.584H34.3084C33.7686 102.584 33.3269 102.143 33.3269 101.603V101.58C33.3269 101.041 33.7686 100.599 34.3084 100.599H100.334C100.874 100.599 101.315 101.041 101.315 101.58V101.603C101.315 102.143 100.874 102.584 100.334 102.584Z" fill="#CDAADA"/>
<path d="M167.845 102.584H141.437C140.898 102.584 140.456 102.143 140.456 101.603V101.58C140.456 101.041 140.898 100.599 141.437 100.599H167.845C168.385 100.599 168.826 101.041 168.826 101.58V101.603C168.826 102.143 168.385 102.584 167.845 102.584Z" fill="white"/>
<path d="M137.351 102.584H104.813C104.273 102.584 103.832 102.143 103.832 101.603V101.58C103.832 101.041 104.273 100.599 104.813 100.599H137.351C137.891 100.599 138.332 101.041 138.332 101.58V101.603C138.332 102.143 137.891 102.584 137.351 102.584Z" fill="#82D3AE"/>
<path d="M60.3186 128.428H33.7969C33.2576 128.428 32.8159 127.987 32.8159 127.447V127.425C32.8159 126.885 33.2576 126.443 33.7969 126.443H60.3186C60.858 126.443 61.2996 126.885 61.2996 127.425V127.447C61.2996 127.987 60.858 128.428 60.3186 128.428Z" fill="#CDAADA"/>
<path d="M167.334 128.428H118.61C118.07 128.428 117.629 127.987 117.629 127.447V127.425C117.629 126.885 118.07 126.443 118.61 126.443H167.334C167.874 126.443 168.315 126.885 168.315 127.425V127.447C168.315 127.987 167.874 128.428 167.334 128.428Z" fill="white"/>
<path d="M113.863 128.428H64.7083C64.1685 128.428 63.7273 127.987 63.7273 127.447V127.425C63.7273 126.885 64.1685 126.443 64.7083 126.443H113.863C114.403 126.443 114.844 126.885 114.844 127.425V127.447C114.844 127.987 114.403 128.428 113.863 128.428Z" fill="#82D3AE"/>
<path d="M75.9533 137.995H33.7954C33.2558 137.995 32.8139 137.554 32.8139 137.014V136.992C32.8139 136.452 33.2558 136.011 33.7954 136.011H75.9533C76.4931 136.011 76.9347 136.452 76.9347 136.992V137.014C76.9347 137.554 76.4931 137.995 75.9533 137.995Z" fill="#CDAADA"/>
<path d="M167.332 137.995H125.249C124.709 137.995 124.268 137.554 124.268 137.014V136.992C124.268 136.452 124.709 136.011 125.249 136.011H167.332C167.872 136.011 168.313 136.452 168.313 136.992V137.014C168.313 137.554 167.872 137.995 167.332 137.995Z" fill="white"/>
<path d="M120.574 137.995H81.2714C80.7319 137.995 80.2899 137.554 80.2899 137.014V136.992C80.2899 136.452 80.7319 136.011 81.2714 136.011H120.574C121.113 136.011 121.555 136.452 121.555 136.992V137.014C121.555 137.554 121.113 137.995 120.574 137.995Z" fill="#82D3AE"/>
<path d="M167.845 119.214H130.461C129.921 119.214 129.48 118.773 129.48 118.233V118.211C129.48 117.671 129.921 117.23 130.461 117.23H167.845C168.385 117.23 168.826 117.671 168.826 118.211V118.233C168.826 118.773 168.385 119.214 167.845 119.214Z" fill="white"/>
<path d="M126.213 119.214H93.6754C93.1359 119.214 92.6943 118.773 92.6943 118.233V118.211C92.6943 117.671 93.1359 117.23 93.6754 117.23H126.213C126.753 117.23 127.195 117.671 127.195 118.211V118.233C127.195 118.773 126.753 119.214 126.213 119.214Z" fill="#82D3AE"/>
<path d="M83.5211 111.43H34.3084C33.7686 111.43 33.3269 110.989 33.3269 110.449V110.426C33.3269 109.887 33.7686 109.445 34.3084 109.445H83.5211C84.0605 109.445 84.5021 109.887 84.5021 110.426V110.449C84.5021 110.989 84.0605 111.43 83.5211 111.43Z" fill="#CDAADA"/>
<path d="M137.351 111.43H87.7678C87.2279 111.43 86.7867 110.989 86.7867 110.449V110.426C86.7867 109.887 87.2279 109.445 87.7678 109.445H137.351C137.89 109.445 138.332 109.887 138.332 110.426V110.449C138.332 110.989 137.89 111.43 137.351 111.43Z" fill="#82D3AE"/>
<path d="M167.845 95.4642H138.171C137.631 95.4642 137.19 95.0226 137.19 94.4832V94.4604C137.19 93.9209 137.631 93.4789 138.171 93.4789H167.845C168.385 93.4789 168.826 93.9209 168.826 94.4604V94.4832C168.826 95.0226 168.385 95.4642 167.845 95.4642Z" fill="white"/>
<path d="M173.641 112.908H164.21C162.607 112.908 161.308 111.608 161.308 110.005V102.584H167.845C168.385 102.584 168.826 102.143 168.826 101.603V101.58C168.826 101.041 168.385 100.599 167.845 100.599H161.308V95.4642H167.845C168.385 95.4642 168.826 95.0226 168.826 94.4832V94.4604C168.826 93.9209 168.385 93.4789 167.845 93.4789H161.308V88.7173H167.845C168.385 88.7173 168.826 88.2757 168.826 87.7362V87.7134C168.826 87.1736 168.385 86.732 167.845 86.732H161.308V81.8592C161.308 80.2563 162.607 78.9568 164.21 78.9568H173.641V112.908Z" fill="#E1C6E7"/>
<path d="M167.845 88.7173H161.308V86.732H167.845C168.385 86.732 168.826 87.1736 168.826 87.7135V87.7363C168.826 88.2757 168.385 88.7173 167.845 88.7173Z" fill="#EAD5ED"/>
<path d="M167.845 102.584H161.308V100.599H167.845C168.385 100.599 168.826 101.041 168.826 101.58V101.603C168.826 102.143 168.385 102.584 167.845 102.584Z" fill="#EAD5ED"/>
<path d="M167.845 95.4642H161.308V93.4789H167.845C168.385 93.4789 168.826 93.9209 168.826 94.4604V94.4832C168.826 95.0226 168.385 95.4642 167.845 95.4642Z" fill="#EAD5ED"/>
<path d="M206.076 109.445H167.395C165.954 109.445 164.775 108.517 164.775 107.383V83.7591C164.775 82.6251 165.954 81.6968 167.395 81.6968H206.076C207.517 81.6968 208.696 82.6251 208.696 83.7591V107.383C208.696 108.517 207.517 109.445 206.076 109.445Z" fill="#FDE9AA"/>
<path d="M208.696 87.995H164.775V84.3164C164.775 82.8755 165.954 81.6967 167.395 81.6967H206.076C207.517 81.6967 208.696 82.8755 208.696 84.3164V87.995Z" fill="#FCD66A"/>
<path d="M170.321 84.8459C170.321 85.5305 169.766 86.0861 169.081 86.0861C168.396 86.0861 167.841 85.5305 167.841 84.8459C167.841 84.1609 168.396 83.6057 169.081 83.6057C169.766 83.6057 170.321 84.1609 170.321 84.8459Z" fill="#FABE2C"/>
<path d="M174.166 84.8459C174.166 85.5305 173.611 86.0861 172.927 86.0861C172.242 86.0861 171.687 85.5305 171.687 84.8459C171.687 84.1609 172.242 83.6057 172.927 83.6057C173.611 83.6057 174.166 84.1609 174.166 84.8459Z" fill="#FABE2C"/>
<path d="M178.068 84.846C178.068 85.5306 177.513 86.0862 176.828 86.0862C176.143 86.0862 175.588 85.5306 175.588 84.846C175.588 84.161 176.143 83.6058 176.828 83.6058C177.513 83.6058 178.068 84.161 178.068 84.846Z" fill="#FABE2C"/>
<path d="M169.094 93.479H171.025V96.9624H174.618V93.479H176.549V102.41H174.618V98.5454H171.025V102.41H169.094V93.479Z" fill="#FABE2C"/>
<path d="M180.599 95.0617H177.886V93.479H185.235V95.0617H182.532V102.41H180.599V95.0617Z" fill="#FABE2C"/>
<path d="M193.985 99.06C193.985 97.5362 194.011 95.8283 194.048 94.8191H193.987C193.567 96.6402 192.674 99.616 191.818 102.41H190.173C189.522 99.9676 188.598 96.5772 188.207 94.7934H188.147C188.223 95.842 188.26 97.6792 188.26 99.2113V102.41H186.5V93.479H189.375C190.071 95.8126 190.851 98.7395 191.119 100.071H191.134C191.353 98.8979 192.333 95.767 193.079 93.479H195.848V102.41H193.985V99.06Z" fill="#FABE2C"/>
<path d="M197.996 93.479H199.928V100.827H204.377L204.155 102.41H197.996V93.479Z" fill="#FABE2C"/>
<path d="M193.882 539.809C193.813 539.809 193.744 539.801 193.676 539.784C193.22 539.671 192.944 539.21 193.057 538.754L238.178 357.975C238.273 357.597 238.612 357.331 239.002 357.331H341.919C342.309 357.331 342.648 357.597 342.742 357.975L387.911 538.754C388.026 539.209 387.749 539.67 387.293 539.784C386.839 539.898 383.905 539.621 383.791 539.166L327.707 359.03H251.369L196.698 539.166C196.602 539.551 194.263 539.809 193.882 539.809Z" fill="#5E43A4"/>
<path fill-rule="evenodd" clip-rule="evenodd" d="M359.806 372.482H224.293C219.063 372.482 214.824 368.243 214.824 363.014V353.349C214.824 348.119 219.063 343.88 224.293 343.88H359.806C365.036 343.88 369.275 348.12 369.275 353.349V363.013C369.275 368.243 365.036 372.482 359.806 372.482Z" fill="#7B5BB3"/>
<path d="M357.891 372.482H235.919C245.138 371.049 252.845 368.697 259.538 365.916H336.755C343.983 369.494 350.66 372.017 355.118 372.017C355.349 372.017 355.575 372.01 355.795 371.996C357.161 371.91 358.461 371.878 359.693 371.878C360.311 371.878 360.912 371.886 361.495 371.9C360.363 372.277 359.151 372.482 357.891 372.482ZM222.073 371.706C218.065 370.14 215.168 366.364 214.863 361.876C215.103 362.16 215.358 362.432 215.625 362.692C217.561 366.526 220.135 369.758 222.073 371.706Z" fill="#704EAC"/>
<path fill-rule="evenodd" clip-rule="evenodd" d="M376.139 359.636C374.83 342.806 364.753 323.491 350.008 308.699C337.577 296.229 264.918 301.472 255.955 305.954C244.278 311.792 228.026 329.102 216.648 342.212C205.271 355.32 222.908 373.805 224.709 373.691C261.027 371.387 276.728 355.729 292.911 347.249C296.747 345.239 300.956 344.138 304.541 346.567C316.992 355.007 344.558 372.704 355.795 371.996C359.058 371.791 361.939 371.895 364.431 372C373.19 372.368 377.158 372.737 376.139 359.636Z" fill="#8920EC"/>
<mask id="mask0_358_1235" style="mask-type:luminance" maskUnits="userSpaceOnUse" x="212" y="300" width="165" height="74">
<path d="M376.139 359.636C374.83 342.806 364.753 323.491 350.008 308.699C337.577 296.229 264.918 301.472 255.955 305.954C244.278 311.792 228.026 329.102 216.648 342.212C205.271 355.32 222.908 373.805 224.709 373.691C261.027 371.387 276.728 355.729 292.911 347.249C296.747 345.239 300.956 344.138 304.541 346.567C316.992 355.007 344.558 372.704 355.795 371.996C359.058 371.791 361.939 371.895 364.431 372C373.19 372.368 377.158 372.737 376.139 359.636Z" fill="white"/>
</mask>
<g mask="url(#mask0_358_1235)">
<path fill-rule="evenodd" clip-rule="evenodd" d="M247.333 382.617L253.578 361.799C253.578 361.799 283.446 331.442 296.344 331.442C309.242 331.442 332.172 349.37 348.816 353.559C365.458 357.75 385.137 383.918 386.004 382.617C386.872 381.315 247.333 382.617 247.333 382.617Z" fill="#44256A"/>
</g>
<path fill-rule="evenodd" clip-rule="evenodd" d="M295.097 470.562L285.018 494.275L263.922 486.085C263.922 486.085 275.295 469.289 281.006 466.487C286.718 463.686 295.097 470.562 295.097 470.562Z" fill="#F89DA7"/>
<path fill-rule="evenodd" clip-rule="evenodd" d="M255.388 485.303C250.011 489.14 244.258 503.26 243.522 508.431C242.5 515.616 240.528 518.593 253.879 532.063C267.547 545.852 271.071 533.075 273.949 523.472C273.949 523.472 258.154 490.757 262.017 485.397C262.312 484.989 266.09 480.431 266.414 480.046C263.879 480.745 260.388 481.736 255.388 485.303Z" fill="#100F0D"/>
<path fill-rule="evenodd" clip-rule="evenodd" d="M266.682 477.119C263.604 478.464 261.002 480.702 259.037 483.427C255.174 488.786 248.184 499.065 247.448 504.235C246.426 511.42 244.454 514.397 257.805 527.866C271.473 541.656 271.949 529.884 274.827 520.281C277.705 510.677 290.73 494.958 290.244 489.821C289.534 482.331 280.777 470.965 266.682 477.119Z" fill="#8920EC"/>
<path d="M272.494 507.042C272.316 507.042 272.151 506.929 272.092 506.751C269.994 500.465 263.486 500.207 263.21 500.2C262.976 500.193 262.791 499.998 262.797 499.764C262.803 499.529 262.98 499.362 263.234 499.35C263.306 499.353 270.609 499.624 272.896 506.484C272.971 506.705 272.851 506.946 272.628 507.02L272.494 507.042Z" fill="white"/>
<path d="M276.002 501.758C275.824 501.758 275.658 501.646 275.599 501.468C273.503 495.181 266.994 494.923 266.718 494.916C266.484 494.909 266.298 494.713 266.305 494.479C266.311 494.245 266.502 494.079 266.741 494.066C266.814 494.069 274.117 494.339 276.404 501.199C276.479 501.422 276.359 501.662 276.136 501.737L276.002 501.758Z" fill="white"/>
<path d="M279.509 496.473C279.332 496.473 279.165 496.361 279.107 496.183C277.01 489.897 270.502 489.639 270.225 489.631C269.991 489.625 269.806 489.429 269.813 489.195C269.82 488.961 270.037 488.803 270.248 488.782C270.322 488.785 277.625 489.055 279.913 495.915C279.986 496.136 279.865 496.377 279.644 496.451L279.509 496.473Z" fill="white"/>
<path fill-rule="evenodd" clip-rule="evenodd" d="M277.999 468.579C277.873 466.319 295.886 415.212 319.932 380.058C343.977 344.903 368.224 329.56 376.919 354.449C385.613 379.34 359.462 413.066 346.229 429.734C325.804 455.46 292.71 477.017 292.71 477.017L277.999 468.579Z" fill="#8920EC"/>
<mask id="mask1_358_1235" style="mask-type:luminance" maskUnits="userSpaceOnUse" x="277" y="342" width="102" height="136">
<path d="M277.999 468.58C277.873 466.319 295.886 415.212 319.932 380.058C343.977 344.903 368.224 329.56 376.919 354.449C385.613 379.34 359.462 413.066 346.229 429.734C325.804 455.46 292.71 477.017 292.71 477.017L277.999 468.58Z" fill="white"/>
</mask>
<g mask="url(#mask1_358_1235)">
<path fill-rule="evenodd" clip-rule="evenodd" d="M276.166 451.524C278.447 455.419 290.783 465.639 307.447 455.512C338.283 436.771 360.625 404.28 370.789 383.769C380.953 363.259 375.905 339.181 375.905 339.181C375.905 339.181 404.376 342.638 391.455 382.481C378.536 422.323 300.309 484.903 297.126 486.826C295.413 487.861 276.69 485.541 271.917 484.653L276.166 451.524Z" fill="#44256A"/>
</g>
<path fill-rule="evenodd" clip-rule="evenodd" d="M316.104 464.617C316.104 464.617 322.369 469.008 326.43 469.45C330.491 469.893 329.01 493.836 317.524 489.008C306.039 484.18 295.178 470.28 295.178 470.28L316.104 464.617Z" fill="#F89DA7"/>
<path fill-rule="evenodd" clip-rule="evenodd" d="M317.516 469.333C319.213 467.871 319.731 465.461 318.783 463.433C313.631 452.415 297.098 417.628 285.497 399.729C270.061 375.912 243.615 326.261 219.878 340.043C197.126 353.255 207.621 384.656 219.726 402.783C230.653 419.147 285.98 468.72 301.403 478.521C303.266 479.704 305.68 479.533 307.352 478.092L317.516 469.333Z" fill="#8920EC"/>
<path fill-rule="evenodd" clip-rule="evenodd" d="M329.299 468.847C329.299 468.847 333.971 474.49 332.559 477.428C331.146 480.366 337.524 487.444 331.135 491.325C324.747 495.205 329.022 505.082 330.203 514.267C332.326 530.783 338.068 530.286 343.809 529.787C349.55 529.289 358.569 519.459 355.516 508.635C352.463 497.811 343.435 488.413 342.793 483.827C342.153 479.241 339.84 466.59 329.299 468.847Z" fill="#100F0D"/>
<path fill-rule="evenodd" clip-rule="evenodd" d="M324.35 468.783C324.35 468.783 329.023 474.426 327.61 477.363C326.198 480.301 322.537 474.143 316.149 478.025C309.761 481.906 305.156 485.868 309.558 491.638C313.96 497.408 320.568 506.217 325.255 514.204C329.942 522.191 332.38 529.064 338.121 528.566C343.862 528.068 353.622 519.395 350.567 508.572C347.514 497.748 338.487 488.348 337.846 483.763C337.205 479.177 334.891 466.525 324.35 468.783Z" fill="#8920EC"/>
<path d="M323.559 504.488L323.462 504.478C323.234 504.424 323.092 504.195 323.145 503.967C324.767 497.009 331.927 496.074 331.999 496.066C332.226 496.035 332.442 496.203 332.471 496.436C332.499 496.669 332.333 496.881 332.1 496.908C331.829 496.942 325.457 497.791 323.973 504.16C323.927 504.357 323.752 504.488 323.559 504.488Z" fill="white"/>
<path d="M319.626 499.613L319.529 499.603C319.3 499.548 319.158 499.321 319.212 499.093C320.834 492.134 327.993 491.199 328.065 491.191C328.295 491.162 328.51 491.328 328.537 491.562C328.565 491.794 328.4 492.005 328.166 492.034C327.896 492.066 321.524 492.915 320.04 499.285C319.994 499.481 319.819 499.613 319.626 499.613Z" fill="white"/>
<path d="M315.692 494.738L315.597 494.727C315.367 494.673 315.225 494.446 315.278 494.217C316.901 487.26 324.06 486.325 324.132 486.316C324.36 486.278 324.576 486.453 324.604 486.686C324.632 486.919 324.467 487.13 324.234 487.158C323.963 487.191 317.591 488.04 316.106 494.41C316.061 494.606 315.886 494.738 315.692 494.738Z" fill="white"/>
<mask id="mask2_358_1235" style="mask-type:luminance" maskUnits="userSpaceOnUse" x="206" y="337" width="114" height="143">
<path d="M317.517 469.333C319.214 467.871 319.731 465.461 318.784 463.433C313.631 452.415 297.099 417.628 285.498 399.729C270.061 375.912 243.615 326.261 219.878 340.044C197.125 353.255 207.622 384.656 219.726 402.783C230.654 419.147 285.981 468.72 301.403 478.521C303.266 479.704 305.68 479.533 307.353 478.092L317.517 469.333Z" fill="white"/>
</mask>
<g mask="url(#mask2_358_1235)">
<path fill-rule="evenodd" clip-rule="evenodd" d="M275.349 381.652C275.349 381.652 279.287 390.786 302.23 452.514C305.896 462.379 298.346 474.584 283.023 468.377C281.538 467.776 292.084 501.107 302.758 489.77C313.432 478.434 334.504 489.462 322.41 457.412C310.317 425.363 275.349 381.652 275.349 381.652Z" fill="#44256A"/>
</g>
<path d="M221.929 243.945C221.929 243.945 202.37 300.713 202.302 305.509C202.129 317.502 211.209 317.815 219.824 316.169C228.44 314.523 250.477 253.981 250.477 253.981L221.929 243.945Z" fill="#F89DA7"/>
<mask id="mask3_358_1235" style="mask-type:luminance" maskUnits="userSpaceOnUse" x="202" y="243" width="49" height="74">
<path d="M221.93 243.946C221.93 243.946 202.37 300.713 202.302 305.509C202.129 317.502 211.209 317.815 219.824 316.169C228.44 314.523 250.477 253.981 250.477 253.981L221.93 243.946Z" fill="white"/>
</mask>
<g mask="url(#mask3_358_1235)">
<path d="M231.788 237.589C231.788 237.589 227.141 242.738 226.738 262.056C226.426 277.037 235.502 279.797 219.222 311.366C215.947 317.718 195.073 325.605 195.073 325.605C195.073 325.605 220.334 354.234 230.008 326.409C239.684 298.582 252.628 254.269 252.628 254.269L231.788 237.589Z" fill="#F0717C"/>
</g>
<path d="M378.23 245.308C378.23 245.308 379.992 305.324 378.629 309.923C375.221 321.423 366.461 319.017 358.726 314.879C350.993 310.742 347.989 246.384 347.989 246.384L378.23 245.308Z" fill="#F89DA7"/>
<mask id="mask4_358_1235" style="mask-type:luminance" maskUnits="userSpaceOnUse" x="347" y="245" width="33" height="74">
<path d="M378.23 245.308C378.23 245.308 379.992 305.324 378.629 309.923C375.221 321.423 366.461 319.017 358.726 314.879C350.993 310.742 347.989 246.384 347.989 246.384L378.23 245.308Z" fill="white"/>
</mask>
<g mask="url(#mask4_358_1235)">
<path d="M387.582 263.107V240.339L370.711 236.317L370.712 236.303L370.689 236.312L320.431 224.332C320.431 224.332 324.566 296.284 342.412 289.779C343.415 289.414 344.45 289 345.505 288.554C345.519 299.87 345.635 311.695 345.954 321.62C346.901 351.064 379.543 331.261 379.543 331.261C379.543 331.261 369.19 318.785 367.955 311.747C367.401 308.589 367.134 304.157 367.066 299.005C366.893 285.761 373.26 273.269 384.077 265.624C386.287 264.063 387.582 263.107 387.582 263.107Z" fill="#F0717C"/>
</g>
<path d="M205.81 315.938C214.319 319.171 228.247 316.283 242.726 314.67C252.763 313.552 259.666 312.551 259.791 312.534L259.792 312.533L263.348 299.52C263.348 299.52 234.49 293.553 220.377 292.353C212.364 291.671 204.864 296.525 202.773 302.973C201.178 307.883 203.382 315.014 205.81 315.938Z" fill="#F89DA7"/>
<mask id="mask5_358_1235" style="mask-type:luminance" maskUnits="userSpaceOnUse" x="202" y="292" width="62" height="26">
<path d="M205.81 315.937C214.319 319.171 228.247 316.283 242.726 314.67C252.763 313.552 259.666 312.551 259.791 312.534L259.793 312.533L263.348 299.52C263.348 299.52 234.49 293.553 220.377 292.353C212.364 291.671 204.864 296.525 202.773 302.973C201.178 307.883 203.382 315.014 205.81 315.937Z" fill="white"/>
</mask>
<g mask="url(#mask5_358_1235)">
<path d="M200.703 299.792C200.703 299.792 198.745 314.61 210.918 312.075C223.09 309.54 248.642 302.764 248.952 303.002C249.262 303.24 260.047 307.721 260.047 307.721L262.992 315.724L211.279 325.38L196.76 319.85L200.703 299.792Z" fill="#F0717C"/>
</g>
<path d="M374.891 316.499C366.186 319.161 352.48 315.354 338.139 312.785C328.199 311.002 321.38 309.546 321.255 309.519H321.254L318.57 296.299C318.57 296.299 347.76 292.26 361.922 292C369.962 291.852 377.123 297.192 378.782 303.765C380.048 308.77 377.374 315.739 374.891 316.499Z" fill="#F89DA7"/>
<mask id="mask6_358_1235" style="mask-type:luminance" maskUnits="userSpaceOnUse" x="318" y="291" width="62" height="27">
<path d="M374.891 316.499C366.186 319.161 352.48 315.354 338.139 312.785C328.199 311.002 321.38 309.546 321.255 309.519H321.254L318.57 296.299C318.57 296.299 347.76 292.26 361.922 292C369.962 291.852 377.123 297.192 378.782 303.765C380.048 308.77 377.374 315.739 374.891 316.499Z" fill="white"/>
</mask>
<g mask="url(#mask6_358_1235)">
<path d="M381.059 300.729C381.059 300.729 382.029 315.644 370.051 312.307C358.074 308.969 333.028 300.513 332.703 300.729C332.377 300.946 321.319 304.7 321.319 304.7L317.85 312.49L368.807 325.558L383.661 321.004L381.059 300.729Z" fill="#F0717C"/>
</g>
<path d="M353.87 262.84L377.528 257.478C377.528 257.478 380.098 251.972 377.528 232.151C374.96 212.331 362.847 202.975 362.847 202.975C361.229 201.749 359.702 200.826 358.26 200.169C357.677 199.595 357.034 199.073 356.324 198.623C347.492 193.017 331.251 184.111 314.631 182.159C311.698 185.6 308.046 187.931 302.727 187.931C296.388 187.931 291.948 185.067 289.318 180.458C277.951 180.345 263.089 185.963 252.807 191.744C252.807 191.744 241.803 196.47 235.081 209.047C229.2 220.049 222.506 238.093 218.834 251.333C218.442 252.745 219.177 254.221 220.535 254.772L243.729 264.172C245.151 264.749 246.776 264.116 247.426 262.726C247.813 261.899 248.283 260.872 248.813 259.689C249.626 267.149 250.402 274.99 251.079 283.007C251.97 293.575 249.005 306.495 247.855 310.987C247.616 311.925 248.118 312.886 249.021 313.232L254.469 315.319C281.149 325.536 310.307 327.385 338.064 320.622L355.294 316.424C356.341 316.169 357.009 315.14 356.815 314.08C353.198 294.22 352.253 284.364 353.813 263.573C353.831 263.329 353.851 263.083 353.87 262.84Z" fill="#FCD66A"/>
<mask id="mask7_358_1235" style="mask-type:luminance" maskUnits="userSpaceOnUse" x="218" y="180" width="161" height="145">
<path d="M353.87 262.84L377.528 257.478C377.528 257.478 380.098 251.972 377.528 232.151C374.96 212.331 362.847 202.975 362.847 202.975C361.229 201.749 359.702 200.826 358.26 200.169C357.677 199.595 357.034 199.073 356.324 198.623C347.492 193.017 331.251 184.111 314.631 182.159C311.698 185.6 308.046 187.931 302.727 187.931C296.388 187.931 291.948 185.067 289.318 180.458C277.951 180.345 263.089 185.963 252.807 191.744C252.807 191.744 241.803 196.47 235.081 209.047C229.2 220.049 222.506 238.093 218.834 251.333C218.442 252.745 219.177 254.221 220.535 254.772L243.729 264.172C245.151 264.749 246.776 264.116 247.426 262.726C247.813 261.899 248.283 260.872 248.813 259.689C249.626 267.149 250.402 274.99 251.079 283.007C251.97 293.575 249.005 306.495 247.855 310.987C247.616 311.925 248.118 312.886 249.021 313.232L254.469 315.319C281.149 325.536 310.307 327.385 338.064 320.622L355.294 316.424C356.341 316.169 357.009 315.14 356.815 314.08C353.198 294.22 352.253 284.364 353.813 263.573C353.831 263.329 353.851 263.083 353.87 262.84Z" fill="white"/>
</mask>
<g mask="url(#mask7_358_1235)">
<path d="M356.658 188.874C356.658 188.874 374.596 232.226 356.518 245.983C353.265 248.459 351.194 252.185 350.533 256.219C349.036 265.367 347.482 283.701 349.43 317.419C352.611 372.482 370.536 323.202 370.536 323.202L380.945 295.735L396.846 233.573L356.658 188.874Z" fill="#FABE2C"/>
<path d="M320.246 174.467C320.246 183.85 312 191.457 301.827 191.457C291.655 191.457 283.408 183.85 283.408 174.467C283.408 165.084 291.655 157.477 301.827 157.477C312 157.477 320.246 165.084 320.246 174.467Z" fill="#FABE2C"/>
</g>
<path d="M334.085 151.085C334.111 150.885 334.13 150.686 334.143 150.487C334.13 150.685 334.111 150.885 334.085 151.085Z" fill="#F7B8BD"/>
<path d="M324.764 159.444C324.359 159.444 323.95 159.417 323.538 159.362C323.95 159.417 324.359 159.444 324.764 159.444ZM323.498 159.357C323.492 159.356 323.486 159.355 323.48 159.354C323.486 159.355 323.492 159.356 323.498 159.357ZM323.461 159.351C323.458 159.351 323.455 159.351 323.452 159.35C323.454 159.351 323.459 159.351 323.461 159.351Z" fill="#C12F5D"/>
<path d="M226.933 257.365C226.933 257.365 229.273 238.554 250.477 219.458L248.814 259.689C248.814 259.689 247.122 264.045 245.812 264.205C244.502 264.366 245.188 264.743 226.933 257.365Z" fill="#FABE2C"/>
<path d="M357.321 317.671H239.413C237.62 317.671 236.166 316.218 236.166 314.425V310.038C236.166 309.44 236.651 308.957 237.248 308.957H359.486C360.083 308.957 360.568 309.44 360.568 310.038V314.425C360.568 316.218 359.114 317.671 357.321 317.671Z" fill="#BAB4E0"/>
<path d="M353.309 313.747H243.426C240.636 313.747 238.375 311.487 238.375 308.698V242.063C238.375 239.275 240.636 237.013 243.426 237.013H353.309C356.099 237.013 358.359 239.275 358.359 242.063V308.698C358.359 311.487 356.099 313.747 353.309 313.747Z" fill="white"/>
<mask id="mask8_358_1235" style="mask-type:luminance" maskUnits="userSpaceOnUse" x="238" y="237" width="121" height="77">
<path d="M353.309 313.747H243.426C240.636 313.747 238.375 311.487 238.375 308.698V242.063C238.375 239.275 240.636 237.013 243.426 237.013H353.309C356.099 237.013 358.359 239.275 358.359 242.063V308.698C358.359 311.487 356.099 313.747 353.309 313.747Z" fill="white"/>
</mask>
<g mask="url(#mask8_358_1235)">
<path d="M353.309 313.747H265.619C299.979 308.718 314.591 299.722 321.965 292.154C336.69 277.04 346.91 252.225 352.18 237.013H353.309C356.098 237.013 358.359 239.275 358.359 242.063V308.698C358.359 311.487 356.098 313.747 353.309 313.747Z" fill="#DFDBF1"/>
</g>
<path d="M298.367 282.13C294.639 282.13 291.616 279.109 291.616 275.38C291.616 271.652 294.639 268.63 298.367 268.63C302.095 268.63 305.117 271.652 305.117 275.38C305.117 279.109 302.095 282.13 298.367 282.13Z" fill="#DFDBF1"/>
<path d="M32.9672 537.972H186.001V319.204H32.9672V537.972Z" fill="#5E43A4"/>
<path d="M32.9672 318.687H186.001V329.761H32.9672V318.687Z" fill="#4D298C"/>
<path d="M434.941 318.826L474.374 533.002C474.85 535.587 472.865 537.972 470.236 537.972C468.32 537.972 466.646 536.677 466.163 534.823L410.02 318.826H434.941Z" fill="#5E43A4"/>
<path d="M434.941 318.826H410.02L412.918 329.761H437.015L434.941 318.826Z" fill="#4D298C"/>
<path d="M32.9672 324.563H476.613V313.846H32.9672V324.563Z" fill="#5E43A4"/>
<path d="M39.3671 384.029H179.6V338.74H39.3671V384.029Z" fill="#8920EC"/>
<path d="M156 384.029H39.3671V340.717C42.0521 344.484 45.1511 347.953 48.4471 351.037C57.6704 359.667 68.9289 364.53 80.7524 368.571C104.84 376.802 130.662 381.195 156 384.029Z" fill="#44256A"/>
<path d="M39.3671 519.625H179.6V474.336H39.3671V519.625Z" fill="#8920EC"/>
<path d="M39.3671 451.233H179.6V405.942H39.3671V451.233Z" fill="#8920EC"/>
<path d="M156 451.233H39.3671V407.92C42.0521 411.686 45.1511 415.156 48.4471 418.241C57.6704 426.87 68.9289 431.733 80.7524 435.774C104.84 444.005 130.662 448.399 156 451.233Z" fill="#44256A"/>
<path d="M156 519.625H39.3671V476.313C42.0521 480.079 45.1511 483.549 48.4471 486.633C57.6704 495.263 68.9289 500.126 80.7524 504.166C104.84 512.398 130.662 516.791 156 519.625Z" fill="#44256A"/>
<path d="M121.864 364.523H97.1048V358.247H121.864V364.523Z" fill="#4D298C"/>
<path d="M121.864 431.726H97.1048V425.45H121.864V431.726Z" fill="#4D298C"/>
<path d="M121.864 500.118H97.1048V493.843H121.864V500.118Z" fill="#4D298C"/>
<path d="M107.946 273.934L87.0687 313.76H110.403L107.946 273.934Z" fill="#FCD66A"/>
<path d="M110.403 313.76H87.0687L97.1785 294.474C99.0738 300.666 104.06 305.084 110.035 307.799L110.403 313.76Z" fill="#FBC53C"/>
<path d="M107.946 273.934H73.969L51.0438 313.76H87.069L107.946 273.934Z" fill="#FDE9AA"/>
<path d="M91.573 298.914C87.6815 301.468 83.4113 303.449 79.0105 304.949C74.3286 306.544 69.7229 307.203 64.7859 307.22C61.5528 307.231 58.1226 307.525 54.8343 307.175L51.0438 313.76H87.069L97.1789 294.474C95.444 295.827 93.4131 297.707 91.573 298.914Z" fill="#FCD66A"/>
<path d="M82.4617 286.01L79.1911 291.975H71.8143L75.1096 286.01H82.4617Z" fill="white"/>
<path d="M92.5354 286.01L89.7317 291.975H81.8533L85.1211 286.01H92.5354Z" fill="white"/>
<path d="M88.4677 294.665L85.1696 301.684H76.5325L80.3802 294.665H88.4677Z" fill="white"/>
<path d="M77.7179 294.665L73.8687 301.684H66.4545L70.3304 294.665H77.7179Z" fill="white"/>
<path d="M71.0452 279.013H105.284L107.946 273.934H73.969L71.0452 279.013Z" fill="#FABE2C"/>
<path d="M77.1385 278.028H78.9398C78.9398 278.028 79.0217 271.661 80.5412 272.874C80.7185 273.015 80.9134 273.576 80.8696 273.934H82.4618C82.4618 273.934 82.3855 272.628 81.7908 271.996C80.7163 270.856 77.4564 269.574 77.1385 278.028Z" fill="#FDE9AA"/>
<path d="M86.8343 278.028H88.6356C88.6356 278.028 88.7175 271.661 90.2363 272.874C90.4136 273.015 90.6092 273.576 90.5654 273.934H92.1576C92.1576 273.934 92.0813 272.628 91.4866 271.996C90.4114 270.856 87.1529 269.574 86.8343 278.028Z" fill="#FDE9AA"/>
<path d="M98.0037 278.028H99.805C99.805 278.028 99.887 271.661 101.406 272.874C101.584 273.015 101.779 273.576 101.736 273.934H103.328C103.328 273.934 103.251 272.628 102.656 271.996C101.582 270.856 98.3223 269.574 98.0037 278.028Z" fill="#FDE9AA"/>
<path d="M170.31 298.301C166.941 298.301 164.21 295.57 164.21 292.201C164.21 288.831 166.941 286.1 170.31 286.1C173.679 286.1 176.41 288.831 176.41 292.201C176.41 295.57 173.679 298.301 170.31 298.301ZM171.842 281.37C166.301 281.37 161.808 286.219 161.808 292.201C161.808 298.182 166.301 303.032 171.842 303.032C177.384 303.032 181.877 298.182 181.877 292.201C181.877 286.219 177.384 281.37 171.842 281.37Z" fill="#F790C3"/>
<path d="M170.31 298.301C169.756 298.301 169.218 298.227 168.707 298.089V298.088C169.218 298.227 169.756 298.301 170.31 298.301V298.301Z" fill="#F684C1"/>
<path d="M170.31 302.906C169.76 302.815 169.224 302.676 168.707 302.493V298.089C169.218 298.227 169.756 298.301 170.31 298.301V302.906Z" fill="#F363AD"/>
<path d="M168.707 286.313V281.909C169.224 281.726 169.76 281.587 170.31 281.496V286.101C169.756 286.101 169.218 286.175 168.707 286.313Z" fill="#F363AD"/>
<path d="M152.85 285.438L151.772 284.816C150.894 284.308 150.591 283.175 151.098 282.297L168.847 251.554C169.354 250.676 170.488 250.372 171.366 250.879L172.443 251.502C173.321 252.008 173.625 253.142 173.118 254.02L155.369 284.763C154.861 285.641 153.728 285.945 152.85 285.438Z" fill="#FBC3D6"/>
<path d="M160.213 276.372H154.518L156.002 273.802H161.696L160.213 276.372Z" fill="#F9ACCD"/>
<path d="M160.937 313.846H146.713C142.44 313.846 138.943 310.349 138.943 306.075V276.372H168.707V306.075C168.707 310.349 165.211 313.846 160.937 313.846Z" fill="#FBC3D6"/>
<path d="M161.366 313.846H160.937C161.122 313.846 161.306 313.839 161.488 313.826C161.447 313.833 161.407 313.839 161.366 313.846ZM146.713 313.846H146.26C146.209 313.838 146.158 313.831 146.108 313.822C146.308 313.838 146.509 313.846 146.713 313.846Z" fill="#FABEDA"/>
<path d="M157.997 314.077H149.719C148.415 314.077 147.268 313.997 146.26 313.846H146.713H160.937H161.366C160.414 313.993 159.304 314.077 157.997 314.077Z" fill="#CE79C3"/>
<path d="M143.305 313.054C141.395 312.238 140.319 310.982 139.714 309.441C140.474 311.007 141.744 312.285 143.305 313.054Z" fill="#FABEDA"/>
<path d="M160.937 313.846H146.713C146.51 313.846 146.308 313.838 146.108 313.822C145.016 313.648 144.089 313.388 143.305 313.054C141.744 312.285 140.473 311.007 139.714 309.441C139 307.621 138.943 305.405 138.943 303.056V294.399C141.156 297.57 143.929 300.372 146.834 302.559C152.36 306.718 160.702 308.773 167.375 310.347C166.416 311.654 165.175 313.225 161.489 313.826C161.306 313.839 161.122 313.846 160.937 313.846Z" fill="#F9ACCD"/>
<path d="M138.943 283.439H168.707V276.372H138.943V283.439Z" fill="#F790C3"/>
<path d="M163.885 283.439H138.943V276.372C142.59 278.98 147.242 279.796 151.472 280.971C155.562 282.109 159.718 282.798 163.885 283.439Z" fill="#F363AD"/>
<path d="M542.276 484.716C542.276 484.716 538.091 415.102 517.065 422.218C496.038 429.333 536.021 484.939 542.276 484.716Z" fill="#82D3AE"/>
<path d="M516.766 422.625C518.022 426.792 519.346 430.938 520.738 435.062C522.129 439.186 523.587 443.287 525.112 447.363C526.636 451.44 528.227 455.491 529.883 459.516C531.54 463.541 533.261 467.539 535.047 471.507C536.832 475.477 538.683 479.416 540.597 483.325C540.836 483.813 541.077 484.302 541.317 484.79C541.482 485.122 542.014 484.889 541.847 484.554C539.918 480.652 538.051 476.721 536.249 472.758C534.447 468.798 532.71 464.807 531.038 460.789C529.365 456.771 527.758 452.725 526.217 448.655C524.676 444.585 523.2 440.49 521.792 436.372C520.385 432.254 519.043 428.112 517.77 423.951C517.611 423.431 517.452 422.91 517.296 422.389C517.187 422.033 516.658 422.271 516.766 422.625Z" fill="#3DABA0"/>
<path d="M530.374 458.674C532.114 453.632 533.279 448.392 533.823 443.086C533.978 441.585 534.082 440.079 534.138 438.571C534.152 438.2 533.577 438.129 533.562 438.501C533.365 443.798 532.564 449.074 531.16 454.187C530.765 455.625 530.322 457.05 529.836 458.459C529.714 458.811 530.252 459.028 530.374 458.674Z" fill="#3DABA0"/>
<path d="M524.13 444.383C521.266 440.792 518.084 437.457 514.63 434.428C513.66 433.577 512.668 432.751 511.656 431.95C511.364 431.717 511.02 432.184 511.312 432.416C514.874 435.239 518.184 438.373 521.192 441.782C522.045 442.75 522.875 443.739 523.679 444.747C523.912 445.039 524.364 444.677 524.13 444.383Z" fill="#3DABA0"/>
<path d="M551.292 454.263C551.292 454.263 515.032 399.228 538.793 393.977C562.556 388.725 551.292 454.263 551.292 454.263Z" fill="#82D3AE"/>
<path d="M538.402 394.644C540.552 402.275 542.508 409.96 544.263 417.691C546.011 425.384 547.561 433.12 548.913 440.891C549.675 445.27 550.373 449.659 551.008 454.059C551.062 454.428 551.635 454.342 551.582 453.973C550.448 446.125 549.115 438.308 547.58 430.53C546.053 422.792 544.328 415.092 542.408 407.442C541.325 403.131 540.181 398.836 538.976 394.557C538.876 394.204 538.301 394.286 538.402 394.644Z" fill="#3DABA0"/>
<path d="M545.053 416.641C545.819 411.56 546.584 406.479 547.35 401.398C547.568 399.947 547.787 398.495 548.005 397.043C548.061 396.673 547.486 396.606 547.43 396.974C546.665 402.055 545.899 407.136 545.133 412.216C544.914 413.668 544.696 415.12 544.476 416.571C544.421 416.941 544.997 417.01 545.053 416.641Z" fill="#3DABA0"/>
<path d="M547.378 429.423C543.625 425.598 539.872 421.774 536.119 417.95C535.067 416.876 534.014 415.804 532.961 414.73C532.702 414.466 532.247 414.827 532.509 415.094C536.262 418.919 540.015 422.743 543.767 426.568C544.82 427.641 545.873 428.714 546.926 429.787C547.185 430.05 547.64 429.69 547.378 429.423Z" fill="#3DABA0"/>
<path d="M546.534 473.599C546.534 473.599 575.549 436.395 588.166 450.225C600.789 464.057 553.673 475.662 546.534 473.599Z" fill="#82D3AE"/>
<path d="M547.28 473.774C552.506 470.644 557.767 467.571 563.06 464.555C568.354 461.54 573.677 458.581 579.039 455.681C582.041 454.054 585.057 452.446 588.081 450.856C588.406 450.683 588.173 450.152 587.841 450.326C582.451 453.161 577.089 456.055 571.76 459.006C566.431 461.958 561.133 464.966 555.869 468.033C552.916 469.752 549.974 471.49 547.044 473.244C546.729 473.433 546.959 473.966 547.28 473.774Z" fill="#3DABA0"/>
<path d="M558.489 466.957C559.581 464.12 560.672 461.283 561.764 458.447C561.897 458.099 561.36 457.883 561.225 458.232C560.133 461.069 559.042 463.905 557.95 466.742C557.816 467.09 558.355 467.305 558.489 466.957Z" fill="#3DABA0"/>
<path d="M576.044 457.145C577.019 453.937 578.432 450.871 580.24 448.045C580.438 447.733 579.972 447.386 579.774 447.701C577.937 450.567 576.496 453.675 575.507 456.93C575.394 457.285 575.931 457.503 576.044 457.145Z" fill="#3DABA0"/>
<path d="M563.687 464.246C569.354 463.602 575.02 462.957 580.685 462.312C582.296 462.129 583.899 461.946 585.51 461.763C585.884 461.72 585.792 461.148 585.425 461.189C579.76 461.835 574.095 462.479 568.425 463.124C566.817 463.308 565.21 463.49 563.601 463.673C563.23 463.715 563.316 464.288 563.687 464.246Z" fill="#3DABA0"/>
<path d="M532.7 499.071C536.657 494.038 540.076 488.589 542.902 482.845C545.728 477.101 547.955 471.064 549.537 464.861C550.424 461.383 551.108 457.856 551.58 454.298C551.629 453.927 551.053 453.858 551.004 454.228C550.164 460.558 548.653 466.791 546.512 472.806C544.382 478.789 541.638 484.556 538.322 489.972C536.466 493.006 534.432 495.931 532.233 498.727C532.002 499.021 532.469 499.364 532.7 499.071Z" fill="#3DABA0"/>
<path d="M462.647 538.295C462.019 531.368 464.899 524.211 470.131 519.688C475.364 515.165 482.812 513.398 489.492 515.094C489.007 508.758 493.14 502.35 499.075 500.236C505.009 498.124 512.209 500.495 515.768 505.736C514.157 501.22 515.988 495.9 519.561 492.735C523.133 489.569 528.133 488.385 532.873 488.76C538.488 489.203 544.022 491.827 547.481 496.314C550.941 500.802 552.066 507.186 549.809 512.395C553.44 505.982 561.517 502.506 568.613 504.302C575.712 506.099 581.208 513.012 581.413 520.397C581.589 526.933 578.079 533 573.96 538.052L462.647 538.295Z" fill="#82D3AE"/>
<path d="M462.647 538.295C462.608 537.861 462.582 537.426 462.57 536.991C462.482 533.835 463.103 530.668 464.327 527.759V527.76C462.935 531.069 462.322 534.712 462.647 538.295ZM471.697 518.462V518.46C475.372 515.858 479.869 514.458 484.358 514.458C486.087 514.458 487.813 514.666 489.491 515.092C489.491 515.092 489.491 515.093 489.491 515.094C487.813 514.668 486.087 514.46 484.358 514.46C479.869 514.46 475.372 515.86 471.697 518.462Z" fill="#DAF2EE"/>
<path d="M464.327 527.76V527.759C465.626 524.668 467.604 521.869 470.131 519.686C470.633 519.251 471.156 518.843 471.697 518.46V518.462C471.156 518.845 470.633 519.254 470.131 519.688C467.605 521.872 465.626 524.67 464.327 527.76Z" fill="#8920EC"/>
<path d="M498.987 500.267C498.991 500.267 498.994 500.265 498.998 500.264C498.994 500.265 498.99 500.267 498.987 500.267Z" fill="#DAF2EE"/>
<path d="M462.647 538.295C462.322 534.712 462.935 531.069 464.327 527.76C465.626 524.67 467.605 521.872 470.131 519.688C470.633 519.254 471.156 518.845 471.697 518.462C475.372 515.86 479.869 514.46 484.358 514.46C486.087 514.46 487.813 514.668 489.491 515.094C489.491 515.093 489.491 515.092 489.491 515.092L489.497 515.087C489.469 514.699 489.45 514.311 489.455 513.923C489.458 513.61 489.481 513.297 489.506 512.985C489.512 512.911 489.512 512.838 489.518 512.766C489.554 512.395 489.606 512.025 489.672 511.659L489.678 511.62C489.741 511.271 489.82 510.925 489.907 510.581L489.928 510.49C491.129 505.932 494.512 501.928 498.916 500.294C498.917 500.294 498.917 500.293 498.918 500.293C498.941 500.284 498.964 500.276 498.987 500.267C498.99 500.267 498.994 500.265 498.998 500.264C499.004 500.262 499.008 500.26 499.014 500.258C499.02 500.256 499.025 500.254 499.03 500.252C499.035 500.25 499.039 500.249 499.044 500.247C499.054 500.243 499.064 500.24 499.074 500.236C500.537 499.715 502.077 499.467 503.62 499.467C508.338 499.467 513.086 501.787 515.768 505.736C515.365 504.608 515.177 503.428 515.178 502.245C515.181 498.695 516.88 495.109 519.56 492.735C522.711 489.944 526.972 488.693 531.185 488.693C531.749 488.693 532.313 488.715 532.872 488.76C538.487 489.203 544.022 491.827 547.481 496.314C547.487 496.322 547.494 496.33 547.499 496.338C549.073 498.388 550.154 500.832 550.657 503.377C547.645 500.911 543.912 499.348 539.737 498.887C538.945 498.8 538.147 498.756 537.351 498.756C534.648 498.756 531.947 499.259 529.437 500.272C525.451 501.879 522.927 504.624 519.891 507.533C518.097 509.253 516.689 509.454 514.303 509.662C511.615 509.898 509.142 510.423 506.667 511.517C503.882 512.746 499.887 513.447 496.376 514.507C493.455 515.388 491.537 518.243 491.889 521.274C492.595 527.346 490.686 537.005 482.295 538.237L479.757 538.254V538.257L462.647 538.295Z" fill="#71CEAC"/>
<path d="M476.443 507.911C482.322 510.04 486.736 515.882 487.175 522.163C487.659 529.106 483.431 536.062 477.168 539.096L408.597 538.274C405.449 534.803 404.239 529.679 405.503 525.166C406.766 520.654 410.46 516.904 414.954 515.572C419.446 514.241 424.587 515.374 428.106 518.468C427.534 513.678 430.154 508.747 434.277 506.243C438.401 503.74 443.783 503.628 448.167 505.642C452.55 507.656 455.9 511.65 457.468 516.211C460.098 509.768 467.736 505.917 474.543 507.366C475.19 507.504 475.825 507.687 476.443 507.911Z" fill="#82D3AE"/>
<path d="M593.209 540.154L1.55874 539.095C0.973774 539.095 0.5 538.621 0.5 538.037C0.5 537.451 0.973774 536.978 1.55874 536.978L593.209 538.037C593.795 538.037 594.269 538.51 594.269 539.096C594.269 539.68 593.795 540.154 593.209 540.154Z" fill="#B68FCE"/>
<path d="M373.938 101.612H421.184C426.432 101.612 430.726 97.3185 430.726 92.07C430.726 86.8229 426.432 82.5288 421.184 82.5288H373.938C368.691 82.5288 364.396 86.8229 364.396 92.07C364.396 97.3185 368.691 101.612 373.938 101.612Z" fill="#F68C8E"/>
<path d="M372.27 100.083H419.517C424.764 100.083 429.059 95.7897 429.059 90.5412C429.059 85.2941 424.764 81 419.517 81H372.27C367.022 81 362.729 85.2941 362.729 90.5412C362.729 95.7897 367.022 100.083 372.27 100.083Z" fill="#FABABC"/>
<path d="M388.111 100.083L380.099 109.208V100.083H388.111Z" fill="#F68C8E"/>
<path d="M386.768 99.6663L380.099 107.263V99.6663H386.768Z" fill="#FABABC"/>
<path d="M411.99 90.5412C411.99 91.8593 413.058 92.9266 414.375 92.9266C415.693 92.9266 416.761 91.8593 416.761 90.5412C416.761 89.2244 415.693 88.1557 414.375 88.1557C413.058 88.1557 411.99 89.2244 411.99 90.5412Z" fill="#F68C8E"/>
<path d="M399.9 90.5412C399.9 91.8593 400.968 92.9266 402.286 92.9266C403.603 92.9266 404.671 91.8593 404.671 90.5412C404.671 89.2244 403.603 88.1557 402.286 88.1557C400.968 88.1557 399.9 89.2244 399.9 90.5412Z" fill="#F68C8E"/>
<path d="M387.532 90.5412C387.532 91.8593 388.601 92.9266 389.918 92.9266C391.236 92.9266 392.303 91.8593 392.303 90.5412C392.303 89.2244 391.236 88.1557 389.918 88.1557C388.601 88.1557 387.532 89.2244 387.532 90.5412Z" fill="#F68C8E"/>
<path d="M375.026 90.5412C375.026 91.8593 376.094 92.9266 377.411 92.9266C378.729 92.9266 379.797 91.8593 379.797 90.5412C379.797 89.2244 378.729 88.1557 377.411 88.1557C376.094 88.1557 375.026 89.2244 375.026 90.5412Z" fill="#F68C8E"/>
<g clip-path="url(#clip1_358_1235)">
<path d="M188.125 142H149.875C140.555 142 133 149.555 133 158.875V197.125C133 206.445 140.555 214 149.875 214H188.125C197.445 214 205 206.445 205 197.125V158.875C205 149.555 197.445 142 188.125 142Z" fill="#022264"/>
<path d="M173.763 152.705L189.449 152.688L163.131 178.992L156.273 185.812L148.469 177.999L173.763 152.705ZM173.617 176.191C173.82 175.922 174.195 176.055 174.479 176.021L189.436 176.024L175.805 189.642L167.96 181.846L173.617 176.191Z" fill="#44D1FD"/>
<path d="M160.141 189.656L167.96 181.846L175.805 189.642L175.837 189.677L167.962 197.479L160.141 189.656Z" fill="#1FBCFD"/>
<path d="M167.962 197.479L175.837 189.677L189.442 203.295C184.317 203.306 179.194 203.291 174.072 203.302C173.78 203.368 173.6 203.101 173.413 202.936L167.962 197.479Z" fill="#08589C"/>
</g>
<g clip-path="url(#clip2_358_1235)">
<path d="M536.062 22H499.938C491.135 22 484 29.1355 484 37.9375V74.0625C484 82.8645 491.135 90 499.938 90H536.062C544.865 90 552 82.8645 552 74.0625V37.9375C552 29.1355 544.865 22 536.062 22Z" fill="#CEEEDF"/>
<path d="M515.843 30.2652C517.149 29.5175 518.851 29.514 520.156 30.2652C526.723 33.976 533.292 37.6806 539.858 41.3936C541.093 42.0892 541.918 43.4636 541.906 44.8865V67.211C541.915 68.6929 541.008 70.1002 539.705 70.7799C533.16 74.4702 526.617 78.1648 520.073 81.8551C518.74 82.6175 517.004 82.5588 515.712 81.7338C513.75 80.5963 511.784 79.4643 509.822 78.3279C509.421 78.0888 508.969 77.8987 508.686 77.5098C508.936 77.1724 509.384 77.1305 509.747 76.983C510.566 76.7225 511.319 76.3044 512.071 75.8988C512.261 75.7686 512.494 75.8185 512.676 75.9349C514.354 76.897 516.017 77.8872 517.701 78.84C518.06 79.0475 518.424 78.772 518.731 78.601C525.154 74.9707 531.584 71.3545 538.006 67.7231C538.244 67.6086 538.376 67.356 538.356 67.0954C538.361 59.731 538.358 52.3655 538.359 45.0007C538.386 44.7054 538.215 44.4334 537.947 44.3122C531.425 40.6389 524.905 36.9603 518.384 33.2861C518.271 33.2084 518.137 33.1667 518 33.1664C517.863 33.1662 517.729 33.2075 517.616 33.2848C511.094 36.9603 504.576 40.6426 498.055 44.3154C497.788 44.4368 497.61 44.7043 497.641 45.0007C497.643 52.3655 497.641 59.731 497.641 67.0965C497.63 67.2237 497.658 67.3513 497.721 67.4622C497.785 67.573 497.881 67.6618 497.996 67.7165C499.736 68.7033 501.479 69.6831 503.22 70.6668C504.201 71.1945 505.406 71.5085 506.487 71.104C507.44 70.7618 508.109 69.7883 508.091 68.7758C508.1 61.4543 508.086 54.1319 508.098 46.8112C508.074 46.4864 508.382 46.2178 508.698 46.2486C509.534 46.2428 510.372 46.2372 511.208 46.2508C511.557 46.2428 511.797 46.5929 511.754 46.9201C511.75 54.2881 511.763 61.656 511.748 69.0236C511.75 70.9874 510.944 73.1241 509.127 74.0848C506.89 75.2437 504.124 74.998 501.914 73.8867C500 72.9315 498.174 71.8042 496.294 70.781C494.988 70.105 494.085 68.6921 494.094 67.2112V44.8865C494.08 43.4341 494.939 42.0348 496.212 41.3492C502.757 37.6562 509.3 33.96 515.843 30.2652Z" fill="#81CD39"/>
<path d="M521.552 45.7296C524.406 45.5458 527.462 45.6207 530.03 47.0269C532.019 48.1043 533.121 50.3658 533.156 52.575C533.101 52.8728 532.789 53.0372 532.504 53.0168C531.677 53.0157 530.848 53.0282 530.02 53.0112C529.669 53.0247 529.465 52.7009 529.421 52.3904C529.183 51.3332 528.606 50.2864 527.611 49.7764C526.084 49.0119 524.313 49.0505 522.648 49.0664C521.432 49.1307 520.124 49.2361 519.094 49.9509C518.304 50.4925 518.064 51.5859 518.346 52.4664C518.612 53.0986 519.341 53.3026 519.939 53.4906C523.378 54.3903 527.023 54.3005 530.397 55.4844C531.794 55.9671 533.161 56.9055 533.639 58.3681C534.264 60.3284 533.99 62.6712 532.595 64.2447C531.464 65.5397 529.817 66.2446 528.174 66.6274C525.989 67.1148 523.721 67.1273 521.501 66.9108C519.414 66.6728 517.242 66.1246 515.631 64.7027C514.253 63.5063 513.58 61.6421 513.647 59.8433C513.663 59.5395 513.965 59.3275 514.257 59.3525C515.09 59.3458 515.924 59.3434 516.758 59.3538C517.092 59.3299 517.338 59.6178 517.356 59.9318C517.509 60.9388 517.888 61.996 518.766 62.5928C520.461 63.6864 522.588 63.6115 524.528 63.642C526.136 63.5709 527.941 63.5493 529.253 62.4866C529.945 61.8804 530.15 60.8663 529.963 59.9939C529.761 59.2574 528.99 58.9142 528.328 58.6897C524.933 57.6158 521.247 58.0055 517.884 56.7908C516.519 56.3084 515.199 55.3962 514.675 53.9937C513.943 52.0087 514.278 49.5533 515.819 48.0331C517.321 46.5204 519.49 45.9379 521.552 45.7296Z" fill="#81CD39"/>
</g>
<g clip-path="url(#clip3_358_1235)">
<path d="M484.062 287H447.938C439.135 287 432 294.135 432 302.938V339.062C432 347.865 439.135 355 447.938 355H484.062C492.865 355 500 347.865 500 339.062V302.938C500 294.135 492.865 287 484.062 287Z" fill="#000714"/>
<g clip-path="url(#clip4_358_1235)">
<path d="M456.048 301.62C457.55 302.129 458.979 302.832 460.298 303.712C462.161 303.236 464.077 302.997 466 303C467.986 303 469.902 303.248 471.698 303.71C473.017 302.831 474.445 302.128 475.946 301.62C477.34 301.146 479.326 300.378 480.506 301.684C481.306 302.572 481.506 304.06 481.648 305.196C481.808 306.464 481.846 308.116 481.426 309.756C483.032 311.83 484 314.304 484 317C484 321.084 481.788 324.63 478.514 327.086C476.938 328.253 475.191 329.168 473.334 329.798C473.762 330.778 474 331.862 474 333V339C474 339.53 473.789 340.039 473.414 340.414C473.039 340.789 472.53 341 472 341H460C459.47 341 458.961 340.789 458.586 340.414C458.211 340.039 458 339.53 458 339V337.018C456.09 337.252 454.488 337.044 453.126 336.466C451.702 335.862 450.71 334.926 449.964 334.03C449.256 333.182 448.484 331.27 447.368 330.898C447.119 330.815 446.888 330.684 446.69 330.512C446.491 330.34 446.329 330.13 446.211 329.895C445.974 329.421 445.934 328.871 446.102 328.368C446.27 327.865 446.63 327.448 447.105 327.211C447.579 326.974 448.129 326.934 448.632 327.102C449.964 327.546 450.832 328.506 451.426 329.278C452.386 330.518 453.166 332.138 454.686 332.784C455.312 333.05 456.23 333.224 457.666 333.028L458 332.96C458.004 331.872 458.23 330.795 458.666 329.798C456.809 329.168 455.062 328.253 453.486 327.086C450.212 324.63 448 321.086 448 317C448 314.308 448.966 311.836 450.568 309.764C450.148 308.124 450.184 306.468 450.344 305.198L450.354 305.122C450.5 303.958 450.67 302.588 451.486 301.684C452.666 300.378 454.654 301.148 456.046 301.622L456.048 301.62Z" fill="white"/>
</g>
</g>
<g clip-path="url(#clip5_358_1235)">
<path d="M60.0625 9H23.9375C15.1355 9 8 16.1355 8 24.9375V61.0625C8 69.8645 15.1355 77 23.9375 77H60.0625C68.8645 77 76 69.8645 76 61.0625V24.9375C76 16.1355 68.8645 9 60.0625 9Z" fill="#FEF6D9"/>
<g clip-path="url(#clip6_358_1235)">
<path d="M31.5735 39.5079C31.5735 40.1025 31.6373 40.5845 31.7485 40.938C31.8896 41.3357 32.0596 41.7223 32.257 42.0947C32.3365 42.2232 32.3682 42.3518 32.3682 42.4643C32.3682 42.6249 32.2729 42.7856 32.0663 42.9463L31.065 43.6211C30.922 43.7176 30.7789 43.7657 30.6516 43.7657C30.4928 43.7657 30.3338 43.6854 30.1748 43.5408C29.9606 43.3081 29.7691 43.0552 29.6027 42.7856C29.4437 42.5127 29.2847 42.2071 29.11 41.8377C27.8702 43.3158 26.3125 44.055 24.4371 44.055C23.1021 44.055 22.0371 43.6693 21.2582 42.8982C20.4795 42.1268 20.0822 41.0985 20.0822 39.8132C20.0822 38.4476 20.559 37.3389 21.5286 36.5034C22.498 35.6679 23.7855 35.2502 25.4226 35.2502C25.963 35.2502 26.5193 35.2983 27.1073 35.3787C27.6955 35.459 28.2994 35.5876 28.9352 35.7322V34.5593C28.9352 33.3381 28.6808 32.4866 28.188 31.9885C27.6795 31.4904 26.8212 31.2493 25.5973 31.2493C25.041 31.2493 24.469 31.3137 23.8808 31.4584C23.2928 31.6028 22.7205 31.7796 22.1642 32.0046C21.91 32.117 21.7193 32.1813 21.6079 32.2135C21.4967 32.2457 21.4172 32.2616 21.3537 32.2616C21.1311 32.2616 21.0199 32.1009 21.0199 31.7635V30.9762C21.0199 30.7192 21.0518 30.5264 21.1311 30.414C21.2106 30.3014 21.3537 30.189 21.5762 30.0766C22.1325 29.7874 22.8 29.5463 23.5787 29.3535C24.3578 29.1446 25.1843 29.0483 26.0584 29.0483C27.9499 29.0483 29.3327 29.482 30.2228 30.3497C31.0969 31.2173 31.542 32.5348 31.542 34.3023V39.5079H31.5735ZM25.1205 41.9501C25.6452 41.9501 26.1855 41.8538 26.7576 41.6609C27.3298 41.4681 27.8385 41.1146 28.2675 40.6326C28.522 40.3274 28.7127 39.9901 28.8079 39.6043C28.9033 39.2188 28.9669 38.7527 28.9669 38.2065V37.5317C28.4849 37.4131 27.9967 37.3219 27.5046 37.2586C27.0091 37.1949 26.5101 37.1627 26.0106 37.1621C24.9456 37.1621 24.1669 37.371 23.6425 37.8048C23.1178 38.2387 22.8636 38.8492 22.8636 39.6525C22.8636 40.4076 23.0543 40.97 23.4516 41.3557C23.8332 41.7573 24.3895 41.9501 25.1205 41.9501ZM37.8835 43.6854C37.5973 43.6854 37.4067 43.6372 37.2795 43.5246C37.1524 43.4284 37.041 43.2034 36.9458 42.8982L33.2108 30.4782C33.1152 30.1568 33.0675 29.9479 33.0675 29.8355C33.0675 29.5785 33.1947 29.4337 33.4491 29.4337H35.0067C35.3085 29.4337 35.5153 29.482 35.6265 29.5944C35.7537 29.6909 35.8491 29.9159 35.9443 30.221L38.6145 40.8576L41.094 30.221C41.1735 29.8998 41.269 29.6909 41.3959 29.5944C41.5232 29.4981 41.7458 29.4339 42.0319 29.4339H43.3033C43.6052 29.4339 43.812 29.482 43.939 29.5944C44.0663 29.6909 44.1775 29.9159 44.241 30.221L46.7524 40.9861L49.5019 30.221C49.5972 29.8998 49.7085 29.6909 49.8197 29.5944C49.9468 29.4981 50.1535 29.4339 50.4396 29.4339H51.9177C52.1721 29.4339 52.3152 29.5624 52.3152 29.8355C52.3152 29.9159 52.2992 29.9962 52.2833 30.0925C52.2673 30.189 52.2357 30.3175 52.1721 30.4944L48.3415 42.9141C48.2462 43.2356 48.135 43.4445 48.0077 43.5408C47.8806 43.6372 47.674 43.7015 47.404 43.7015H46.0371C45.735 43.7015 45.5284 43.6533 45.4011 43.5408C45.274 43.4284 45.1628 43.2195 45.0992 42.8982L42.6355 32.5348L40.1878 42.8819C40.1085 43.2034 40.0131 43.4122 39.886 43.5246C39.7588 43.6372 39.5363 43.6854 39.2503 43.6854H37.8835ZM58.3073 44.1192C57.4808 44.1192 56.6543 44.0228 55.8597 43.83C55.0648 43.6372 54.4452 43.4282 54.0319 43.1874C53.7775 43.0426 53.6025 42.8821 53.5392 42.7375C53.4773 42.5957 53.4448 42.4425 53.4437 42.2875V41.4681C53.4437 41.1307 53.5708 40.97 53.8093 40.97C53.9067 40.9704 54.0033 40.9867 54.0955 41.0183C54.1907 41.0505 54.3338 41.1146 54.4928 41.1789C55.0541 41.4285 55.6402 41.617 56.241 41.7412C56.8636 41.869 57.4973 41.9335 58.1325 41.934C59.1338 41.934 59.9127 41.7573 60.453 41.4039C60.9934 41.0504 61.2795 40.5363 61.2795 39.8775C61.2795 39.4277 61.1365 39.0581 60.8503 38.7527C60.5642 38.4476 60.0238 38.1744 59.2452 37.9172L56.9404 37.1943C55.7802 36.8247 54.922 36.2784 54.3973 35.5553C53.8729 34.8483 53.6027 34.0612 53.6027 33.2257C53.6027 32.5509 53.7458 31.9563 54.0319 31.4421C54.3178 30.928 54.6994 30.4782 55.1762 30.1247C55.653 29.7551 56.1934 29.482 56.8292 29.2892C57.4648 29.0965 58.1323 29.0161 58.8317 29.0161C59.1814 29.0161 59.547 29.0322 59.8967 29.0804C60.2623 29.1285 60.5961 29.1928 60.9298 29.257C61.2477 29.3374 61.5497 29.4178 61.8358 29.5142C62.122 29.6105 62.3443 29.707 62.5033 29.8033C62.7259 29.932 62.8847 30.0605 62.9802 30.2051C63.0756 30.3336 63.1232 30.5103 63.1232 30.7353V31.4904C63.1232 31.8278 62.9961 32.0046 62.7576 32.0046C62.6305 32.0046 62.4238 31.9402 62.1538 31.8117C61.2477 31.3939 60.2305 31.185 59.1021 31.185C58.1961 31.185 57.4808 31.3297 56.988 31.635C56.4955 31.9402 56.241 32.4063 56.241 33.0649C56.241 33.5149 56.4 33.9004 56.7178 34.2058C57.0358 34.511 57.6238 34.8163 58.4663 35.0894L60.7232 35.8125C61.8675 36.1821 62.694 36.6962 63.1868 37.3548C63.6795 38.0137 63.918 38.7688 63.918 39.6043C63.918 40.2952 63.7748 40.9218 63.5046 41.4681C63.2187 42.0144 62.8371 42.4964 62.3443 42.8821C61.8516 43.2837 61.2636 43.573 60.5802 43.7819C59.8648 44.0068 59.1178 44.1192 58.3073 44.1192Z" fill="#252F3E"/>
<path d="M61.3112 51.9278C56.0822 55.8322 48.4847 57.9049 41.9524 57.9049C32.7973 57.9049 24.5485 54.4825 18.318 48.7947C17.8253 48.3449 18.2702 47.7344 18.8582 48.0877C25.5973 52.0404 33.91 54.4343 42.5087 54.4343C48.31 54.4343 54.6835 53.2133 60.5485 50.7068C61.4226 50.305 62.1696 51.2853 61.3112 51.9278ZM63.4888 49.4213C62.8213 48.5538 59.0702 49.0036 57.3696 49.2124C56.8609 49.2769 56.7814 48.8269 57.2425 48.4895C60.2305 46.3685 65.1418 46.9792 65.7139 47.6861C66.2861 48.4092 65.5549 53.3738 62.7576 55.7518C62.3286 56.1215 61.9153 55.9287 62.106 55.4467C62.7416 53.8559 64.1563 50.2729 63.4888 49.4213Z" fill="#FF9900"/>
</g>
</g>
<g clip-path="url(#clip7_358_1235)">
<path d="M246.875 0H217.125C209.876 0 204 5.87626 204 13.125V42.875C204 50.1237 209.876 56 217.125 56H246.875C254.124 56 260 50.1237 260 42.875V13.125C260 5.87626 254.124 0 246.875 0Z" fill="#022264"/>
<path d="M232 31.5655C233.99 31.5655 235.603 29.9524 235.603 27.9625C235.603 25.9727 233.99 24.3596 232 24.3596C230.01 24.3596 228.397 25.9727 228.397 27.9625C228.397 29.9524 230.01 31.5655 232 31.5655Z" fill="#00D8FF"/>
<path d="M232 36.2234C227.669 36.3281 223.35 35.7444 219.202 34.4939C217.286 33.8866 215.5 32.9299 213.932 31.6721C213.334 31.2424 212.836 30.6884 212.472 30.0481C212.108 29.4078 211.887 28.6963 211.823 27.9625C211.823 25.5803 214.441 23.2456 218.825 21.7179C223.083 20.3643 227.532 19.7082 232 19.7752C236.408 19.7136 240.798 20.3578 245.002 21.6833C246.847 22.2716 248.574 23.182 250.101 24.3726C250.689 24.7822 251.18 25.3161 251.538 25.9365C251.897 26.5569 252.115 27.2486 252.176 27.9625C252.176 30.4385 249.251 32.9476 244.538 34.5069C240.471 35.7166 236.243 36.2955 232 36.2234ZM232 21.4989C227.726 21.4417 223.469 22.0654 219.391 23.3464C215.356 24.7545 213.547 26.6799 213.547 27.9582C213.547 29.2956 215.491 31.3983 219.76 32.8582C223.728 34.0484 227.859 34.6024 232 34.4997C236.059 34.5723 240.105 34.0231 243.998 32.8712C248.429 31.4026 250.447 29.2971 250.447 27.9625C250.374 27.5046 250.207 27.0667 249.957 26.6765C249.706 26.2863 249.378 25.9523 248.991 25.6956C247.625 24.6394 246.083 23.8325 244.436 23.3119C240.414 22.049 236.215 21.437 232 21.4989Z" fill="#00D8FF"/>
<path d="M223.814 45.9326C223.142 45.948 222.477 45.7849 221.889 45.4599C219.825 44.2694 219.11 40.8366 219.976 36.2752C220.931 31.91 222.586 27.728 224.876 23.8912C227.025 20.042 229.775 16.5613 233.023 13.581C234.455 12.2763 236.106 11.2356 237.9 10.507C238.549 10.2028 239.257 10.0452 239.974 10.0452C240.691 10.0452 241.399 10.2028 242.048 10.507C244.194 11.7435 244.904 15.5309 243.903 20.392C242.918 24.5204 241.306 28.4733 239.124 32.1131C237.051 35.9169 234.387 39.3673 231.232 42.3354C229.749 43.6912 228.027 44.7608 226.155 45.4901C225.405 45.7684 224.614 45.9179 223.814 45.9326ZM226.369 24.7473C224.185 28.4213 222.599 32.4197 221.671 36.5923C220.874 40.7933 221.639 43.3197 222.752 43.9625C223.905 44.6297 226.704 43.9971 230.102 41.0282C233.114 38.1847 235.657 34.8819 237.635 31.2426C239.726 27.763 241.272 23.9836 242.219 20.0361C243.162 15.4603 242.348 12.6587 241.192 11.9929C240.759 11.8269 240.296 11.7526 239.832 11.7746C239.369 11.7967 238.915 11.9147 238.5 12.1211C236.902 12.7802 235.434 13.716 234.162 14.8853C231.058 17.74 228.431 21.0722 226.379 24.7559L226.369 24.7473Z" fill="#00D8FF"/>
<path d="M240.182 45.9513C238.229 45.9513 235.748 44.7695 233.166 42.5487C229.861 39.5413 227.064 36.0193 224.883 32.1189C222.622 28.3349 220.98 24.2134 220.021 19.9107C219.605 18.0177 219.528 16.0659 219.793 14.146C219.855 13.4338 220.071 12.7437 220.429 12.1244C220.786 11.5051 221.274 10.9717 221.86 10.5618C224.003 9.32092 227.639 10.5964 231.35 13.8909C234.435 16.8052 237.055 20.1754 239.118 23.884C241.378 27.5797 243.037 31.6109 244.032 35.827C244.466 37.7895 244.533 39.8153 244.23 41.8022C244.158 42.5349 243.928 43.2433 243.556 43.8789C243.185 44.5144 242.68 45.0621 242.077 45.4844C241.498 45.8053 240.843 45.9665 240.182 45.9513ZM226.375 31.2513C228.467 34.9788 231.139 38.3496 234.29 41.2372C237.531 44.0259 240.102 44.6254 241.208 43.9754C242.361 43.3053 243.211 40.5699 242.335 36.1441C241.375 32.1188 239.784 28.2708 237.621 24.7429C235.652 21.1935 233.151 17.9663 230.206 15.1735C226.712 12.0721 223.879 11.3789 222.725 12.0476C222.365 12.34 222.07 12.7038 221.857 13.1161C221.645 13.5284 221.521 13.9801 221.492 14.4429C221.263 16.1551 221.338 17.8943 221.713 19.5807C222.636 23.6954 224.21 27.6363 226.377 31.2542L226.375 31.2513Z" fill="#00D8FF"/>
</g>
<defs>
<clipPath id="clip0_358_1235">
<rect width="62" height="105" fill="white" transform="translate(270 95)"/>
</clipPath>
<clipPath id="clip1_358_1235">
<rect width="72" height="72" fill="white" transform="translate(133 142)"/>
</clipPath>
<clipPath id="clip2_358_1235">
<rect width="68" height="68" fill="white" transform="translate(484 22)"/>
</clipPath>
<clipPath id="clip3_358_1235">
<rect width="68" height="68" fill="white" transform="translate(432 287)"/>
</clipPath>
<clipPath id="clip4_358_1235">
<rect width="48" height="48" fill="white" transform="translate(442 297)"/>
</clipPath>
<clipPath id="clip5_358_1235">
<rect width="68" height="68" fill="white" transform="translate(8 9)"/>
</clipPath>
<clipPath id="clip6_358_1235">
<rect width="48" height="29" fill="white" transform="translate(18 29)"/>
</clipPath>
<clipPath id="clip7_358_1235">
<rect width="56" height="56" fill="white" transform="translate(204)"/>
</clipPath>
</defs>
</svg>
