<svg width="463" height="310" viewBox="0 0 463 310" fill="none" xmlns="http://www.w3.org/2000/svg">
<g opacity="0.1">
<path d="M348.474 301.189C348.474 306.715 307.731 309.73 257.475 309.73C207.218 309.73 167.676 306.643 166.475 301.189C164.277 291.184 207.218 291.184 257.475 291.184C307.731 291.184 348.474 291.184 348.474 301.189Z" fill="#2D3962"/>
</g>
<path d="M332.103 279.569C322.878 275.821 310.602 269.791 310.602 269.791L306.77 284.469L310.638 298.655C310.638 298.655 322.77 292.817 332.103 288.974V279.569Z" fill="white"/>
<path d="M337.423 286.727C342.072 284.71 338.973 282.355 337.387 281.719C336.102 281.202 334.252 280.445 332.102 279.569V288.962C334.24 288.085 336.09 287.316 337.423 286.727Z" fill="#2D3962"/>
<path d="M202.498 279.353C200.275 279.353 198.474 277.166 198.474 274.476C198.474 271.785 200.275 269.599 202.498 269.599H309.472C311.695 269.599 313.496 271.785 313.496 274.476C313.496 277.166 311.695 279.353 309.472 279.353H202.498Z" fill="#9580FF"/>
<path d="M202.498 289.106C200.275 289.106 198.474 286.92 198.474 284.229C198.474 281.539 200.275 279.353 202.498 279.353H309.472C311.695 279.353 313.496 281.539 313.496 284.229C313.496 286.92 311.695 289.106 309.472 289.106H202.498Z" fill="#2D3962"/>
<path d="M202.498 298.859C200.275 298.859 198.474 296.673 198.474 293.982C198.474 291.292 200.275 289.106 202.498 289.106H309.472C311.695 289.106 313.496 291.292 313.496 293.982C313.496 296.673 311.695 298.859 309.472 298.859H202.498Z" fill="#9580FF"/>
<path d="M205.092 269.599H197.933V298.859H205.092V269.599Z" fill="white"/>
<path d="M197.933 298.859V269.599H190.462V269.611C190.354 269.611 190.234 269.599 190.126 269.599C184.517 269.599 179.964 276.145 179.964 284.229C179.964 292.313 184.517 298.859 190.126 298.859C190.246 298.859 190.354 298.847 190.462 298.847V298.859H197.933Z" fill="#F4B04E"/>
<g opacity="0.1">
<path d="M426.105 229.613C426.105 238.189 352.45 242.873 261.583 242.873C170.727 242.873 99.2346 238.069 97.0605 229.613C93.0847 214.082 170.715 214.082 261.583 214.082C352.438 214.07 426.105 214.07 426.105 229.613Z" fill="#2D3962"/>
</g>
<path d="M383.236 230.117H143.485C132.423 230.117 123.462 221.144 123.462 210.094V29.1519C123.462 18.0893 132.435 9.12866 143.485 9.12866H383.236C394.298 9.12866 403.259 18.1013 403.259 29.1519V210.094C403.259 221.156 394.298 230.117 383.236 230.117Z" fill="white"/>
<path d="M403.259 48.6226V28.2991C403.259 17.7169 394.671 9.12866 384.089 9.12866H142.633C132.05 9.12866 123.462 17.7169 123.462 28.2991V48.6226H403.259Z" fill="#744EFF"/>
<path d="M245.595 66.0393H212.828V89.7381H245.595V66.0393Z" fill="#9580FF"/>
<path d="M281.726 66.0393H248.959V89.7381H281.726V66.0393Z" fill="#9580FF"/>
<path d="M390.13 66.0393H357.363V89.7381H390.13V66.0393Z" fill="#744EFF"/>
<path d="M317.857 66.0393H285.09V89.7381H317.857V66.0393Z" fill="#9580FF"/>
<path d="M354 66.0393H321.232V89.7381H354V66.0393Z" fill="#744EFF"/>
<path d="M173.334 94.1943H140.567V117.893H173.334V94.1943Z" fill="#9580FF"/>
<path d="M245.595 94.1943H212.828V117.893H245.595V94.1943Z" fill="#9580FF"/>
<path d="M281.726 94.1943H248.959V117.893H281.726V94.1943Z" fill="#9580FF"/>
<path d="M390.13 94.1943H357.363V117.893H390.13V94.1943Z" fill="#744EFF"/>
<path d="M354 94.1943H321.232V117.893H354V94.1943Z" fill="#744EFF"/>
<path d="M173.334 122.362H140.567V146.06H173.334V122.362Z" fill="#9580FF"/>
<path d="M209.465 122.362H176.697V146.06H209.465V122.362Z" fill="#9580FF"/>
<path d="M281.726 122.362H248.959V146.06H281.726V122.362Z" fill="#9580FF"/>
<path d="M390.13 122.362H357.363V146.06H390.13V122.362Z" fill="#744EFF"/>
<path d="M317.857 122.362H285.09V146.06H317.857V122.362Z" fill="#9580FF"/>
<path d="M354 122.362H321.232V146.06H354V122.362Z" fill="#744EFF"/>
<path d="M173.334 150.517H140.567V174.215H173.334V150.517Z" fill="#9580FF"/>
<path d="M245.595 150.517H212.828V174.215H245.595V150.517Z" fill="#9580FF"/>
<path d="M281.726 150.517H248.959V174.215H281.726V150.517Z" fill="#9580FF"/>
<path d="M390.13 150.517H357.363V174.215H390.13V150.517Z" fill="#744EFF"/>
<path d="M317.857 150.517H285.09V174.215H317.857V150.517Z" fill="#9580FF"/>
<path d="M354 150.517H321.232V174.215H354V150.517Z" fill="#744EFF"/>
<path d="M173.334 178.672H140.567V202.37H173.334V178.672Z" fill="#9580FF"/>
<path d="M245.595 178.672H212.828V202.37H245.595V178.672Z" fill="#9580FF"/>
<path d="M281.726 178.672H248.959V202.37H281.726V178.672Z" fill="#9580FF"/>
<path d="M209.489 94.2185H176.721V117.917H209.489V94.2185Z" fill="#9580FF"/>
<path d="M192.324 111.755C192.012 111.755 191.724 111.623 191.52 111.383L187.508 106.626C187.135 106.182 187.184 105.509 187.64 105.137C188.084 104.765 188.757 104.813 189.129 105.269L192.18 108.897L196.985 100.897C197.285 100.392 197.934 100.236 198.438 100.537C198.943 100.837 199.099 101.485 198.799 101.99L193.237 111.263C193.057 111.551 192.757 111.743 192.421 111.767C192.385 111.755 192.348 111.755 192.324 111.755Z" fill="#2D3962"/>
<path d="M245.571 122.41H212.804V146.108H245.571V122.41Z" fill="#9580FF"/>
<path d="M228.407 139.958C228.095 139.958 227.806 139.826 227.602 139.586L223.59 134.83C223.218 134.385 223.266 133.712 223.722 133.34C224.167 132.968 224.84 133.016 225.212 133.472L228.263 137.1L233.067 129.088C233.368 128.584 234.016 128.427 234.521 128.728C235.025 129.028 235.181 129.677 234.881 130.181L229.32 139.454C229.14 139.742 228.839 139.934 228.503 139.958C228.467 139.946 228.443 139.958 228.407 139.958Z" fill="#2D3962"/>
<path d="M209.441 150.541H176.673V174.239H209.441V150.541Z" fill="#9580FF"/>
<path d="M193.057 169.603C189.081 169.603 185.85 166.372 185.85 162.396C185.85 158.42 189.081 155.189 193.057 155.189C197.033 155.189 200.264 158.42 200.264 162.396C200.264 166.36 197.033 169.603 193.057 169.603ZM193.057 157.291C190.246 157.291 187.964 159.573 187.964 162.396C187.964 165.207 190.246 167.489 193.057 167.489C195.868 167.489 198.15 165.207 198.15 162.396C198.15 159.573 195.868 157.291 193.057 157.291Z" fill="#2D3962"/>
<path d="M209.465 178.672H176.697V202.37H209.465V178.672Z" fill="#9580FF"/>
<path d="M192.3 196.208C191.988 196.208 191.7 196.076 191.496 195.836L187.484 191.079C187.111 190.635 187.159 189.962 187.616 189.59C188.06 189.218 188.733 189.266 189.105 189.722L192.156 193.35L196.961 185.338C197.261 184.846 197.91 184.677 198.414 184.978C198.919 185.278 199.075 185.927 198.775 186.431L193.213 195.704C193.033 195.992 192.733 196.184 192.396 196.208C192.36 196.208 192.324 196.208 192.3 196.208Z" fill="#2D3962"/>
<path d="M317.857 94.1943H285.09V117.893H317.857V94.1943Z" fill="#9580FF"/>
<path d="M301.485 113.257C297.509 113.257 294.278 110.026 294.278 106.05C294.278 102.074 297.509 98.8428 301.485 98.8428C305.461 98.8428 308.692 102.074 308.692 106.05C308.692 110.026 305.461 113.257 301.485 113.257ZM301.485 100.957C298.675 100.957 296.38 103.239 296.38 106.05C296.38 108.86 298.663 111.143 301.485 111.143C304.296 111.143 306.578 108.86 306.578 106.05C306.578 103.239 304.296 100.957 301.485 100.957Z" fill="#2D3962"/>
<g opacity="0.05">
<path d="M403.259 166.6V210.106C403.259 221.169 394.286 230.129 383.236 230.129H294.927C294.927 230.129 338.877 218.55 361.363 205.566C376.641 196.725 403.259 166.6 403.259 166.6Z" fill="#2D3962"/>
</g>
<path d="M162.295 36.4671C166.773 36.4671 170.403 32.8371 170.403 28.3593C170.403 23.8814 166.773 20.2515 162.295 20.2515C157.818 20.2515 154.188 23.8814 154.188 28.3593C154.188 32.8371 157.818 36.4671 162.295 36.4671Z" fill="#2D3962"/>
<path d="M162.295 29.3082C160.061 29.3082 158.247 27.4944 158.247 25.2603V4.04789C158.247 1.81374 160.061 0 162.295 0C164.529 0 166.343 1.81374 166.343 4.04789V25.2603C166.343 27.4944 164.529 29.3082 162.295 29.3082Z" fill="#F4B04E"/>
<path d="M228.215 36.4671C232.693 36.4671 236.323 32.8371 236.323 28.3593C236.323 23.8814 232.693 20.2515 228.215 20.2515C223.737 20.2515 220.107 23.8814 220.107 28.3593C220.107 32.8371 223.737 36.4671 228.215 36.4671Z" fill="#2D3962"/>
<path d="M228.215 29.3082C225.98 29.3082 224.167 27.4944 224.167 25.2603V4.04789C224.167 1.81374 225.98 0 228.215 0C230.449 0 232.262 1.81374 232.262 4.04789V25.2603C232.262 27.4944 230.449 29.3082 228.215 29.3082Z" fill="#F4B04E"/>
<path d="M294.134 36.4671C298.612 36.4671 302.242 32.8371 302.242 28.3593C302.242 23.8814 298.612 20.2515 294.134 20.2515C289.656 20.2515 286.026 23.8814 286.026 28.3593C286.026 32.8371 289.656 36.4671 294.134 36.4671Z" fill="#2D3962"/>
<path d="M294.134 29.3082C291.9 29.3082 290.086 27.4944 290.086 25.2603V4.04789C290.086 1.81374 291.9 0 294.134 0C296.368 0 298.182 1.81374 298.182 4.04789V25.2603C298.182 27.4944 296.368 29.3082 294.134 29.3082Z" fill="#F4B04E"/>
<path d="M360.053 36.4671C364.531 36.4671 368.161 32.8371 368.161 28.3593C368.161 23.8814 364.531 20.2515 360.053 20.2515C355.575 20.2515 351.945 23.8814 351.945 28.3593C351.945 32.8371 355.575 36.4671 360.053 36.4671Z" fill="#2D3962"/>
<path d="M360.053 29.3082C357.819 29.3082 356.005 27.4944 356.005 25.2603V4.04789C356.005 1.81374 357.819 0 360.053 0C362.288 0 364.101 1.81374 364.101 4.04789V25.2603C364.113 27.4944 362.3 29.3082 360.053 29.3082Z" fill="#F4B04E"/>
<g opacity="0.1">
<path d="M437.035 263.365C437.035 268.146 413.601 270.752 384.701 270.752C355.801 270.752 333.063 268.074 332.367 263.365C331.106 254.717 355.801 254.717 384.701 254.717C413.601 254.705 437.035 254.705 437.035 263.365Z" fill="#2D3962"/>
</g>
<path d="M384.161 259.702C425.065 259.702 458.224 226.542 458.224 185.638C458.224 144.734 425.065 111.575 384.161 111.575C343.257 111.575 310.097 144.734 310.097 185.638C310.097 226.542 343.257 259.702 384.161 259.702Z" fill="white"/>
<g opacity="0.05">
<path d="M455.185 164.558C457.167 171.237 458.224 178.312 458.224 185.639C458.224 226.538 425.06 259.702 384.161 259.702C362.011 259.702 342.12 249.972 328.559 234.562C328.559 234.562 369.831 229.985 391.992 219.355C426.586 202.743 455.185 164.558 455.185 164.558Z" fill="#2D3962"/>
</g>
<path d="M411.379 186.491H382.731C382.071 186.491 381.458 186.167 381.086 185.615C380.713 185.062 380.641 184.365 380.894 183.765L397.914 142.157C398.334 141.148 399.487 140.655 400.496 141.076C401.505 141.484 401.998 142.649 401.577 143.658L385.674 182.54H411.379C412.472 182.54 413.361 183.428 413.361 184.521C413.361 185.615 412.472 186.491 411.379 186.491Z" fill="#2D3962"/>
<path d="M384.16 129.569C383.067 129.569 382.179 128.68 382.179 127.587V121.749C382.179 120.656 383.067 119.767 384.16 119.767C385.254 119.767 386.142 120.656 386.142 121.749V127.587C386.142 128.68 385.254 129.569 384.16 129.569Z" fill="#2D3962"/>
<path d="M384.16 252.447C383.067 252.447 382.179 251.558 382.179 250.465V244.627C382.179 243.534 383.067 242.645 384.16 242.645C385.254 242.645 386.142 243.534 386.142 244.627V250.465C386.142 251.57 385.254 252.447 384.16 252.447Z" fill="#2D3962"/>
<path d="M325.4 187.621H319.563C318.469 187.621 317.581 186.732 317.581 185.639C317.581 184.546 318.469 183.657 319.563 183.657H325.4C326.493 183.657 327.382 184.546 327.382 185.639C327.382 186.732 326.493 187.621 325.4 187.621Z" fill="#2D3962"/>
<path d="M448.554 187.621H442.717C441.624 187.621 440.735 186.732 440.735 185.639C440.735 184.546 441.624 183.657 442.717 183.657H448.554C449.647 183.657 450.536 184.546 450.536 185.639C450.536 186.732 449.647 187.621 448.554 187.621Z" fill="#2D3962"/>
<path d="M384.161 264.158C340.871 264.158 305.641 228.94 305.641 185.639C305.641 142.337 340.859 107.119 384.161 107.119C427.45 107.119 462.68 142.337 462.68 185.639C462.68 228.928 427.462 264.158 384.161 264.158ZM384.161 116.032C345.784 116.032 314.554 147.262 314.554 185.639C314.554 224.016 345.784 255.246 384.161 255.246C422.538 255.246 453.768 224.016 453.768 185.639C453.768 147.25 422.55 116.032 384.161 116.032Z" fill="#744EFF"/>
<g opacity="0.1">
<path d="M179.076 264.038C179.076 270.98 139.005 274.764 89.5776 274.764C40.1501 274.764 1.26869 270.872 0.079548 264.038C-2.08253 251.462 40.1501 251.462 89.5776 251.462C139.005 251.462 179.076 251.462 179.076 264.038Z" fill="#2D3962"/>
</g>
<path d="M159.845 262.5H23.3339C21.3279 262.5 19.6944 260.867 19.6944 258.861V94.1344C19.6944 92.1285 21.3279 90.4949 23.3339 90.4949H159.833C161.839 90.4949 163.473 92.1285 163.473 94.1344V258.861C163.485 260.867 161.851 262.5 159.845 262.5Z" fill="white"/>
<g opacity="0.05">
<path d="M163.485 187.692V258.849C163.485 260.855 161.851 262.488 159.845 262.488H23.3339C21.3279 262.488 19.6944 260.855 19.6944 258.849C19.6944 258.849 93.9257 247.294 121.36 227.246C142.056 212.136 163.485 187.692 163.485 187.692Z" fill="#2D3962"/>
</g>
<path d="M163.485 122.734V94.2425C163.485 92.1765 161.899 90.4949 159.953 90.4949H23.2378C21.2919 90.4949 19.7064 92.1765 19.7064 94.2425V122.734H163.485Z" fill="#9580FF"/>
<path d="M71.7406 144.679H38.4806C36.775 144.679 35.3936 143.298 35.3936 141.592C35.3936 139.886 36.775 138.505 38.4806 138.505H71.7406C73.4462 138.505 74.8276 139.886 74.8276 141.592C74.8155 143.298 73.4342 144.679 71.7406 144.679Z" fill="#744EFF"/>
<path d="M108.148 150.288H36.8832C36.0664 150.288 35.3937 149.628 35.3937 148.799C35.3937 147.982 36.0544 147.31 36.8832 147.31H108.16C108.976 147.31 109.649 147.97 109.649 148.799C109.637 149.628 108.976 150.288 108.148 150.288Z" fill="#2D3962"/>
<path d="M108.148 155.898H36.8832C36.0664 155.898 35.3937 155.237 35.3937 154.408C35.3937 153.592 36.0544 152.919 36.8832 152.919H108.16C108.976 152.919 109.649 153.58 109.649 154.408C109.637 155.237 108.976 155.898 108.148 155.898Z" fill="#2D3962"/>
<path d="M146.753 150.817C146.753 154.805 143.522 158.024 139.546 158.024C135.558 158.024 132.339 154.793 132.339 150.817C132.339 146.829 135.57 143.61 139.546 143.61C143.522 143.598 146.753 146.829 146.753 150.817Z" fill="#F4B04E"/>
<path d="M139.053 154.421C138.861 154.421 138.669 154.337 138.537 154.18L136.002 151.165C135.762 150.877 135.798 150.457 136.087 150.229C136.363 149.988 136.795 150.024 137.023 150.313L138.957 152.607L141.996 147.538C142.188 147.226 142.597 147.118 142.909 147.31C143.221 147.502 143.329 147.91 143.137 148.223L139.606 154.096C139.498 154.276 139.306 154.397 139.089 154.421C139.089 154.421 139.065 154.421 139.053 154.421Z" fill="#2D3962"/>
<path d="M71.7406 183.248H38.4806C36.775 183.248 35.3936 181.867 35.3936 180.161C35.3936 178.456 36.775 177.074 38.4806 177.074H71.7406C73.4462 177.074 74.8276 178.456 74.8276 180.161C74.8155 181.867 73.4342 183.248 71.7406 183.248Z" fill="#744EFF"/>
<path d="M108.148 188.87H36.8832C36.0664 188.87 35.3937 188.209 35.3937 187.38C35.3937 186.563 36.0544 185.891 36.8832 185.891H108.16C108.976 185.891 109.649 186.551 109.649 187.38C109.637 188.197 108.976 188.87 108.148 188.87Z" fill="#2D3962"/>
<path d="M108.148 194.479H36.8832C36.0664 194.479 35.3937 193.818 35.3937 192.989C35.3937 192.173 36.0544 191.5 36.8832 191.5H108.16C108.976 191.5 109.649 192.161 109.649 192.989C109.637 193.818 108.976 194.479 108.148 194.479Z" fill="#2D3962"/>
<path d="M146.753 189.398C146.753 193.386 143.522 196.605 139.546 196.605C135.558 196.605 132.339 193.374 132.339 189.398C132.339 185.41 135.57 182.191 139.546 182.191C143.522 182.179 146.753 185.41 146.753 189.398Z" fill="#F4B04E"/>
<path d="M139.053 193.002C138.861 193.002 138.669 192.918 138.537 192.761L136.002 189.747C135.762 189.458 135.798 189.038 136.087 188.81C136.363 188.569 136.795 188.605 137.023 188.894L138.957 191.188L141.996 186.119C142.188 185.807 142.597 185.699 142.909 185.891C143.221 186.083 143.329 186.491 143.137 186.804L139.606 192.677C139.498 192.858 139.306 192.978 139.089 193.002C139.089 193.002 139.065 193.002 139.053 193.002Z" fill="#2D3962"/>
<path d="M71.7406 221.829H38.4806C36.775 221.829 35.3936 220.448 35.3936 218.742C35.3936 217.036 36.775 215.655 38.4806 215.655H71.7406C73.4462 215.655 74.8276 217.036 74.8276 218.742C74.8155 220.448 73.4342 221.829 71.7406 221.829Z" fill="#744EFF"/>
<path d="M108.148 227.438H36.8832C36.0664 227.438 35.3937 226.778 35.3937 225.949C35.3937 225.132 36.0544 224.459 36.8832 224.459H108.16C108.976 224.459 109.649 225.12 109.649 225.949C109.637 226.778 108.976 227.438 108.148 227.438Z" fill="#2D3962"/>
<path d="M108.148 233.06H36.8832C36.0664 233.06 35.3937 232.399 35.3937 231.57C35.3937 230.753 36.0544 230.081 36.8832 230.081H108.16C108.976 230.081 109.649 230.741 109.649 231.57C109.637 232.387 108.976 233.06 108.148 233.06Z" fill="#2D3962"/>
<path d="M146.753 227.967C146.753 231.955 143.522 235.174 139.546 235.174C135.558 235.174 132.339 231.943 132.339 227.967C132.339 223.979 135.57 220.76 139.546 220.76C143.522 220.76 146.753 223.991 146.753 227.967Z" fill="#F4B04E"/>
<path d="M139.053 231.582C138.861 231.582 138.669 231.498 138.537 231.342L136.002 228.327C135.762 228.039 135.798 227.619 136.087 227.39C136.363 227.15 136.795 227.186 137.023 227.475L138.957 229.769L141.996 224.7C142.188 224.388 142.597 224.279 142.909 224.472C143.221 224.664 143.329 225.072 143.137 225.385L139.606 231.258C139.498 231.438 139.306 231.558 139.089 231.582C139.089 231.582 139.065 231.582 139.053 231.582Z" fill="#2D3962"/>
<path d="M107.871 108.596H77.1217C75.7884 108.596 74.7194 107.515 74.7194 106.194C74.7194 104.861 75.8004 103.792 77.1217 103.792H107.871C109.205 103.792 110.274 104.873 110.274 106.194C110.274 107.515 109.193 108.596 107.871 108.596Z" fill="#2D3962"/>
</svg>
