<svg width="112" height="111" viewBox="0 0 112 111" fill="none" xmlns="http://www.w3.org/2000/svg">
<path d="M56 111C86.9279 111 112 86.1518 112 55.5C112 24.8482 86.9279 0 56 0C25.0721 0 0 24.8482 0 55.5C0 86.1518 25.0721 111 56 111Z" fill="#F5D8FF"/>
<path d="M37.5836 98.4658C42.8443 94.461 44.8059 88.3202 45.1625 84.1373H67.6316C67.9883 88.3202 69.9499 94.6389 75.478 98.6438" fill="#FFD986"/>
<path d="M37.5836 98.4658C42.8443 94.461 44.8059 88.3202 45.1625 84.1373H67.6316C67.8991 86.9852 68.8799 90.8121 71.1982 94.194" stroke="#011132" stroke-miterlimit="10" stroke-linecap="round" stroke-linejoin="round"/>
<path d="M98.7501 25.0439V83.4258C98.7501 84.8497 97.5909 85.9177 96.2535 85.9177H16.8091C15.3825 85.9177 14.3126 84.7607 14.3126 83.4258V25.0439C14.3126 23.62 15.4717 22.552 16.8091 22.552H96.2535C97.6801 22.552 98.7501 23.709 98.7501 25.0439Z" fill="white"/>
<path d="M39.6349 22.552H96.2535C97.6801 22.552 98.7501 23.709 98.7501 25.0439V83.4258C98.7501 84.8497 97.5909 85.9177 96.2535 85.9177H16.8091C15.3825 85.9177 14.3126 84.7607 14.3126 83.4258V72.0342V25.0439C14.3126 23.62 15.4717 22.552 16.8091 22.552H21.8914" stroke="#011132" stroke-miterlimit="10" stroke-linecap="round" stroke-linejoin="round"/>
<path d="M56.3081 81.3788C57.4673 81.3788 58.3589 80.4888 58.3589 79.3318C58.3589 78.1749 57.4673 77.2849 56.3081 77.2849C55.149 77.2849 54.2574 78.1749 54.2574 79.3318C54.2574 80.4888 55.2382 81.3788 56.3081 81.3788Z" fill="#D7B2FF"/>
<path d="M20.7323 65.3594H18.9491V67.1393H20.7323V65.3594Z" fill="#D7B2FF"/>
<path d="M20.7323 61.7994H18.9491V63.5794H20.7323V61.7994Z" fill="#D7B2FF"/>
<path d="M20.7323 58.3282H18.9491V60.1082H20.7323V58.3282Z" fill="#D7B2FF"/>
<path d="M20.7323 54.769H18.9491V56.549H20.7323V54.769Z" fill="#FFD986"/>
<path d="M20.7323 51.2089H18.9491V52.9888H20.7323V51.2089Z" fill="#D7B2FF"/>
<path d="M20.7323 47.7379H18.9491V49.5179H20.7323V47.7379Z" fill="#D7B2FF"/>
<path d="M24.3882 68.8297H22.6049V70.6096H24.3882V68.8297Z" fill="#D7B2FF"/>
<path d="M24.3882 65.3594H22.6049V67.1393H24.3882V65.3594Z" fill="#D7B2FF"/>
<path d="M24.3882 58.3282H22.6049V60.1082H24.3882V58.3282Z" fill="#D7B2FF"/>
<path d="M24.3882 54.769H22.6049V56.549H24.3882V54.769Z" fill="#D7B2FF"/>
<path d="M24.3882 51.2089H22.6049V52.9888H24.3882V51.2089Z" fill="#D7B2FF"/>
<path d="M24.3882 47.7379H22.6049V49.5179H24.3882V47.7379Z" fill="#D7B2FF"/>
<path d="M24.3882 44.1779H22.6049V45.9578H24.3882V44.1779Z" fill="#D7B2FF"/>
<path d="M24.3882 40.7067H22.6049V42.4866H24.3882V40.7067Z" fill="#FFD986"/>
<path d="M27.9546 68.8297H26.1713V70.6096H27.9546V68.8297Z" fill="#D7B2FF"/>
<path d="M27.9546 65.3594H26.1713V67.1393H27.9546V65.3594Z" fill="#D7B2FF"/>
<path d="M27.9546 61.7994H26.1713V63.5794H27.9546V61.7994Z" fill="#D7B2FF"/>
<path d="M27.9546 58.3282H26.1713V60.1082H27.9546V58.3282Z" fill="#D7B2FF"/>
<path d="M27.9546 54.769H26.1713V56.549H27.9546V54.769Z" fill="#D5B3FF"/>
<path d="M27.9546 51.2089H26.1713V52.9888H27.9546V51.2089Z" fill="#D7B2FF"/>
<path d="M27.9546 47.7379H26.1713V49.5179H27.9546V47.7379Z" fill="#D7B2FF"/>
<path d="M27.9546 44.1779H26.1713V45.9578H27.9546V44.1779Z" fill="#D7B2FF"/>
<path d="M27.9546 40.7067H26.1713V42.4866H27.9546V40.7067Z" fill="#D7B2FF"/>
<path d="M27.9546 37.1475H26.1713V38.9274H27.9546V37.1475Z" fill="#D7B2FF"/>
<path d="M31.6107 68.8297H29.8274V70.6096H31.6107V68.8297Z" fill="#D7B2FF"/>
<path d="M31.6107 65.3594H29.8274V67.1393H31.6107V65.3594Z" fill="#D7B2FF"/>
<path d="M31.6107 61.7994H29.8274V63.5794H31.6107V61.7994Z" fill="#D7B2FF"/>
<path d="M31.6107 58.3282H29.8274V60.1082H31.6107V58.3282Z" fill="#D7B2FF"/>
<path d="M31.6107 54.769H29.8274V56.549H31.6107V54.769Z" fill="#D7B2FF"/>
<path d="M31.6107 51.2089H29.8274V52.9888H31.6107V51.2089Z" fill="#D7B2FF"/>
<path d="M31.6107 47.7379H29.8274V49.5179H31.6107V47.7379Z" fill="#D7B2FF"/>
<path d="M31.6107 44.1779H29.8274V45.9578H31.6107V44.1779Z" fill="#D7B2FF"/>
<path d="M35.2661 68.8297H33.4828V70.6096H35.2661V68.8297Z" fill="#D7B2FF"/>
<path d="M35.2661 65.3594H33.4828V67.1393H35.2661V65.3594Z" fill="#D7B2FF"/>
<path d="M35.2661 61.7994H33.4828V63.5794H35.2661V61.7994Z" fill="#D7B2FF"/>
<path d="M35.2661 54.769H33.4828V56.549H35.2661V54.769Z" fill="#D7B2FF"/>
<path d="M35.2661 51.2089H33.4828V52.9888H35.2661V51.2089Z" fill="#FFD986"/>
<path d="M35.2661 47.7379H33.4828V49.5179H35.2661V47.7379Z" fill="#D7B2FF"/>
<path d="M38.9219 68.8297H37.1387V70.6096H38.9219V68.8297Z" fill="#D7B2FF"/>
<path d="M38.9219 65.3594H37.1387V67.1393H38.9219V65.3594Z" fill="#D7B2FF"/>
<path d="M38.9219 61.7994H37.1387V63.5794H38.9219V61.7994Z" fill="#D7B2FF"/>
<path d="M38.9219 58.3282H37.1387V60.1082H38.9219V58.3282Z" fill="#D7B2FF"/>
<path d="M38.9219 54.769H37.1387V56.549H38.9219V54.769Z" fill="#D7B2FF"/>
<path d="M38.9219 51.2089H37.1387V52.9888H38.9219V51.2089Z" fill="#D7B2FF"/>
<path d="M38.9219 47.7379H37.1387V49.5179H38.9219V47.7379Z" fill="#D7B2FF"/>
<path d="M38.9219 44.1779H37.1387V45.9578H38.9219V44.1779Z" fill="#D7B2FF"/>
<path d="M38.9219 40.7067H37.1387V42.4866H38.9219V40.7067Z" fill="#D7B2FF"/>
<path d="M42.5776 68.8297H40.7943V70.6096H42.5776V68.8297Z" fill="#D7B2FF"/>
<path d="M42.5776 65.3594H40.7943V67.1393H42.5776V65.3594Z" fill="#D7B2FF"/>
<path d="M42.5776 61.7994H40.7943V63.5794H42.5776V61.7994Z" fill="#D7B2FF"/>
<path d="M42.5776 54.769H40.7943V56.549H42.5776V54.769Z" fill="#D7B2FF"/>
<path d="M42.5776 51.2089H40.7943V52.9888H42.5776V51.2089Z" fill="#D7B2FF"/>
<path d="M46.2335 68.8297H44.4502V70.6096H46.2335V68.8297Z" fill="#D5B3FF"/>
<path d="M46.2335 65.3594H44.4502V67.1393H46.2335V65.3594Z" fill="#D7B2FF"/>
<path d="M46.2335 61.7994H44.4502V63.5794H46.2335V61.7994Z" fill="#D7B2FF"/>
<path d="M46.2335 58.3282H44.4502V60.1082H46.2335V58.3282Z" fill="#D7B2FF"/>
<path d="M46.2335 54.769H44.4502V56.549H46.2335V54.769Z" fill="#D7B2FF"/>
<path d="M46.2335 47.7379H44.4502V49.5179H46.2335V47.7379Z" fill="#D7B2FF"/>
<path d="M46.2335 44.1779H44.4502V45.9578H46.2335V44.1779Z" fill="#D7B2FF"/>
<path d="M49.9788 68.8297H48.1955V70.6096H49.9788V68.8297Z" fill="#D7B2FF"/>
<path d="M49.9788 65.3594H48.1955V67.1393H49.9788V65.3594Z" fill="#D7B2FF"/>
<path d="M49.9788 61.7994H48.1955V63.5794H49.9788V61.7994Z" fill="#FFD986"/>
<path d="M49.9788 58.3282H48.1955V60.1082H49.9788V58.3282Z" fill="#D7B2FF"/>
<path d="M49.9788 54.769H48.1955V56.549H49.9788V54.769Z" fill="#D7B2FF"/>
<path d="M49.9788 51.2089H48.1955V52.9888H49.9788V51.2089Z" fill="#D7B2FF"/>
<path d="M49.9788 47.7379H48.1955V49.5179H49.9788V47.7379Z" fill="#D7B2FF"/>
<path d="M49.9788 40.7067H48.1955V42.4866H49.9788V40.7067Z" fill="#D7B2FF"/>
<path d="M49.9788 37.1475H48.1955V38.9274H49.9788V37.1475Z" fill="#D7B2FF"/>
<path d="M75.5675 65.3594H73.7842V67.1393H75.5675V65.3594Z" fill="#D7B2FF"/>
<path d="M75.5675 58.3282H73.7842V60.1082H75.5675V58.3282Z" fill="#D7B2FF"/>
<path d="M75.5675 54.769H73.7842V56.549H75.5675V54.769Z" fill="#D7B2FF"/>
<path d="M75.5675 51.2089H73.7842V52.9888H75.5675V51.2089Z" fill="#D7B2FF"/>
<path d="M75.5675 47.7379H73.7842V49.5179H75.5675V47.7379Z" fill="#D7B2FF"/>
<path d="M75.5675 44.1779H73.7842V45.9578H75.5675V44.1779Z" fill="#D7B2FF"/>
<path d="M79.1339 68.8297H77.3506V70.6096H79.1339V68.8297Z" fill="#D7B2FF"/>
<path d="M79.1339 65.3594H77.3506V67.1393H79.1339V65.3594Z" fill="#D7B2FF"/>
<path d="M79.1339 61.7994H77.3506V63.5794H79.1339V61.7994Z" fill="#D7B2FF"/>
<path d="M79.1339 58.3282H77.3506V60.1082H79.1339V58.3282Z" fill="#D7B2FF"/>
<path d="M79.1339 54.769H77.3506V56.549H79.1339V54.769Z" fill="#D7B2FF"/>
<path d="M79.1339 51.2089H77.3506V52.9888H79.1339V51.2089Z" fill="#FFD986"/>
<path d="M79.1339 47.7379H77.3506V49.5179H79.1339V47.7379Z" fill="#D7B2FF"/>
<path d="M82.7897 68.8297H81.0065V70.6096H82.7897V68.8297Z" fill="#D7B2FF"/>
<path d="M82.7897 65.3594H81.0065V67.1393H82.7897V65.3594Z" fill="#D7B2FF"/>
<path d="M82.7897 61.7994H81.0065V63.5794H82.7897V61.7994Z" fill="#D7B2FF"/>
<path d="M82.7897 58.3282H81.0065V60.1082H82.7897V58.3282Z" fill="#D7B2FF"/>
<path d="M82.7897 54.769H81.0065V56.549H82.7897V54.769Z" fill="#D7B2FF"/>
<path d="M82.7897 51.2089H81.0065V52.9888H82.7897V51.2089Z" fill="#D7B2FF"/>
<path d="M82.7897 47.7379H81.0065V49.5179H82.7897V47.7379Z" fill="#D7B2FF"/>
<path d="M82.7897 44.1779H81.0065V45.9578H82.7897V44.1779Z" fill="#D7B2FF"/>
<path d="M82.7897 40.7067H81.0065V42.4866H82.7897V40.7067Z" fill="#D7B2FF"/>
<path d="M86.4454 68.8297H84.6621V70.6096H86.4454V68.8297Z" fill="#D7B2FF"/>
<path d="M86.4454 65.3594H84.6621V67.1393H86.4454V65.3594Z" fill="#D7B2FF"/>
<path d="M86.4454 61.7994H84.6621V63.5794H86.4454V61.7994Z" fill="#D7B2FF"/>
<path d="M86.4454 58.3282H84.6621V60.1082H86.4454V58.3282Z" fill="#D7B2FF"/>
<path d="M86.4454 54.769H84.6621V56.549H86.4454V54.769Z" fill="#D7B2FF"/>
<path d="M90.1012 68.8297H88.318V70.6096H90.1012V68.8297Z" fill="#D5B3FF"/>
<path d="M90.1012 65.3594H88.318V67.1393H90.1012V65.3594Z" fill="#D7B2FF"/>
<path d="M90.1012 61.7994H88.318V63.5794H90.1012V61.7994Z" fill="#D7B2FF"/>
<path d="M90.1012 58.3282H88.318V60.1082H90.1012V58.3282Z" fill="#D7B2FF"/>
<path d="M90.1012 54.769H88.318V56.549H90.1012V54.769Z" fill="#D7B2FF"/>
<path d="M90.1012 51.2089H88.318V52.9888H90.1012V51.2089Z" fill="#D5B3FF"/>
<path d="M90.1012 47.7379H88.318V49.5179H90.1012V47.7379Z" fill="#D7B2FF"/>
<path d="M90.1012 44.1779H88.318V45.9578H90.1012V44.1779Z" fill="#D7B2FF"/>
<path d="M93.8463 68.8297H92.063V70.6096H93.8463V68.8297Z" fill="#D7B2FF"/>
<path d="M93.8463 65.3594H92.063V67.1393H93.8463V65.3594Z" fill="#D7B2FF"/>
<path d="M93.8463 61.7994H92.063V63.5794H93.8463V61.7994Z" fill="#FFD986"/>
<path d="M93.8463 58.3282H92.063V60.1082H93.8463V58.3282Z" fill="#D7B2FF"/>
<path d="M93.8463 54.769H92.063V56.549H93.8463V54.769Z" fill="#D7B2FF"/>
<path d="M93.8463 51.2089H92.063V52.9888H93.8463V51.2089Z" fill="#D7B2FF"/>
<path d="M93.8463 47.7379H92.063V49.5179H93.8463V47.7379Z" fill="#D7B2FF"/>
<path d="M93.8463 40.7067H92.063V42.4866H93.8463V40.7067Z" fill="#D7B2FF"/>
<path d="M93.8463 37.1475H92.063V38.9274H93.8463V37.1475Z" fill="#D7B2FF"/>
<path d="M53.5452 68.8297H51.7619V70.6096H53.5452V68.8297Z" fill="#D7B2FF"/>
<path d="M53.5452 65.3594H51.7619V67.1393H53.5452V65.3594Z" fill="#D7B2FF"/>
<path d="M53.5452 61.7994H51.7619V63.5794H53.5452V61.7994Z" fill="#D7B2FF"/>
<path d="M53.5452 54.769H51.7619V56.549H53.5452V54.769Z" fill="#D7B2FF"/>
<path d="M53.5452 47.7379H51.7619V49.5179H53.5452V47.7379Z" fill="#D7B2FF"/>
<path d="M53.5452 44.1779H51.7619V45.9578H53.5452V44.1779Z" fill="#D7B2FF"/>
<path d="M53.5452 40.7067H51.7619V42.4866H53.5452V40.7067Z" fill="#D7B2FF"/>
<path d="M53.5452 37.1475H51.7619V38.9274H53.5452V37.1475Z" fill="#D7B2FF"/>
<path d="M57.1998 65.3594H55.4165V67.1393H57.1998V65.3594Z" fill="#D7B2FF"/>
<path d="M57.1998 61.7994H55.4165V63.5794H57.1998V61.7994Z" fill="#D7B2FF"/>
<path d="M57.1998 58.3282H55.4165V60.1082H57.1998V58.3282Z" fill="#D7B2FF"/>
<path d="M57.1998 54.769H55.4165V56.549H57.1998V54.769Z" fill="#D7B2FF"/>
<path d="M57.1998 51.2089H55.4165V52.9888H57.1998V51.2089Z" fill="#D5B3FF"/>
<path d="M57.1998 47.7379H55.4165V49.5179H57.1998V47.7379Z" fill="#D7B2FF"/>
<path d="M57.1998 44.1779H55.4165V45.9578H57.1998V44.1779Z" fill="#D7B2FF"/>
<path d="M60.8556 68.8297H59.0724V70.6096H60.8556V68.8297Z" fill="#D7B2FF"/>
<path d="M60.8556 61.7994H59.0724V63.5794H60.8556V61.7994Z" fill="#D7B2FF"/>
<path d="M60.8556 58.3282H59.0724V60.1082H60.8556V58.3282Z" fill="#FFD986"/>
<path d="M60.8556 54.769H59.0724V56.549H60.8556V54.769Z" fill="#D7B2FF"/>
<path d="M60.8556 51.2089H59.0724V52.9888H60.8556V51.2089Z" fill="#D7B2FF"/>
<path d="M60.8556 47.7379H59.0724V49.5179H60.8556V47.7379Z" fill="#D5B3FF"/>
<path d="M64.5117 68.8297H62.7284V70.6096H64.5117V68.8297Z" fill="#D7B2FF"/>
<path d="M64.5117 58.3282H62.7284V60.1082H64.5117V58.3282Z" fill="#D7B2FF"/>
<path d="M64.5117 54.769H62.7284V56.549H64.5117V54.769Z" fill="#D7B2FF"/>
<path d="M64.5117 51.2089H62.7284V52.9888H64.5117V51.2089Z" fill="#D7B2FF"/>
<path d="M68.1673 68.8297H66.3841V70.6096H68.1673V68.8297Z" fill="#D7B2FF"/>
<path d="M68.1673 65.3594H66.3841V67.1393H68.1673V65.3594Z" fill="#D7B2FF"/>
<path d="M68.1673 61.7994H66.3841V63.5794H68.1673V61.7994Z" fill="#D7B2FF"/>
<path d="M68.1673 58.3282H66.3841V60.1082H68.1673V58.3282Z" fill="#D7B2FF"/>
<path d="M68.1673 54.769H66.3841V56.549H68.1673V54.769Z" fill="#D7B2FF"/>
<path d="M68.1673 51.2089H66.3841V52.9888H68.1673V51.2089Z" fill="#D7B2FF"/>
<path d="M68.1673 47.7379H66.3841V49.5179H68.1673V47.7379Z" fill="#FFD986"/>
<path d="M68.1673 44.1779H66.3841V45.9578H68.1673V44.1779Z" fill="#D7B2FF"/>
<path d="M71.8232 68.8297H70.0399V70.6096H71.8232V68.8297Z" fill="#D7B2FF"/>
<path d="M71.8232 61.7994H70.0399V63.5794H71.8232V61.7994Z" fill="#D7B2FF"/>
<path d="M71.8232 58.3282H70.0399V60.1082H71.8232V58.3282Z" fill="#D7B2FF"/>
<path d="M11.4597 99H102.139" stroke="#011132" stroke-miterlimit="10" stroke-linecap="round" stroke-linejoin="round"/>
<path d="M79.1342 73.1018H14.3126" stroke="#011132" stroke-miterlimit="10" stroke-linecap="round" stroke-linejoin="round"/>
<path d="M90.9927 73.1018H84.6621" stroke="#011132" stroke-miterlimit="10" stroke-linecap="round" stroke-linejoin="round"/>
<path d="M82.967 13.8309H82.6995C82.6103 13.8309 82.5211 13.7419 82.432 13.6529C82.432 13.5639 82.3428 13.4749 82.3428 13.4749C82.2537 13.3859 82.3428 13.2969 82.3428 13.2079L82.5211 13.0299C82.6103 12.9409 82.6103 12.7629 82.5211 12.6739L82.1645 12.3179C82.0753 12.2289 81.897 12.2289 81.8078 12.3179L81.6295 12.4959C81.5403 12.5849 81.4512 12.5849 81.362 12.4959C81.2729 12.4959 81.1837 12.4069 81.1837 12.4069C81.0945 12.4069 81.0054 12.3179 81.0054 12.1399V11.8729C81.0054 11.695 80.827 11.606 80.7379 11.606H80.2029C80.0246 11.606 79.9354 11.695 79.9354 11.8729V12.1399C79.9354 12.2289 79.8462 12.3179 79.7571 12.4069C79.6679 12.4069 79.5788 12.4959 79.5788 12.4959C79.4896 12.5849 79.4004 12.4959 79.3113 12.4959L79.1329 12.3179C79.0438 12.2289 78.8655 12.2289 78.7763 12.3179L78.4196 12.6739C78.3305 12.7629 78.3305 12.9409 78.4196 13.0299L78.598 13.2079C78.6871 13.2969 78.6871 13.3859 78.598 13.4749C78.598 13.5639 78.5088 13.6529 78.5088 13.6529C78.5088 13.7419 78.4196 13.8309 78.2413 13.8309H77.9738C77.7955 13.8309 77.7063 14.0089 77.7063 14.0979V14.6318C77.7063 14.8098 77.7955 14.8988 77.9738 14.8988H78.2413C78.3305 14.8988 78.4196 14.9878 78.5088 15.0768C78.5088 15.1658 78.598 15.2548 78.598 15.2548C78.6871 15.3438 78.598 15.4328 78.598 15.5218L78.4196 15.6998C78.3305 15.7888 78.3305 15.9668 78.4196 16.0558L78.7763 16.4118C78.8655 16.5008 79.0438 16.5008 79.1329 16.4118L79.3113 16.2338C79.4004 16.1448 79.4896 16.1448 79.5788 16.2338C79.6679 16.2338 79.7571 16.3228 79.7571 16.3228C79.8462 16.3228 79.9354 16.4118 79.9354 16.5898V16.8568C79.9354 17.0348 80.1137 17.1238 80.2029 17.1238H80.7379C80.9162 17.1238 81.0054 17.0348 81.0054 16.8568V16.5898C81.0054 16.5008 81.0945 16.4118 81.1837 16.3228C81.2729 16.3228 81.362 16.2338 81.362 16.2338C81.4512 16.1448 81.5403 16.2338 81.6295 16.2338L81.8078 16.4118C81.897 16.5008 82.0753 16.5008 82.1645 16.4118L82.5211 16.0558C82.6103 15.9668 82.6103 15.7888 82.5211 15.6998L82.3428 15.5218C82.2537 15.4328 82.2537 15.3438 82.3428 15.2548C82.3428 15.1658 82.432 15.0768 82.432 15.0768C82.432 14.9878 82.5211 14.8988 82.6995 14.8988H82.967C83.1453 14.8988 83.2344 14.7208 83.2344 14.6318V14.0979C83.2344 14.0089 83.1453 13.9199 82.967 13.8309ZM80.3812 15.4328C79.8462 15.4328 79.4004 14.9878 79.4004 14.4539C79.4004 13.9199 79.8462 13.4749 80.3812 13.4749C80.9162 13.4749 81.362 13.9199 81.362 14.4539C81.362 14.9878 80.9162 15.4328 80.3812 15.4328Z" fill="#FFD986"/>
<path d="M106.556 35.9191C106.466 35.9191 106.556 35.9191 106.556 35.9191C106.734 36.0971 106.823 36.1861 106.823 36.4531C106.11 38.5 105.931 38.589 106.823 38.945C106.912 38.945 107.001 39.034 106.912 39.123C106.734 39.7459 106.645 40.1019 106.377 40.0129C102.989 38.856 106.466 36.5421 104.772 35.9191C104.683 35.9191 104.683 35.8301 104.683 35.8301L105.04 34.7621C105.04 34.6731 105.129 34.6731 105.129 34.6731C105.931 34.9401 106.021 34.3171 106.288 33.5162C106.645 32.4482 107.536 32.0032 108.606 32.3592C108.785 32.4482 109.052 32.4482 108.963 32.6262C108.606 33.6942 108.695 33.6052 108.25 33.4272C107.18 33.2492 107.536 36.0081 106.556 35.9191Z" fill="#FFD986"/>
<path d="M7.3161 59.2363C7.3161 59.1473 7.3161 59.1473 7.3161 59.2363C7.13777 59.3253 6.95944 59.3253 6.78111 59.2363C5.08701 57.9014 5.08701 57.6344 4.46287 58.3463C4.37371 58.4353 4.28454 58.4353 4.19538 58.3463C3.74957 57.9904 3.39291 57.7234 3.48208 57.5454C5.71116 54.7865 6.69195 58.7913 7.85107 57.4564C7.85107 57.4564 7.94023 57.3674 8.0294 57.4564L8.83187 58.1683C8.83187 58.1683 8.92103 58.2573 8.83187 58.3463C8.29689 59.0583 8.83186 59.3253 9.45601 59.8593C10.3476 60.5713 10.4368 61.5502 9.7235 62.4402C9.63433 62.6182 9.45601 62.7962 9.27768 62.7072C8.38605 61.9952 8.38605 62.0842 8.7427 61.7282C9.63434 60.7493 6.87028 60.1263 7.3161 59.2363Z" fill="#D5B3FF"/>
<path d="M42.6247 15.361C42.6247 15.361 42.6247 15.45 42.6247 15.361C42.7139 15.539 42.7139 15.628 42.6247 15.806C41.5548 17.1409 41.3764 17.1409 41.9114 17.6749C42.0006 17.7639 42.0006 17.7639 41.9114 17.8529C41.5548 18.2089 41.4656 18.5649 41.2873 18.3869C39.0582 16.6069 42.2681 15.806 41.1981 14.916V14.827L41.7331 14.115H41.8222C42.3572 14.56 42.6247 14.115 43.0705 13.581C43.6947 12.8691 44.408 12.7801 45.1213 13.4031C45.2104 13.4921 45.3888 13.581 45.2996 13.759C44.7646 14.471 44.8538 14.471 44.4971 14.204C43.873 13.4921 43.338 15.717 42.6247 15.361Z" fill="#D5B3FF"/>
<path d="M105.842 50.4257C105.931 50.3367 106.109 50.2477 106.287 50.3367C107.803 51.1377 107.892 51.3157 108.249 50.6927C108.249 50.6037 108.338 50.6037 108.427 50.6037C108.873 50.8707 109.141 50.9597 109.051 51.1377C107.714 53.6296 106.287 50.6037 105.574 51.8497C105.574 51.8497 105.485 51.9387 105.485 51.8497L104.682 51.4047C104.682 51.4047 104.593 51.3157 104.682 51.3157C105.039 50.6927 104.593 50.6037 103.969 50.2477C103.167 49.8028 102.899 49.0908 103.345 48.2898C103.434 48.1118 103.523 47.9338 103.612 48.0228C104.415 48.4678 104.415 48.3788 104.147 48.7348C103.791 49.5358 106.02 49.6248 105.842 50.4257Z" fill="#D7B2FF"/>
<path d="M8.20767 47.2215C8.29684 47.1325 8.47516 47.0435 8.65349 47.1325C10.1693 47.9335 10.2584 48.1115 10.6151 47.4885C10.6151 47.3995 10.7042 47.3995 10.7934 47.3995C11.2392 47.6665 11.5067 47.7555 11.4175 47.9335C10.0801 50.4254 8.65349 47.3995 7.94018 48.6455C7.94018 48.6455 7.85102 48.7345 7.85102 48.6455L7.04855 48.2005C7.04855 48.2005 6.95939 48.1115 7.04855 48.1115C7.4052 47.4885 6.95939 47.3995 6.33525 47.0435C5.53278 46.5985 5.26529 45.8866 5.7111 45.0856C5.80027 44.9076 5.88943 44.7296 5.97859 44.8186C6.78106 45.2636 6.78106 45.1746 6.51357 45.5306C6.15692 46.3315 8.386 46.4205 8.20767 47.2215Z" fill="#D7B2FF"/>
<path d="M101.918 19.0984C102.096 19.0984 102.185 19.1874 102.275 19.2764C102.81 20.8783 102.72 21.0563 103.434 20.8783C103.523 20.8783 103.612 20.8783 103.612 20.9673C103.79 21.4123 103.969 21.7683 103.701 21.7683C101.026 22.6583 102.096 19.5434 100.67 19.9884C100.67 19.9884 100.581 19.9884 100.581 19.8994L100.313 19.0984C100.313 19.0984 100.313 19.0094 100.402 19.0094C101.026 18.8314 100.848 18.3864 100.581 17.6745C100.313 16.7845 100.67 16.0725 101.561 15.8055C101.74 15.7165 101.918 15.6275 101.918 15.8055C102.185 16.6955 102.275 16.6065 101.829 16.6955C101.026 17.0515 102.631 18.6534 101.918 19.0984Z" fill="#D5B3FF"/>
<path d="M59.2092 12.246C59.12 12.335 59.0309 12.4239 58.8525 12.4239C57.4259 11.979 57.3368 11.89 57.1584 12.5129C57.1584 12.6019 57.0693 12.6019 56.9801 12.6019C56.5343 12.5129 56.2668 12.5129 56.356 12.335C57.0693 9.93204 58.7634 12.246 59.12 11.089L59.2092 11L59.9225 11.178L60.0117 11.267C59.8333 11.89 60.2792 11.89 60.8141 12.068C61.6166 12.246 61.8841 12.8689 61.7058 13.6699C61.7058 13.8479 61.6166 13.9369 61.5274 13.9369C60.8141 13.7589 60.8141 13.8479 60.9033 13.4919C61.0816 12.6019 59.2092 12.9579 59.2092 12.246Z" fill="#D7B2FF"/>
<path d="M11.1501 89.3172C11.0609 89.3172 11.1501 89.3172 11.1501 89.3172C11.0609 89.4062 10.9718 89.4952 10.7934 89.4952C9.36682 89.0503 9.27767 88.9613 9.09934 89.5842C9.09934 89.6732 9.01017 89.6732 8.92101 89.6732C8.47519 89.5842 8.20771 89.5842 8.29687 89.4062C9.01017 87.0033 10.7043 89.3172 11.0609 88.1603L11.1501 88.0713L11.8634 88.2493L11.9526 88.3383C11.7742 88.9613 12.22 88.9613 12.755 89.1393C13.5575 89.3172 13.825 89.9402 13.6467 90.7412C13.6467 90.9192 13.5575 91.0082 13.4683 91.0082C12.755 90.8302 12.755 90.9192 12.8442 90.5632C13.0225 89.6732 11.0609 90.0292 11.1501 89.3172Z" fill="#D7B2FF"/>
<path d="M105.705 62.7784V74.259C105.705 74.437 105.705 74.615 105.705 74.793C105.527 76.1279 104.813 77.2849 103.654 77.9078L93.7571 83.6036C92.7763 84.1376 91.7063 84.3156 90.6364 84.0486C90.2797 83.9596 89.9231 83.7816 89.5664 83.6036L79.6693 77.9078C78.956 77.4629 78.3319 76.8399 77.9752 76.0389C77.7077 75.5049 77.5294 74.882 77.5294 74.259V62.7784C77.5294 62.1554 77.6186 61.6214 77.886 61.0875C78.2427 60.2865 78.8668 59.5745 79.5801 59.1295L89.4773 53.4337C90.458 52.8998 91.528 52.7218 92.598 52.9888C92.9546 53.0777 93.3113 53.2557 93.6679 53.4337L103.565 59.1295C104.457 59.6635 105.081 60.4645 105.437 61.3544C105.705 61.7994 105.705 62.3334 105.705 62.7784Z" fill="white"/>
<path d="M105.527 61.354L100.801 70.3426L82.8793 67.6727L77.797 76.0384C77.5296 75.5044 77.3512 74.8815 77.3512 74.2585V62.7779C77.3512 62.1549 77.4404 61.6209 77.7079 61.087C78.0645 60.286 78.6887 59.574 79.402 59.129L89.2991 53.4332C90.2799 52.8993 91.3498 52.7213 92.4198 52.9883C92.7764 53.0773 93.1331 53.2553 93.4898 53.4332L103.387 59.129C104.546 59.663 105.17 60.464 105.527 61.354Z" fill="#D7B2FF"/>
<path d="M105.706 74.793C105.527 76.1279 104.814 77.2849 103.655 77.9078L93.7579 83.6036C92.7771 84.1376 91.7072 84.3156 90.6372 84.0486L77.7977 61.0875C78.1544 60.2865 78.7785 59.5745 79.4918 59.1295L89.3889 53.4337C90.3697 52.8998 91.4397 52.7218 92.5096 52.9888L105.706 74.793Z" fill="white"/>
<path d="M96.7886 66.4269V74.2586L93.3112 72.3007V68.3848L91.528 67.3169L89.7447 68.3848V72.3007L86.2673 74.2586V66.4269C86.2673 66.1599 86.4457 65.8929 86.624 65.8039L91.1713 63.045C91.3496 62.956 91.6171 62.956 91.7954 63.045L96.3428 65.8039C96.6994 65.8929 96.7886 66.1599 96.7886 66.4269Z" fill="#011132"/>
<path d="M38.0302 29.4935C39.4568 31.7184 39.4568 34.4773 38.0302 36.7022C35.1769 41.241 31.3429 44.9789 26.8848 47.8268C24.6557 49.2507 21.8916 49.2507 19.6625 47.8268C15.1152 44.9789 11.2812 41.241 8.42799 36.7022C7.00138 34.4773 7.00138 31.7184 8.42799 29.4935C11.2812 24.9546 15.1152 21.2168 19.5734 18.3689C21.8025 16.9449 24.5665 16.9449 26.7956 18.3689C31.3429 21.2168 35.1769 24.9546 38.0302 29.4935Z" fill="white"/>
<path d="M28.936 30.4726C28.6685 30.3836 28.4011 30.2946 28.1336 30.2056C28.3119 29.0487 28.6685 27.5357 28.0444 26.3788C27.7769 25.9338 27.4203 25.5778 26.7961 25.4888C25.4587 25.3998 24.0321 26.5568 23.1404 27.3577C21.9813 26.2898 21.0005 25.6668 19.9306 25.4888C18.8606 25.3108 18.2365 25.9338 18.0581 27.0017C17.7906 28.1587 18.0581 29.4046 18.2365 30.2056C17.7015 30.3836 14.4916 31.3626 14.6699 33.2315C14.8483 34.9224 17.7906 35.8124 18.2365 35.9904C18.0581 37.1474 17.7015 38.3933 18.2365 39.6393C18.4148 40.1733 18.7714 40.5292 19.3956 40.6182C20.733 40.8852 22.2488 39.6393 23.2296 38.8383C24.1212 39.5503 25.102 40.5292 26.4395 40.6182C28.5794 40.8852 28.6686 38.1263 28.2227 35.9014C29.3819 35.4564 30.8085 35.0114 31.4326 33.9435C32.4134 32.4305 30.6301 31.1846 28.936 30.4726ZM26.0828 26.3788C26.707 26.2008 27.1528 26.2008 27.5094 26.7347C27.9552 27.6247 27.7769 28.9597 27.5094 29.9386C27.5094 30.1166 27.5094 30.0276 25.9937 29.7606C25.0129 29.5826 25.5478 30.1166 23.8537 27.8917C23.8537 27.8917 23.8537 27.8917 23.8537 27.8027C24.2104 27.4467 25.0129 26.6457 26.0828 26.3788ZM19.7522 33.9435C20.1089 34.5665 20.4655 35.1004 20.733 35.7234C20.198 35.6344 19.6631 35.5454 19.1281 35.4564C19.3956 34.9224 19.5739 34.3885 19.7522 33.9435ZM19.6631 32.1635C19.4847 31.7186 19.3064 31.1846 19.1281 30.7396C19.6631 30.6506 20.1089 30.5616 20.6439 30.4726C20.1089 31.5406 20.2872 31.0956 19.6631 32.1635C19.7522 32.1635 19.7522 32.1635 19.6631 32.1635ZM20.1981 33.1425C20.1089 32.8755 21.4463 30.7396 21.6247 30.4726C21.7138 30.3836 21.7138 30.3836 21.803 30.3836C23.2296 30.2946 23.0513 30.2946 24.6562 30.3836C24.9237 30.3836 26.172 32.6975 26.2611 32.9645C26.2611 33.0535 26.2611 33.1425 26.2611 33.1425C25.1912 35.1894 25.102 35.1894 24.8345 35.6344C24.6562 35.8124 22.1596 35.7234 21.803 35.7234C21.7138 35.7234 21.7138 35.7234 21.6247 35.6344C21.0897 34.8335 20.5547 34.0325 20.1981 33.1425ZM26.707 33.8545C26.8853 34.3885 27.0636 34.8335 27.2419 35.3674C26.707 35.4564 26.172 35.5454 25.637 35.6344C26.0828 35.0114 26.3503 34.4775 26.707 33.8545ZM26.707 32.1635C26.3503 31.5406 26.0828 31.0066 25.7262 30.3836C26.2611 30.4726 26.7961 30.5616 27.3311 30.6506C27.0636 31.2736 26.8853 31.7186 26.707 32.1635ZM23.2296 28.4257C23.5863 28.8707 23.8537 29.2267 24.2104 29.5826C23.5863 29.5826 22.9621 29.5826 22.2488 29.5826C22.5163 29.2267 22.8729 28.7817 23.2296 28.4257ZM20.0197 26.2898C21.268 26.4678 22.5163 27.7137 22.7838 27.8917C20.733 30.2946 22.1596 29.4936 19.0389 30.0276C18.5931 28.4257 18.4148 26.0228 20.0197 26.2898ZM18.3256 35.1894C17.7015 35.0114 17.0773 34.7445 16.5424 34.3885C13.4217 32.4305 18.0581 31.0066 18.4148 30.9176C19.2173 32.9645 19.3064 32.9645 19.2173 33.1425C18.4148 35.3674 18.504 35.2784 18.3256 35.1894ZM18.9498 39.3723C18.4148 38.3043 18.8606 36.3464 18.9498 36.0794C21.0005 36.4354 20.198 36.2574 21.1788 36.4354C21.268 36.4354 21.268 36.4354 21.3572 36.5244C21.3572 36.6134 22.6946 38.2153 22.7838 38.2153C22.338 38.7493 19.6631 40.7962 18.9498 39.3723ZM22.2488 36.5244C22.9621 36.5244 23.5862 36.5244 24.2996 36.5244C23.9429 36.9694 23.6754 37.3254 23.3188 37.7703C22.8729 37.3254 22.6055 36.8804 22.2488 36.5244ZM27.4203 39.3723C26.8853 40.7962 24.3887 39.0163 23.7646 38.3043C25.8153 35.8124 24.3887 36.7914 27.5094 36.1684C27.6878 37.1474 27.8661 38.2153 27.4203 39.3723ZM28.1336 35.1894C27.9552 35.2784 28.0444 35.3674 27.2419 33.2315C27.1528 32.9645 27.1528 33.0535 27.9552 31.0956C27.9552 31.0066 28.0444 31.0066 28.1336 31.0066C32.0567 32.1635 31.7893 33.9435 28.1336 35.1894Z" fill="#011132"/>
<path d="M23.2296 34.5667C24.0321 34.5667 24.7454 33.9437 24.7454 33.0537C24.7454 32.2527 24.1212 31.5408 23.2296 31.5408C22.4271 31.5408 21.7138 32.1637 21.7138 33.0537C21.7138 33.8547 22.338 34.5667 23.2296 34.5667Z" fill="#011132"/>
<path d="M68.7916 50.8526C76.6706 50.8526 83.0577 44.4774 83.0577 36.6131C83.0577 28.7489 76.6706 22.3737 68.7916 22.3737C60.9127 22.3737 54.5255 28.7489 54.5255 36.6131C54.5255 44.4774 60.9127 50.8526 68.7916 50.8526Z" fill="white"/>
<path d="M72.804 33.0532C73.339 33.0532 73.6956 33.0532 74.1415 33.0532C75.2114 33.0532 75.7464 33.8542 76.0139 34.9222C76.2814 35.9901 76.3705 36.7911 75.9247 38.215C75.6572 39.194 74.9439 39.906 73.6956 39.906C72.0907 39.906 70.3966 39.906 68.7025 39.906C68.7025 40.084 68.7025 40.351 68.7025 40.529C69.8616 40.529 71.0208 40.529 72.1799 40.529C72.1799 40.529 72.1799 40.529 72.1799 40.6179C72.1799 42.3089 72.3582 43.0209 71.5557 43.4658C70.4858 44.0888 69.2375 44.0888 68.0784 43.8218C67.0976 43.6438 66.0276 43.1989 66.0276 42.0419C66.0276 41.7749 66.0276 38.838 66.0276 38.838C66.0276 38.393 66.1168 38.037 66.4734 37.6811C66.8301 37.2361 67.2759 37.0581 67.8109 37.0581C68.7917 37.0581 69.7725 37.0581 70.7533 37.0581C71.7341 37.0581 72.5365 36.3461 72.804 35.4561C72.8932 35.1891 72.804 35.1001 72.804 33.0532ZM70.8424 41.3299C70.4858 41.3299 70.2183 41.5969 70.2183 41.9529C70.2183 42.3089 70.4858 42.5759 70.8424 42.5759C71.1991 42.5759 71.4666 42.3089 71.4666 41.9529C71.4666 41.5969 71.1991 41.3299 70.8424 41.3299Z" fill="#967EA8"/>
<path d="M65.4033 40.529C63.9767 40.529 63.5309 40.618 62.9959 40.173C62.2826 39.6391 62.1042 38.5711 62.0151 37.7701C61.8368 36.3462 62.0151 34.2993 63.62 33.7653C64.0658 33.5873 63.8875 33.6763 69.4156 33.6763C69.4156 33.4983 69.4156 33.2313 69.4156 33.0533C68.2565 33.0533 67.0974 33.0533 65.9383 33.0533C65.9383 33.0533 65.9383 31.4514 65.9383 31.2734C65.9383 30.9174 66.1166 30.4724 66.3841 30.2054C66.8299 29.8494 67.454 29.7604 67.989 29.6714C69.3265 29.4934 72.1797 29.4934 72.1797 31.4514C72.1797 32.5193 72.1797 33.5873 72.1797 34.7442C72.1797 35.6342 71.4664 36.4352 70.3964 36.4352C69.4156 36.4352 68.4348 36.4352 67.454 36.4352C66.2949 36.4352 65.3141 37.4141 65.3141 38.5711C65.4033 39.2831 65.4033 39.8171 65.4033 40.529ZM66.7407 31.6294C66.7407 31.9853 67.0082 32.2523 67.3649 32.2523C67.7215 32.2523 67.989 31.9853 67.989 31.6294C67.989 31.2734 67.7215 31.0064 67.3649 31.0064C67.0082 31.0064 66.7407 31.2734 66.7407 31.6294Z" fill="#011132"/>
<path d="M51.0473 65.1809L49.1749 83.5143L37.5837 89.833H37.4946L25.8142 83.5143L23.7634 65.1809L37.5837 60.6421L51.0473 65.1809Z" fill="white"/>
<path d="M51.0472 65.1809L49.1748 83.5143L37.5836 89.833V60.6421L51.0472 65.1809Z" fill="#D7B2FF"/>
<path d="M37.5835 65.4482L30.2721 81.3787L33.0362 81.4677L34.5519 77.9968H40.5259L42.0416 81.5567L44.7165 81.4677L37.5835 65.4482ZM35.4436 75.5049L37.5835 70.6101L39.6342 75.5049H35.4436Z" fill="#011132"/>
<path d="M98.7501 80.7559L93.757 83.6038C92.7762 84.1377 91.7062 84.3157 90.6363 84.0487C90.2796 83.9597 89.923 83.7817 89.5663 83.6038L79.6692 77.908C78.9559 77.463 78.3318 76.84 77.9751 76.039C77.7076 75.505 77.5293 74.8821 77.5293 74.2591V62.7785C77.5293 62.1555 77.6185 61.6216 77.886 61.0876C78.2426 60.2866 78.8667 59.5746 79.5801 59.1296L89.4772 53.4339C90.458 52.8999 91.5279 52.7219 92.5979 52.9889C92.9545 53.0779 93.3112 53.2559 93.6678 53.4339L103.565 59.1296C104.457 59.6636 105.081 60.4646 105.437 61.3546C105.616 61.7996 105.705 62.2445 105.705 62.7785V74.2591C105.705 74.4371 105.705 74.6151 105.705 74.7931C105.527 76.128 104.813 77.285 103.654 77.908L101.96 78.8869" stroke="#011132" stroke-miterlimit="10" stroke-linecap="round" stroke-linejoin="round"/>
<path d="M11.3704 40.7071C10.3004 39.4611 9.31962 38.1261 8.42799 36.7022C7.00138 34.4773 7.00138 31.7184 8.42799 29.4935C11.2812 24.9546 15.1152 21.2168 19.5734 18.3689C21.8025 16.9449 24.5665 16.9449 26.7956 18.3689C31.3429 21.2168 35.0878 25.0436 37.941 29.4935C39.3676 31.7184 39.3676 34.4773 37.941 36.7022C35.0878 41.241 31.2538 44.9789 26.7956 47.8268C24.5665 49.2507 21.8025 49.2507 19.5734 47.8268C17.6118 46.5808 15.8285 45.2459 14.2236 43.7329" stroke="#011132" stroke-miterlimit="10" stroke-linecap="round" stroke-linejoin="round"/>
<path d="M61.2127 24.5986C63.4418 23.1746 66.0276 22.3737 68.7916 22.3737C76.638 22.3737 83.0577 28.6924 83.0577 36.6131C83.0577 44.5338 76.7271 50.8526 68.7916 50.8526C60.8561 50.8526 54.5255 44.5338 54.5255 36.6131C54.5255 35.7232 54.6147 34.7442 54.793 33.8542" stroke="#011132" stroke-miterlimit="10" stroke-linecap="round" stroke-linejoin="round"/>
<path d="M57.1997 28.3366C57.378 28.0696 57.5564 27.8916 57.7347 27.7136" stroke="#011132" stroke-miterlimit="10" stroke-linecap="round" stroke-linejoin="round"/>
<path d="M39.0111 89.032L37.5845 89.8329H37.4954L25.815 83.5142L23.7643 65.1808L29.8273 63.1339" stroke="#011132" stroke-miterlimit="10" stroke-linecap="round" stroke-linejoin="round"/>
<path d="M33.5723 61.9777L37.5846 60.6427L51.0482 65.1815L49.1758 83.5149L43.0236 86.8077" stroke="#011132" stroke-miterlimit="10" stroke-linecap="round" stroke-linejoin="round"/>
</svg>
