<svg width="245" height="195" viewBox="0 0 245 195" fill="none" xmlns="http://www.w3.org/2000/svg">
<path d="M235.764 163.634H9.20373C4.54226 163.634 0.727051 159.819 0.727051 155.157V9.44942C0.727051 4.78725 4.54226 0.972733 9.20373 0.972733H235.764C240.426 0.972733 244.241 4.78725 244.241 9.44942V155.157C244.241 159.819 240.426 163.634 235.764 163.634Z" fill="#FDE9AA"/>
<path d="M244.241 24.1276H0.727051V9.44951C0.727051 4.78734 4.54156 0.97283 9.20373 0.97283H235.764C240.426 0.97283 244.241 4.78734 244.241 9.44951V24.1276Z" fill="#FCD66A"/>
<path d="M15.6174 12.5503C15.6174 14.1764 14.2985 15.4952 12.6717 15.4952C11.0449 15.4952 9.72607 14.1764 9.72607 12.5503C9.72607 10.9228 11.0449 9.60464 12.6717 9.60464C14.2985 9.60464 15.6174 10.9228 15.6174 12.5503Z" fill="#FABE2C"/>
<path d="M25.4367 12.5503C25.4367 14.1764 24.1172 15.4952 22.4911 15.4952C20.8643 15.4952 19.5454 14.1764 19.5454 12.5503C19.5454 10.9228 20.8643 9.60464 22.4911 9.60464C24.1172 9.60464 25.4367 10.9228 25.4367 12.5503Z" fill="#FABE2C"/>
<path d="M36.0409 12.5503C36.0409 14.1764 34.7221 15.4952 33.0953 15.4952C31.4685 15.4952 30.1489 14.1764 30.1489 12.5503C30.1489 10.9228 31.4685 9.60464 33.0953 9.60464C34.7221 9.60464 36.0409 10.9228 36.0409 12.5503Z" fill="#FABE2C"/>
<path d="M132.118 71.4655H14.5655C11.9039 71.4655 9.72607 69.2877 9.72607 66.626V39.9421C9.72607 37.2797 11.9039 35.1019 14.5655 35.1019H132.118C134.78 35.1019 136.958 37.2797 136.958 39.9421V66.626C136.958 69.2877 134.78 71.4655 132.118 71.4655Z" fill="#FCD66A"/>
<path d="M23.6473 53.1101C23.6473 50.3622 25.8753 48.135 28.6224 48.135C31.371 48.135 33.5982 50.3622 33.5982 53.1101C33.5982 55.8572 31.371 58.0845 28.6224 58.0845C25.8753 58.0845 23.6473 55.8572 23.6473 53.1101ZM40.8486 49.9652H37.8903C37.7525 49.5569 37.59 49.16 37.4021 48.7764L39.5065 46.6721C39.9769 46.2016 39.9769 45.4324 39.5065 44.9619L36.7699 42.226C36.3002 41.7556 35.5309 41.7556 35.0605 42.226L32.9745 44.3113C32.5676 44.1065 32.1445 43.9298 31.7072 43.7829V40.7391C31.7072 40.0737 31.1633 39.5297 30.4986 39.5297H26.6297C25.9643 39.5297 25.4203 40.0737 25.4203 40.7391V43.7829C24.8743 43.9673 24.3481 44.1954 23.8493 44.4681L21.608 42.226C21.1382 41.7556 20.3683 41.7556 19.8978 42.226L17.1619 44.9619C16.6922 45.4324 16.6922 46.2016 17.1619 46.6721L19.5799 49.09C19.4528 49.3747 19.3383 49.6671 19.2373 49.9652H15.7958C15.1304 49.9652 14.5864 50.5099 14.5864 51.1746V55.0442C14.5864 55.7089 15.1304 56.2535 15.7958 56.2535H19.2373C19.3843 56.6908 19.5616 57.1132 19.7657 57.5208L17.3901 59.8964C16.9204 60.3669 16.9204 61.1361 17.3901 61.6066L20.126 64.3424C20.5964 64.8122 21.3664 64.8122 21.8361 64.3424L24.2308 61.947C24.6137 62.1356 25.0113 62.2981 25.4203 62.4366V65.8293C25.4203 66.4948 25.9643 67.0387 26.6297 67.0387H30.4986C31.1633 67.0387 31.7072 66.4948 31.7072 65.8293V62.4366C32.006 62.3356 32.2978 62.2211 32.5839 62.0933L35.0605 64.5706C35.5309 65.0403 36.3002 65.0403 36.7699 64.5706L39.5065 61.8347C39.9769 61.3643 39.9769 60.5943 39.5065 60.1246L37.2057 57.8231C37.4777 57.3251 37.7066 56.7996 37.8903 56.2535H40.8486C41.5133 56.2535 42.058 55.7089 42.058 55.0442V51.1746C42.058 50.5099 41.5133 49.9652 40.8486 49.9652Z" fill="white"/>
<path d="M132.292 52.0646H46.7843C46.5455 52.0646 46.3506 51.8696 46.3506 51.6316V51.5539C46.3506 51.3158 46.5455 51.1208 46.7843 51.1208H132.292C132.53 51.1208 132.725 51.3158 132.725 51.5539V51.6316C132.725 51.8696 132.53 52.0646 132.292 52.0646Z" fill="white"/>
<path d="M102.639 55.6488H46.7843C46.5455 55.6488 46.3506 55.4538 46.3506 55.2151V55.1388C46.3506 54.9 46.5455 54.7044 46.7843 54.7044H102.639C102.877 54.7044 103.072 54.9 103.072 55.1388V55.2151C103.072 55.4538 102.877 55.6488 102.639 55.6488Z" fill="white"/>
<path d="M119.134 59.2323H46.7843C46.5455 59.2323 46.3506 59.0373 46.3506 58.7986V58.7223C46.3506 58.4835 46.5455 58.2893 46.7843 58.2893H119.134C119.373 58.2893 119.568 58.4835 119.568 58.7223V58.7986C119.568 59.0373 119.373 59.2323 119.134 59.2323Z" fill="white"/>
<path d="M74.8513 63.111H46.7843C46.5455 63.111 46.3506 62.9153 46.3506 62.6773V62.6002C46.3506 62.3622 46.5455 62.1672 46.7843 62.1672H74.8513C75.0894 62.1672 75.2843 62.3622 75.2843 62.6002V62.6773C75.2843 62.9153 75.0894 63.111 74.8513 63.111Z" fill="white"/>
<path d="M122.555 67.0387H46.7843C46.5455 67.0387 46.3506 66.8437 46.3506 66.6057V66.5287C46.3506 66.2899 46.5455 66.0942 46.7843 66.0942H122.555C122.793 66.0942 122.988 66.2899 122.988 66.5287V66.605C122.988 66.8437 122.793 67.0387 122.555 67.0387Z" fill="white"/>
<path d="M17.9739 85.1138C17.9739 87.3919 16.1281 89.2384 13.85 89.2384C11.5726 89.2384 9.72607 87.3919 9.72607 85.1138C9.72607 82.8371 11.5726 80.9899 13.85 80.9899C16.1281 80.9899 17.9739 82.8371 17.9739 85.1138Z" fill="white"/>
<path d="M17.9739 98.468C17.9739 100.745 16.1281 102.592 13.85 102.592C11.5726 102.592 9.72607 100.745 9.72607 98.468C9.72607 96.1906 11.5726 94.3441 13.85 94.3441C16.1281 94.3441 17.9739 96.1906 17.9739 98.468Z" fill="white"/>
<path d="M17.9739 111.822C17.9739 114.099 16.1281 115.946 13.85 115.946C11.5726 115.946 9.72607 114.099 9.72607 111.822C9.72607 109.544 11.5726 107.698 13.85 107.698C16.1281 107.698 17.9739 109.544 17.9739 111.822Z" fill="white"/>
<path d="M17.9739 125.176C17.9739 127.453 16.1281 129.3 13.85 129.3C11.5726 129.3 9.72607 127.453 9.72607 125.176C9.72607 122.898 11.5726 121.051 13.85 121.051C16.1281 121.051 17.9739 122.898 17.9739 125.176Z" fill="white"/>
<path d="M17.9739 138.53C17.9739 140.808 16.1281 142.653 13.85 142.653C11.5726 142.653 9.72607 140.808 9.72607 138.53C9.72607 136.252 11.5726 134.406 13.85 134.406C16.1281 134.406 17.9739 136.252 17.9739 138.53Z" fill="white"/>
<path d="M17.9739 151.884C17.9739 154.161 16.1281 156.008 13.85 156.008C11.5726 156.008 9.72607 154.161 9.72607 151.884C9.72607 149.606 11.5726 147.76 13.85 147.76C16.1281 147.76 17.9739 149.606 17.9739 151.884Z" fill="white"/>
<path d="M135.875 86.2921H27.9318C27.3363 86.2921 26.8496 85.8061 26.8496 85.2106V85.0178C26.8496 84.423 27.3363 83.9356 27.9318 83.9356H135.875C136.471 83.9356 136.958 84.423 136.958 85.0178V85.2106C136.958 85.8061 136.471 86.2921 135.875 86.2921Z" fill="white"/>
<path d="M135.875 99.6461H27.9318C27.3363 99.6461 26.8496 99.1594 26.8496 98.5639V98.3718C26.8496 97.7763 27.3363 97.2889 27.9318 97.2889H135.875C136.471 97.2889 136.958 97.7763 136.958 98.3718V98.5639C136.958 99.1594 136.471 99.6461 135.875 99.6461Z" fill="white"/>
<path d="M135.875 113.001H27.9318C27.3363 113.001 26.8496 112.513 26.8496 111.918V111.726C26.8496 111.13 27.3363 110.644 27.9318 110.644H135.875C136.471 110.644 136.958 111.13 136.958 111.726V111.918C136.958 112.513 136.471 113.001 135.875 113.001Z" fill="white"/>
<path d="M135.875 126.354H27.9318C27.3363 126.354 26.8496 125.867 26.8496 125.272V125.079C26.8496 124.485 27.3363 123.998 27.9318 123.998H135.875C136.471 123.998 136.958 124.485 136.958 125.079V125.272C136.958 125.867 136.471 126.354 135.875 126.354Z" fill="white"/>
<path d="M135.875 139.708H27.9315C27.336 139.708 26.8486 139.221 26.8486 138.626V138.434C26.8486 137.839 27.336 137.351 27.9315 137.351H135.875C136.471 137.351 136.957 137.839 136.957 138.434V138.626C136.957 139.221 136.471 139.708 135.875 139.708Z" fill="white"/>
<path d="M135.875 153.061H27.9315C27.336 153.061 26.8486 152.575 26.8486 151.979V151.788C26.8486 151.192 27.336 150.706 27.9315 150.706H135.875C136.471 150.706 136.957 151.192 136.957 151.788V151.979C136.957 152.575 136.471 153.061 135.875 153.061Z" fill="white"/>
<path d="M227.28 153.061H214.459V144.924C214.459 144.543 214.417 144.172 214.339 143.815H226.404C227.075 143.815 227.619 143.267 227.619 142.598V142.381C227.619 141.712 227.075 141.164 226.404 141.164H212.729C211.867 140.425 210.744 139.98 209.514 139.98H149.341V43.5787C149.341 38.9172 153.156 35.102 157.818 35.102H227.28C231.942 35.102 235.757 38.9172 235.757 43.5787V144.585C235.757 149.247 231.942 153.061 227.28 153.061Z" fill="#FEF6D9"/>
<path d="M197.598 46.9996H158.698C158.029 46.9996 157.48 46.4522 157.48 45.7818V45.5664C157.48 44.8967 158.029 44.3486 158.698 44.3486H197.598C198.269 44.3486 198.82 44.8967 198.82 45.5664V45.7818C198.82 46.4522 198.269 46.9996 197.598 46.9996Z" fill="#FABE2C"/>
<path d="M226.404 46.9996H203.475C202.804 46.9996 202.253 46.4522 202.253 45.7818V45.5664C202.253 44.8967 202.804 44.3486 203.475 44.3486H226.404C227.076 44.3486 227.619 44.8967 227.619 45.5664V45.7818C227.619 46.4522 227.076 46.9996 226.404 46.9996Z" fill="#FCD66A"/>
<path d="M169.442 55.7194H158.698C158.029 55.7194 157.48 55.1712 157.48 54.5015V54.2861C157.48 53.6157 158.029 53.0683 158.698 53.0683H169.442C170.111 53.0683 170.66 53.6157 170.66 54.2861V54.5015C170.66 55.1712 170.111 55.7194 169.442 55.7194Z" fill="#FABE2C"/>
<path d="M185.596 55.7194H174.85C174.18 55.7194 173.632 55.1712 173.632 54.5015V54.2861C173.632 53.6157 174.18 53.0683 174.85 53.0683H185.596C186.267 53.0683 186.811 53.6157 186.811 54.2861V54.5015C186.811 55.1712 186.267 55.7194 185.596 55.7194Z" fill="#FABE2C"/>
<path d="M226.404 55.7194H191.516C190.845 55.7194 190.301 55.1712 190.301 54.5015V54.2861C190.301 53.6157 190.845 53.0683 191.516 53.0683H226.404C227.076 53.0683 227.619 53.6157 227.619 54.2861V54.5015C227.619 55.1712 227.076 55.7194 226.404 55.7194Z" fill="#FCD66A"/>
<path d="M212.022 64.7528H158.698C158.029 64.7528 157.48 64.2053 157.48 63.535V63.3195C157.48 62.6492 158.029 62.1017 158.698 62.1017H212.022C212.693 62.1017 213.244 62.6492 213.244 63.3195V63.535C213.244 64.2053 212.693 64.7528 212.022 64.7528Z" fill="#FABE2C"/>
<path d="M226.405 64.7528H218.324C217.653 64.7528 217.102 64.2053 217.102 63.535V63.3195C217.102 62.6492 217.653 62.1017 218.324 62.1017H226.405C227.076 62.1017 227.62 62.6492 227.62 63.3195V63.535C227.62 64.2053 227.076 64.7528 226.405 64.7528Z" fill="#FCD66A"/>
<path d="M197.598 73.9823H158.698C158.029 73.9823 157.48 73.4348 157.48 72.7652V72.5491C157.48 71.8794 158.029 71.3312 158.698 71.3312H197.598C198.269 71.3312 198.82 71.8794 198.82 72.5491V72.7652C198.82 73.4348 198.269 73.9823 197.598 73.9823Z" fill="#FABE2C"/>
<path d="M226.404 73.9823H203.475C202.804 73.9823 202.253 73.4348 202.253 72.7652V72.5491C202.253 71.8794 202.804 71.3312 203.475 71.3312H226.404C227.076 71.3312 227.619 71.8794 227.619 72.5491V72.7652C227.619 73.4348 227.076 73.9823 226.404 73.9823Z" fill="#FCD66A"/>
<path d="M179.754 83.5074H158.698C158.029 83.5074 157.48 82.9593 157.48 82.2896V82.0728C157.48 81.4038 158.029 80.8563 158.698 80.8563H179.754C180.418 80.8563 180.969 81.4038 180.969 82.0728V82.2896C180.969 82.9593 180.418 83.5074 179.754 83.5074Z" fill="#FABE2C"/>
<path d="M226.404 83.5074H186.111C185.447 83.5074 184.896 82.9593 184.896 82.2896V82.0728C184.896 81.4038 185.447 80.8563 186.111 80.8563H226.404C227.075 80.8563 227.619 81.4038 227.619 82.0728V82.2896C227.619 82.9593 227.075 83.5074 226.404 83.5074Z" fill="#FCD66A"/>
<path d="M168.559 93.5219H158.698C158.029 93.5219 157.48 92.9744 157.48 92.3054V92.0886C157.48 91.4189 158.029 90.8715 158.698 90.8715H168.559C169.228 90.8715 169.776 91.4189 169.776 92.0886V92.3054C169.776 92.9744 169.228 93.5219 168.559 93.5219Z" fill="#FABE2C"/>
<path d="M203.517 93.5219H174.932C174.262 93.5219 173.715 92.9744 173.715 92.3054V92.0886C173.715 91.4189 174.262 90.8715 174.932 90.8715H203.517C204.181 90.8715 204.732 91.4189 204.732 92.0886V92.3054C204.732 92.9744 204.181 93.5219 203.517 93.5219Z" fill="#FABE2C"/>
<path d="M226.404 93.5219H209.486C208.815 93.5219 208.264 92.9744 208.264 92.3054V92.0886C208.264 91.4189 208.815 90.8715 209.486 90.8715H226.404C227.075 90.8715 227.619 91.4189 227.619 92.0886V92.3054C227.619 92.9744 227.075 93.5219 226.404 93.5219Z" fill="#FCD66A"/>
<path d="M213.718 104.245H158.698C158.029 104.245 157.48 103.698 157.48 103.028V102.811C157.48 102.142 158.029 101.594 158.698 101.594H213.718C214.389 101.594 214.94 102.142 214.94 102.811V103.028C214.94 103.698 214.389 104.245 213.718 104.245Z" fill="#FABE2C"/>
<path d="M226.404 104.245H219.432C218.761 104.245 218.217 103.698 218.217 103.028V102.811C218.217 102.142 218.761 101.594 219.432 101.594H226.404C227.075 101.594 227.619 102.142 227.619 102.811V103.028C227.619 103.698 227.075 104.245 226.404 104.245Z" fill="#FCD66A"/>
<path d="M197.598 114.359H158.698C158.029 114.359 157.48 113.811 157.48 113.141V112.924C157.48 112.255 158.029 111.708 158.698 111.708H197.598C198.269 111.708 198.82 112.255 198.82 112.924V113.141C198.82 113.811 198.269 114.359 197.598 114.359Z" fill="#FABE2C"/>
<path d="M226.404 114.359H203.475C202.804 114.359 202.253 113.811 202.253 113.141V112.924C202.253 112.255 202.804 111.708 203.475 111.708H226.404C227.076 111.708 227.619 112.255 227.619 112.924V113.141C227.619 113.811 227.076 114.359 226.404 114.359Z" fill="#FCD66A"/>
<path d="M185.646 124.178H158.698C158.029 124.178 157.48 123.63 157.48 122.96V122.744C157.48 122.074 158.029 121.526 158.698 121.526H185.646C186.31 121.526 186.861 122.074 186.861 122.744V122.96C186.861 123.63 186.31 124.178 185.646 124.178Z" fill="#FABE2C"/>
<path d="M226.404 124.178H191.615C190.944 124.178 190.393 123.63 190.393 122.96V122.744C190.393 122.074 190.944 121.526 191.615 121.526H226.404C227.075 121.526 227.619 122.074 227.619 122.744V122.96C227.619 123.63 227.075 124.178 226.404 124.178Z" fill="#FCD66A"/>
<path d="M171.635 133.899H158.698C158.029 133.899 157.48 133.35 157.48 132.681V132.465C157.48 131.795 158.029 131.247 158.698 131.247H171.635C172.305 131.247 172.852 131.795 172.852 132.465V132.681C172.852 133.35 172.305 133.899 171.635 133.899Z" fill="#FABE2C"/>
<path d="M226.404 133.899H203.475C202.804 133.899 202.253 133.35 202.253 132.681V132.465C202.253 131.795 202.804 131.247 203.475 131.247H226.404C227.076 131.247 227.619 131.795 227.619 132.465V132.681C227.619 133.35 227.076 133.899 226.404 133.899Z" fill="#FCD66A"/>
<path d="M197.597 133.899H177.55C176.88 133.899 176.333 133.35 176.333 132.681V132.465C176.333 131.795 176.88 131.247 177.55 131.247H197.597C198.268 131.247 198.82 131.795 198.82 132.465V132.681C198.82 133.35 198.268 133.899 197.597 133.899Z" fill="#FCD66A"/>
<path d="M190.294 143.816H158.698C158.029 143.816 157.48 143.267 157.48 142.598V142.382C157.48 141.712 158.029 141.164 158.698 141.164H190.294C190.958 141.164 191.509 141.712 191.509 142.382V142.598C191.509 143.267 190.958 143.816 190.294 143.816Z" fill="#FABE2C"/>
<path d="M226.404 143.816H196.263C195.591 143.816 195.041 143.267 195.041 142.598V142.382C195.041 141.712 195.591 141.164 196.263 141.164H226.404C227.075 141.164 227.619 141.712 227.619 142.382V142.598C227.619 143.267 227.075 143.816 226.404 143.816Z" fill="#FCD66A"/>
<path d="M214.459 163.634H128.419V153.061H135.875C136.47 153.061 136.957 152.575 136.957 151.979V151.788C136.957 151.192 136.47 150.706 135.875 150.706H128.419V144.924C128.419 142.205 130.645 139.98 133.364 139.98H149.341V144.585C149.341 149.247 153.156 153.061 157.818 153.061H214.459V163.634Z" fill="#FCD570"/>
<path d="M135.875 153.061H128.419V150.706H135.875C136.47 150.706 136.957 151.192 136.957 151.788V151.979C136.957 152.575 136.47 153.061 135.875 153.061Z" fill="#FDE19A"/>
<path d="M214.459 153.061H157.818C153.156 153.061 149.341 149.247 149.341 144.585V139.98H209.514C210.744 139.98 211.867 140.425 212.729 141.164H196.263C195.592 141.164 195.041 141.712 195.041 142.381V142.598C195.041 143.267 195.592 143.815 196.263 143.815H214.339C214.417 144.172 214.459 144.543 214.459 144.924V153.061ZM158.697 141.164C158.029 141.164 157.48 141.712 157.48 142.381V142.598C157.48 143.267 158.029 143.815 158.697 143.815H190.294C190.958 143.815 191.509 143.267 191.509 142.598V142.381C191.509 141.712 190.958 141.164 190.294 141.164H158.697Z" fill="#FCDB85"/>
<path d="M190.294 143.816H158.698C158.029 143.816 157.48 143.267 157.48 142.598V142.382C157.48 141.712 158.029 141.164 158.698 141.164H190.294C190.958 141.164 191.509 141.712 191.509 142.382V142.598C191.509 143.267 190.958 143.816 190.294 143.816Z" fill="#FBC037"/>
<path d="M214.339 143.816H196.263C195.591 143.816 195.041 143.267 195.041 142.598V142.382C195.041 141.712 195.591 141.164 196.263 141.164H212.728C213.52 141.841 214.099 142.764 214.339 143.816Z" fill="#FBCC53"/>
<path d="M204.379 194.04H137.661C135.176 194.04 133.143 192.394 133.143 190.383V148.488C133.143 146.477 135.176 144.831 137.661 144.831H204.379C206.866 144.831 208.9 146.477 208.9 148.488V190.383C208.9 192.394 206.866 194.04 204.379 194.04Z" fill="#F3E4F4"/>
<path d="M208.9 155.694H133.143V149.349C133.143 146.863 135.176 144.83 137.661 144.83H204.379C206.866 144.83 208.9 146.863 208.9 149.349V155.694Z" fill="#B68FCE"/>
<path d="M142.708 150.263C142.708 151.444 141.75 152.401 140.569 152.401C139.388 152.401 138.43 151.444 138.43 150.263C138.43 149.081 139.388 148.123 140.569 148.123C141.75 148.123 142.708 149.081 142.708 150.263Z" fill="#7B5BB3"/>
<path d="M149.341 150.263C149.341 151.444 148.383 152.401 147.202 152.401C146.021 152.401 145.063 151.444 145.063 150.263C145.063 149.081 146.021 148.123 147.202 148.123C148.383 148.123 149.341 149.081 149.341 150.263Z" fill="#7B5BB3"/>
<path d="M156.07 150.263C156.07 151.444 155.113 152.401 153.932 152.401C152.75 152.401 151.792 151.444 151.792 150.263C151.792 149.081 152.75 148.123 153.932 148.123C155.113 148.123 156.07 149.081 156.07 150.263Z" fill="#7B5BB3"/>
</svg>
