<svg width="155" height="43" viewBox="0 0 155 43" fill="none" xmlns="http://www.w3.org/2000/svg">
<path d="M150.037 9.94082H155V30.5488C155 32.5115 154.706 34.1658 154.117 35.5116C153.556 36.8574 152.827 37.9509 151.93 38.7921C151.061 39.6612 150.121 40.3482 149.112 40.8529C147.374 41.722 145.411 42.2127 143.224 42.3249C141.009 42.3249 139.144 42.1006 137.63 41.6519C136.144 41.2033 134.939 40.6986 134.013 40.1379C132.948 39.465 132.093 38.722 131.448 37.9089L135.822 33.9975C136.327 34.4461 136.929 34.8527 137.63 35.2172C138.275 35.5256 139.046 35.806 139.943 36.0583C140.869 36.3107 141.962 36.4368 143.224 36.4368C144.149 36.3808 145.004 36.1985 145.789 35.8901C146.434 35.6097 147.065 35.1611 147.682 34.5443C148.327 33.9555 148.761 33.1003 148.986 31.9788C148.117 32.4554 147.205 32.834 146.252 33.1143C145.299 33.3667 144.289 33.4928 143.224 33.4928C141.598 33.4928 140.07 33.1844 138.64 32.5676C137.21 31.9508 135.962 31.1096 134.897 30.0442C133.831 28.9787 132.99 27.731 132.373 26.3011C131.756 24.8711 131.448 23.343 131.448 21.7168C131.448 20.0906 131.756 18.5625 132.373 17.1326C132.99 15.7027 133.831 14.455 134.897 13.3895C135.962 12.3241 137.21 11.4829 138.64 10.8661C140.07 10.2492 141.598 9.94082 143.224 9.94082C144.289 9.94082 145.313 10.081 146.294 10.3614C147.303 10.6418 148.243 11.0343 149.112 11.539V11.1184L150.037 9.94082ZM143.224 27.6048C144.037 27.6048 144.794 27.4506 145.495 27.1422C146.224 26.8338 146.855 26.4132 147.388 25.8805C147.92 25.3478 148.341 24.7309 148.649 24.03C148.958 23.301 149.112 22.5299 149.112 21.7168C149.112 20.9037 148.958 20.1467 148.649 19.4457C148.341 18.7168 147.92 18.0859 147.388 17.5532C146.855 17.0204 146.224 16.5999 145.495 16.2915C144.794 15.983 144.037 15.8288 143.224 15.8288C142.411 15.8288 141.64 15.983 140.911 16.2915C140.21 16.5999 139.593 17.0204 139.06 17.5532C138.528 18.0859 138.107 18.7168 137.799 19.4457C137.49 20.1467 137.336 20.9037 137.336 21.7168C137.336 22.5299 137.49 23.301 137.799 24.03C138.107 24.7309 138.528 25.3478 139.06 25.8805C139.593 26.4132 140.21 26.8338 140.911 27.1422C141.64 27.4506 142.411 27.6048 143.224 27.6048Z" fill="#FEFFFF"/>
<path d="M120.284 9.94082C121.687 9.94082 122.999 10.2204 124.219 10.7796C125.466 11.3121 126.557 12.0577 127.492 13.0163C128.427 13.9748 129.155 15.0932 129.674 16.3713C130.22 17.6227 130.492 18.9674 130.492 20.4053V32.3076H125.038V20.4053C125.038 19.7396 124.908 19.1139 124.648 18.5281C124.414 17.9156 124.077 17.3964 123.635 16.9704C123.219 16.5177 122.713 16.1716 122.115 15.9319C121.544 15.6656 120.934 15.5325 120.284 15.5325C119.635 15.5325 119.012 15.6656 118.414 15.9319C117.843 16.1716 117.336 16.5177 116.895 16.9704C116.453 17.3964 116.102 17.9156 115.843 18.5281C115.609 19.1139 115.492 19.7396 115.492 20.4053V32.3076H110.037V9.94082H114.635L115.492 11.0592V11.139C116.219 10.7663 116.972 10.4734 117.752 10.2603C118.557 10.0473 119.401 9.94082 120.284 9.94082Z" fill="white"/>
<path d="M98.7735 10.6099V32.0208L104.661 32.0208V10.6099H98.7735Z" fill="#FEFFFF"/>
<path d="M105.25 4.58424C105.25 5.56557 104.9 6.40672 104.199 7.10767C103.526 7.78059 102.699 8.11704 101.717 8.11704C100.736 8.11704 99.8948 7.78059 99.1938 7.10767C98.5209 6.40672 98.1844 5.56557 98.1844 4.58424C98.1844 3.60291 98.5209 2.77578 99.1938 2.10286C99.8948 1.40191 100.736 1.05143 101.717 1.05143C102.699 1.05143 103.526 1.40191 104.199 2.10286C104.9 2.77578 105.25 3.60291 105.25 4.58424Z" fill="#8920EC"/>
<path d="M88.2916 0H94.17V32.6899H88.2916V31.0767C87.4238 31.5861 86.486 31.9824 85.4783 32.2654C84.4986 32.5484 83.4768 32.6899 82.4131 32.6899C80.7895 32.6899 79.2639 32.3786 77.8363 31.7559C76.4087 31.1333 75.163 30.2842 74.0993 29.2087C73.0356 28.1332 72.1958 26.8737 71.58 25.4302C70.9641 23.9868 70.6562 22.4443 70.6562 20.8027C70.6562 19.1611 70.9641 17.6186 71.58 16.1751C72.1958 14.7317 73.0356 13.4722 74.0993 12.3967C75.163 11.3212 76.4087 10.4721 77.8363 9.84943C79.2639 9.22677 80.7895 8.91544 82.4131 8.91544C83.4768 8.91544 84.4986 9.05695 85.4783 9.33998C86.486 9.62301 87.4238 10.0193 88.2916 10.5287V0ZM82.4131 26.7463C83.2249 26.7463 83.9807 26.5906 84.6805 26.2793C85.4083 25.968 86.0382 25.5434 86.57 25.0057C87.1019 24.4679 87.5218 23.8452 87.8297 23.1377C88.1376 22.4018 88.2916 21.6235 88.2916 20.8027C88.2916 19.9819 88.1376 19.2177 87.8297 18.5101C87.5218 17.7743 87.1019 17.1374 86.57 16.5997C86.0382 16.0619 85.4083 15.6374 84.6805 15.3261C83.9807 15.0147 83.2249 14.8591 82.4131 14.8591C81.6013 14.8591 80.8315 15.0147 80.1037 15.3261C79.4039 15.6374 78.7881 16.0619 78.2562 16.5997C77.7244 17.1374 77.3045 17.7743 76.9965 18.5101C76.6886 19.2177 76.5347 19.9819 76.5347 20.8027C76.5347 21.6235 76.6886 22.4018 76.9965 23.1377C77.3045 23.8452 77.7244 24.4679 78.2562 25.0057C78.7881 25.5434 79.4039 25.968 80.1037 26.2793C80.8315 26.5906 81.6013 26.7463 82.4131 26.7463Z" fill="#FEFFFF"/>
<path d="M58.3453 9.94082C59.748 9.94082 61.0597 10.2204 62.2805 10.7796C63.5273 11.3121 64.6182 12.0577 65.5533 13.0163C66.4884 13.9748 67.2157 15.0932 67.7352 16.3713C68.2807 17.6227 68.5534 18.9674 68.5534 20.4053V32.3076H63.0987V20.4053C63.0987 19.7396 62.9688 19.1139 62.7091 18.5281C62.4753 17.9156 62.1377 17.3964 61.6961 16.9704C61.2805 16.5177 60.774 16.1716 60.1766 15.9319C59.6051 15.6656 58.9947 15.5325 58.3453 15.5325C57.696 15.5325 57.0726 15.6656 56.4752 15.9319C55.9037 16.1716 55.3972 16.5177 54.9556 16.9704C54.5141 17.3964 54.1634 17.9156 53.9037 18.5281C53.6699 19.1139 53.553 19.7396 53.553 20.4053V32.3076H48.0983V9.94082H52.6958L53.553 11.0592V11.139C54.2803 10.7663 55.0336 10.4734 55.8128 10.2603C56.618 10.0473 57.4622 9.94082 58.3453 9.94082Z" fill="#FEFFFF"/>
<path d="M34.4296 9.36732C36.0268 9.36732 37.5276 9.66772 38.932 10.2685C40.3364 10.8694 41.5618 11.6887 42.6082 12.7264C43.6547 13.7642 44.4808 14.9795 45.0866 16.3723C45.6924 17.7651 45.9954 19.2535 45.9954 20.8375C45.9954 22.4214 45.6924 23.9098 45.0866 25.3026C44.4808 26.6954 43.6547 27.9107 42.6082 28.9485C41.5618 29.9863 40.3364 30.8056 38.932 31.4064C37.5276 32.0072 36.0268 32.3076 34.4296 32.3076C32.8324 32.3076 31.3317 32.0072 29.9272 31.4064C28.5228 30.8056 27.2974 29.9863 26.251 28.9485C25.2046 27.9107 24.3784 26.6954 23.7726 25.3026C23.1668 23.9098 22.8639 22.4214 22.8639 20.8375C22.8639 19.2535 23.1668 17.7651 23.7726 16.3723C24.3784 14.9795 25.2046 13.7642 26.251 12.7264C27.2974 11.6887 28.5228 10.8694 29.9272 10.2685C31.3317 9.66772 32.8324 9.36732 34.4296 9.36732ZM34.4296 26.5725C35.2282 26.5725 35.9717 26.4223 36.6602 26.1219C37.3761 25.8215 37.9957 25.4119 38.5189 24.893C39.0421 24.3741 39.4552 23.7733 39.7581 23.0905C40.061 22.3805 40.2125 21.6294 40.2125 20.8375C40.2125 20.0455 40.061 19.3081 39.7581 18.6254C39.4552 17.9153 39.0421 17.3008 38.5189 16.7819C37.9957 16.2631 37.3761 15.8534 36.6602 15.553C35.9717 15.2526 35.2282 15.1024 34.4296 15.1024C33.631 15.1024 32.8737 15.2526 32.1578 15.553C31.4693 15.8534 30.8635 16.2631 30.3403 16.7819C29.8171 17.3008 29.404 17.9153 29.1011 18.6254C28.7982 19.3081 28.6467 20.0455 28.6467 20.8375C28.6467 21.6294 28.7982 22.3805 29.1011 23.0905C29.404 23.7733 29.8171 24.3741 30.3403 24.893C30.8635 25.4119 31.4693 25.8215 32.1578 26.1219C32.8737 26.4223 33.631 26.5725 34.4296 26.5725Z" fill="#FEFFFF"/>
<path d="M18.9678 15.6835C19.9772 16.4966 20.7482 17.478 21.2809 18.6275C21.8137 19.7771 22.08 21.0108 22.08 22.3286C22.08 23.6744 21.8137 24.894 21.2809 25.9875C20.7763 27.081 20.0893 28.0063 19.2201 28.7633C18.351 29.5203 17.3416 30.1091 16.192 30.5297C15.0425 30.9503 13.8228 31.1606 12.533 31.1606H0V1.72051H11.061C12.3508 1.72051 13.5705 1.9308 14.72 2.35137C15.8696 2.77194 16.879 3.36075 17.7481 4.11778C18.6173 4.8748 19.3043 5.80006 19.8089 6.89355C20.3417 7.98704 20.608 9.2067 20.608 10.5525C20.608 11.4778 20.4678 12.389 20.1875 13.2862C19.9351 14.1554 19.5286 14.9545 18.9678 15.6835ZM5.88801 7.60853V13.4965H11.061C11.8742 13.4965 12.5611 13.2162 13.1218 12.6554C13.7107 12.0666 14.0051 11.3656 14.0051 10.5525C14.0051 9.73942 13.7107 9.05249 13.1218 8.49172C12.5611 7.90292 11.8742 7.60853 11.061 7.60853H5.88801ZM12.533 25.2726C13.3462 25.2726 14.0331 24.9922 14.5939 24.4314C15.1827 23.8426 15.4771 23.1417 15.4771 22.3286C15.4771 21.5154 15.1827 20.8285 14.5939 20.2677C14.0331 19.6789 13.3462 19.3845 12.533 19.3845H5.88801V25.2726H12.533Z" fill="#FEFFFF"/>
</svg>
