<svg width="64" height="64" viewBox="0 0 64 64" fill="none" xmlns="http://www.w3.org/2000/svg">
<rect width="64" height="64" rx="5" fill="#011132"/>
<path d="M48.08 30.7143C50 32.0952 51.4667 33.7619 52.48 35.7143C53.4933 37.6667 54 39.7619 54 42C54 44.2857 53.4933 46.3571 52.48 48.2143C51.52 50.0714 50.2133 51.6429 48.56 52.9286C46.9067 54.2143 44.9867 55.2143 42.8 55.9286C40.6133 56.6429 38.2933 57 35.84 57H12V7H33.04C35.4933 7 37.8133 7.35714 40 8.07143C42.1867 8.78571 44.1067 9.78572 45.76 11.0714C47.4133 12.3571 48.72 13.9286 49.68 15.7857C50.6933 17.6429 51.2 19.7143 51.2 22C51.2 23.5714 50.9333 25.119 50.4 26.6429C49.92 28.119 49.1467 29.4762 48.08 30.7143ZM23.2 17V27H33.04C34.5867 27 35.8933 26.5238 36.96 25.5714C38.08 24.5714 38.64 23.381 38.64 22C38.64 20.619 38.08 19.4524 36.96 18.5C35.8933 17.5 34.5867 17 33.04 17H23.2ZM35.84 47C37.3867 47 38.6933 46.5238 39.76 45.5714C40.88 44.5714 41.44 43.381 41.44 42C41.44 40.6191 40.88 39.4524 39.76 38.5C38.6933 37.5 37.3867 37 35.84 37H23.2V47H35.84Z" fill="#FEFFFF"/>
</svg>
