<svg width="25" height="25" viewBox="0 0 25 25" fill="none" xmlns="http://www.w3.org/2000/svg">
<g clip-path="url(#clip0_472_15)">
<path d="M18.2665 0.411987H2.21408C1.41865 0.411987 0.771545 1.05914 0.771545 1.85452V22.9694C0.771545 23.7648 1.41865 24.412 2.21408 24.412H18.2665C19.0619 24.412 19.709 23.7648 19.709 22.9695V1.85452C19.709 1.05914 19.0619 0.411987 18.2665 0.411987ZM18.7715 22.9695C18.7715 23.2479 18.545 23.4745 18.2665 23.4745H2.21408C1.93559 23.4745 1.70905 23.2479 1.70905 22.9695V1.85452C1.70905 1.57603 1.93559 1.34949 2.21408 1.34949H18.2665C18.545 1.34949 18.7715 1.57603 18.7715 1.85452V22.9695Z" fill="white"/>
<path d="M16.709 7.06824H9.77155C9.51265 7.06824 9.3028 7.27814 9.3028 7.53699C9.3028 7.79583 9.51265 8.00574 9.77155 8.00574H16.709C16.9679 8.00574 17.1778 7.79583 17.1778 7.53699C17.1778 7.27814 16.9679 7.06824 16.709 7.06824Z" fill="white"/>
<path d="M9.77155 5.00574H12.8745C13.1334 5.00574 13.3433 4.79583 13.3433 4.53699C13.3433 4.27814 13.1334 4.06824 12.8745 4.06824H9.77155C9.51265 4.06824 9.3028 4.27814 9.3028 4.53699C9.3028 4.79583 9.51265 5.00574 9.77155 5.00574Z" fill="white"/>
<path d="M16.7091 4.06824H15.0372C14.7783 4.06824 14.5684 4.27814 14.5684 4.53699C14.5684 4.79583 14.7783 5.00574 15.0372 5.00574H16.7091C16.968 5.00574 17.1778 4.79583 17.1778 4.53699C17.1778 4.27814 16.968 4.06824 16.7091 4.06824Z" fill="white"/>
<path d="M16.709 13.4432H9.77155C9.51265 13.4432 9.3028 13.6531 9.3028 13.912C9.3028 14.1708 9.51265 14.3807 9.77155 14.3807H16.709C16.9679 14.3807 17.1778 14.1708 17.1778 13.912C17.1778 13.6531 16.9679 13.4432 16.709 13.4432Z" fill="white"/>
<path d="M9.77155 11.3807H12.8745C13.1334 11.3807 13.3433 11.1708 13.3433 10.912C13.3433 10.6531 13.1334 10.4432 12.8745 10.4432H9.77155C9.51265 10.4432 9.3028 10.6531 9.3028 10.912C9.3028 11.1708 9.51265 11.3807 9.77155 11.3807Z" fill="white"/>
<path d="M16.7091 10.4432H15.0372C14.7783 10.4432 14.5684 10.6531 14.5684 10.912C14.5684 11.1708 14.7783 11.3807 15.0372 11.3807H16.7091C16.968 11.3807 17.1778 11.1708 17.1778 10.912C17.1778 10.6531 16.968 10.4432 16.7091 10.4432Z" fill="white"/>
<path d="M16.709 19.8182H9.77155C9.51265 19.8182 9.3028 20.0281 9.3028 20.287C9.3028 20.5458 9.51265 20.7557 9.77155 20.7557H16.709C16.9679 20.7557 17.1778 20.5458 17.1778 20.287C17.1778 20.0281 16.9679 19.8182 16.709 19.8182Z" fill="white"/>
<path d="M9.77155 17.7557H12.8745C13.1334 17.7557 13.3433 17.5458 13.3433 17.287C13.3433 17.0281 13.1334 16.8182 12.8745 16.8182H9.77155C9.51265 16.8182 9.3028 17.0281 9.3028 17.287C9.3028 17.5458 9.51265 17.7557 9.77155 17.7557Z" fill="white"/>
<path d="M16.7091 16.8182H15.0372C14.7783 16.8182 14.5684 17.0281 14.5684 17.287C14.5684 17.5458 14.7783 17.7557 15.0372 17.7557H16.7091C16.968 17.7557 17.1778 17.5458 17.1778 17.287C17.1778 17.0281 16.968 16.8182 16.7091 16.8182Z" fill="white"/>
<path d="M6.44104 5.18599L4.75298 6.87405L4.10395 6.22502C3.9209 6.04202 3.62409 6.04202 3.441 6.22502C3.25795 6.40807 3.25795 6.70488 3.441 6.88798L4.42148 7.86846C4.51303 7.95996 4.63298 8.00576 4.75293 8.00576C4.87289 8.00576 4.99289 7.95996 5.08439 7.86846L7.1039 5.84894C7.28695 5.6659 7.28695 5.36908 7.1039 5.18599C6.92095 5.00294 6.62409 5.00294 6.44104 5.18599Z" fill="white"/>
<path d="M7.10297 10.5805C6.91993 10.3975 6.62311 10.3975 6.44002 10.5805L5.27152 11.749L4.10297 10.5805C3.91993 10.3975 3.62311 10.3975 3.44002 10.5805C3.25697 10.7635 3.25697 11.0603 3.44002 11.2434L4.60857 12.412L3.44002 13.5805C3.25697 13.7636 3.25697 14.0604 3.44002 14.2435C3.53157 14.3349 3.65157 14.3807 3.77152 14.3807C3.89147 14.3807 4.01147 14.3349 4.10297 14.2434L5.27152 13.0749L6.44007 14.2435C6.53161 14.335 6.65157 14.3808 6.77152 14.3808C6.89147 14.3808 7.01147 14.335 7.10297 14.2435C7.28602 14.0604 7.28602 13.7636 7.10297 13.5805L5.93447 12.412L7.10302 11.2434C7.28602 11.0604 7.28602 10.7636 7.10297 10.5805Z" fill="white"/>
<path d="M7.10297 16.9555C6.91993 16.7725 6.62311 16.7725 6.44002 16.9555L5.27152 18.124L4.10297 16.9555C3.91993 16.7725 3.62311 16.7725 3.44002 16.9555C3.25697 17.1385 3.25697 17.4353 3.44002 17.6184L4.60857 18.787L3.44002 19.9555C3.25697 20.1386 3.25697 20.4354 3.44002 20.6185C3.53157 20.7099 3.65157 20.7557 3.77152 20.7557C3.89147 20.7557 4.01147 20.7099 4.10297 20.6184L5.27152 19.4499L6.44007 20.6185C6.53161 20.71 6.65157 20.7558 6.77152 20.7558C6.89147 20.7558 7.01147 20.71 7.10297 20.6185C7.28602 20.4354 7.28602 20.1386 7.10297 19.9555L5.93447 18.787L7.10302 17.6184C7.28602 17.4354 7.28602 17.1386 7.10297 16.9555Z" fill="white"/>
<path d="M22.9903 2.94324C22.0081 2.94324 21.209 3.74232 21.209 4.72449V11.5682C21.209 11.8271 21.4189 12.037 21.6778 12.037C21.9367 12.037 22.1465 11.8271 22.1465 11.5682V6.21277H23.834V20.5643H22.1465V15.787C22.1465 15.5281 21.9367 15.3182 21.6778 15.3182C21.4189 15.3182 21.209 15.5281 21.209 15.787V21.0331C21.209 21.0996 21.2232 21.1652 21.2505 21.2258L22.563 24.1359C22.6388 24.3039 22.806 24.412 22.9903 24.412C23.1746 24.412 23.3418 24.3039 23.4176 24.1359L24.7301 21.2258C24.7574 21.1652 24.7715 21.0996 24.7715 21.0331V4.72449C24.7715 3.74232 23.9725 2.94324 22.9903 2.94324ZM22.1465 5.27527V4.72449C22.1465 4.25925 22.5251 3.88074 22.9903 3.88074C23.4555 3.88074 23.834 4.25925 23.834 4.72449V5.27527H22.1465ZM22.9903 22.8031L22.4034 21.5018H23.5772L22.9903 22.8031Z" fill="white"/>
<path d="M21.6778 14.1464C21.8011 14.1464 21.922 14.0962 22.0092 14.009C22.0964 13.9218 22.1465 13.8009 22.1465 13.6776C22.1465 13.5538 22.0964 13.4334 22.0092 13.3462C21.922 13.259 21.8011 13.2089 21.6778 13.2089C21.5545 13.2089 21.4336 13.259 21.3464 13.3462C21.2592 13.4334 21.209 13.5543 21.209 13.6776C21.209 13.8009 21.2592 13.9218 21.3464 14.009C21.4336 14.0962 21.5545 14.1464 21.6778 14.1464Z" fill="white"/>
</g>
<defs>
<clipPath id="clip0_472_15">
<rect width="24" height="24" fill="white" transform="translate(0.771545 0.411987)"/>
</clipPath>
</defs>
</svg>
