<svg width="24" height="24" viewBox="0 0 24 24" fill="none" xmlns="http://www.w3.org/2000/svg">
<g clip-path="url(#clip0_361_6358)">
<path d="M2.7638 8.79129C2.83228 8.85977 2.92219 8.89419 3.01209 8.89419C3.102 8.89419 3.1919 8.85995 3.26057 8.79129C3.39771 8.65414 3.39771 8.43167 3.26057 8.29452L2.40766 7.44161L3.26057 6.58888C3.39771 6.45156 3.39771 6.22926 3.26057 6.09212C3.12342 5.95497 2.90095 5.95497 2.7638 6.09212L1.6626 7.19332C1.59668 7.25924 1.55969 7.34859 1.55969 7.44161C1.55969 7.53481 1.59668 7.62417 1.6626 7.69009L2.7638 8.79129Z" fill="white"/>
<path d="M6.24939 7.44155L5.39648 8.29446C5.25933 8.4316 5.25933 8.65408 5.39666 8.79123C5.46514 8.85971 5.55505 8.89413 5.64495 8.89413C5.73486 8.89413 5.82476 8.85971 5.89324 8.79123L6.99463 7.68984C7.13177 7.55269 7.13177 7.33022 6.99463 7.19326L5.89324 6.09187C5.7561 5.95473 5.53381 5.95473 5.39666 6.09187C5.25933 6.2292 5.25933 6.45149 5.39666 6.58864L6.24939 7.44155Z" fill="white"/>
<path d="M3.80497 8.86986C3.84708 8.88634 3.89066 8.89421 3.93332 8.89421C4.07358 8.89421 4.20597 8.80962 4.26035 8.67137L5.12553 6.46879C5.19657 6.28824 5.10758 6.08445 4.92704 6.0134C4.74668 5.94254 4.5427 6.03135 4.47184 6.21189L3.60648 8.41447C3.53562 8.59502 3.62442 8.799 3.80497 8.86986Z" fill="white"/>
<path d="M2.10974 10.9548H4.47602C4.66993 10.9548 4.82722 10.7975 4.82722 10.6034C4.82722 10.4095 4.66993 10.2522 4.47602 10.2522H2.10974C1.91565 10.2522 1.75854 10.4095 1.75854 10.6034C1.75854 10.7975 1.91565 10.9548 2.10974 10.9548Z" fill="white"/>
<path d="M9.92598 10.2522H5.76581C5.5719 10.2522 5.41461 10.4095 5.41461 10.6034C5.41461 10.7975 5.5719 10.9548 5.76581 10.9548H9.92598C10.1201 10.9548 10.2774 10.7975 10.2774 10.6034C10.2774 10.4095 10.1201 10.2522 9.92598 10.2522Z" fill="white"/>
<path d="M2.10974 12.4363H3.11774C3.31165 12.4363 3.46894 12.2791 3.46894 12.085C3.46894 11.8911 3.31165 11.7338 3.11774 11.7338H2.10974C1.91565 11.7338 1.75854 11.8911 1.75854 12.085C1.75854 12.2791 1.91565 12.4363 2.10974 12.4363Z" fill="white"/>
<path d="M8.64099 11.7338C8.4469 11.7338 8.28979 11.8911 8.28979 12.085C8.28979 12.2791 8.4469 12.4363 8.64099 12.4363H9.25476C9.44886 12.4363 9.60615 12.2791 9.60615 12.085C9.60615 11.8911 9.44886 11.7338 9.25476 11.7338H8.64099Z" fill="white"/>
<path d="M7.71645 12.085C7.71645 11.8911 7.55916 11.7338 7.36525 11.7338H4.35022C4.15613 11.7338 3.99902 11.8911 3.99902 12.085C3.99902 12.2791 4.15613 12.4363 4.35022 12.4363H7.36525C7.55916 12.4363 7.71645 12.2791 7.71645 12.085Z" fill="white"/>
<path d="M10.0174 12.085C10.0174 12.2791 10.1747 12.4363 10.3686 12.4363H11.5183C11.7124 12.4363 11.8697 12.2791 11.8697 12.085C11.8697 11.8911 11.7124 11.7338 11.5183 11.7338H10.3686C10.1747 11.7338 10.0174 11.8911 10.0174 12.085Z" fill="white"/>
<path d="M8.10443 7.72333H9.31714C9.51124 7.72333 9.66853 7.56604 9.66853 7.37195C9.66853 7.17804 9.51124 7.02075 9.31714 7.02075H8.10443C7.91034 7.02075 7.75305 7.17804 7.75305 7.37195C7.75305 7.56604 7.91034 7.72333 8.10443 7.72333Z" fill="white"/>
<path d="M10.6755 7.72333H18.075C18.2691 7.72333 18.4262 7.56604 18.4262 7.37195C18.4262 7.17804 18.2691 7.02075 18.075 7.02075H10.6755C10.4814 7.02075 10.3241 7.17804 10.3241 7.37195C10.3241 7.56604 10.4814 7.72333 10.6755 7.72333Z" fill="white"/>
<path d="M16.9511 8.56616H13.9536C13.7597 8.56616 13.6024 8.72345 13.6024 8.91754C13.6024 9.11145 13.7597 9.26874 13.9536 9.26874H16.9511C17.145 9.26874 17.3023 9.11145 17.3023 8.91754C17.3023 8.72345 17.145 8.56616 16.9511 8.56616Z" fill="white"/>
<path d="M12.8297 8.56616H11.7994C11.6053 8.56616 11.4482 8.72345 11.4482 8.91754C11.4482 9.11145 11.6053 9.26874 11.7994 9.26874H12.8297C13.0238 9.26874 13.1809 9.11145 13.1809 8.91754C13.1809 8.72345 13.0238 8.56616 12.8297 8.56616Z" fill="white"/>
<path d="M8.10443 9.26874H10.6286C10.8225 9.26874 10.9797 9.11145 10.9797 8.91754C10.9797 8.72345 10.8225 8.56616 10.6286 8.56616H8.10443C7.91034 8.56616 7.75305 8.72345 7.75305 8.91754C7.75305 9.11145 7.91034 9.26874 8.10443 9.26874Z" fill="white"/>
<path d="M7.36964 13.2029H5.00354C4.80945 13.2029 4.65216 13.3602 4.65216 13.5541C4.65216 13.748 4.80945 13.9053 5.00354 13.9053H7.36964C7.56355 13.9053 7.72084 13.748 7.72084 13.5541C7.72084 13.3602 7.56355 13.2029 7.36964 13.2029Z" fill="white"/>
<path d="M3.92762 13.2029H2.10974C1.91565 13.2029 1.75854 13.3602 1.75854 13.5541C1.75854 13.748 1.91565 13.9053 2.10974 13.9053H3.92762C4.12171 13.9053 4.27882 13.748 4.27882 13.5541C4.27882 13.3602 4.12171 13.2029 3.92762 13.2029Z" fill="white"/>
<path d="M11.6589 13.2029H8.56793C8.37384 13.2029 8.21674 13.3602 8.21674 13.5541C8.21674 13.748 8.37384 13.9053 8.56793 13.9053H11.6589C11.8529 13.9053 12.0101 13.748 12.0101 13.5541C12.0101 13.3602 11.8529 13.2029 11.6589 13.2029Z" fill="white"/>
<path d="M15.8391 11.3984H14.1488C13.9549 11.3984 13.7976 11.5557 13.7976 11.7496C13.7976 11.9437 13.9549 12.101 14.1488 12.101H15.8391C16.0332 12.101 16.1903 11.9437 16.1903 11.7496C16.1903 11.5557 16.0332 11.3984 15.8391 11.3984Z" fill="white"/>
<path d="M18.772 12.101H21.1581C21.3522 12.101 21.5095 11.9437 21.5095 11.7496C21.5095 11.5557 21.3522 11.3984 21.1581 11.3984H18.772C18.5779 11.3984 18.4208 11.5557 18.4208 11.7496C18.4208 11.9437 18.5781 12.101 18.772 12.101Z" fill="white"/>
<path d="M17.5789 11.3984H17.0322C16.8381 11.3984 16.6808 11.5557 16.6808 11.7496C16.6808 11.9437 16.8381 12.101 17.0322 12.101H17.5789C17.773 12.101 17.9301 11.9437 17.9301 11.7496C17.9301 11.5557 17.773 11.3984 17.5789 11.3984Z" fill="white"/>
<path d="M14.1488 15.9287H15.8391C16.0332 15.9287 16.1903 15.7716 16.1903 15.5775C16.1903 15.3836 16.0332 15.2263 15.8391 15.2263H14.1488C13.9549 15.2263 13.7976 15.3836 13.7976 15.5775C13.7976 15.7716 13.9549 15.9287 14.1488 15.9287Z" fill="white"/>
<path d="M18.772 15.9287H21.1581C21.3522 15.9287 21.5095 15.7716 21.5095 15.5775C21.5095 15.3836 21.3522 15.2263 21.1581 15.2263H18.772C18.5779 15.2263 18.4208 15.3836 18.4208 15.5775C18.4208 15.7716 18.5781 15.9287 18.772 15.9287Z" fill="white"/>
<path d="M17.0322 15.9287H17.5789C17.773 15.9287 17.9303 15.7716 17.9303 15.5775C17.9303 15.3836 17.773 15.2263 17.5789 15.2263H17.0322C16.8381 15.2263 16.681 15.3836 16.681 15.5775C16.681 15.7716 16.8381 15.9287 17.0322 15.9287Z" fill="white"/>
<path d="M15.8391 19.0542H14.1488C13.9549 19.0542 13.7976 19.2115 13.7976 19.4054C13.7976 19.5993 13.9549 19.7566 14.1488 19.7566H15.8391C16.0332 19.7566 16.1903 19.5993 16.1903 19.4054C16.1903 19.2115 16.0332 19.0542 15.8391 19.0542Z" fill="white"/>
<path d="M21.1581 19.0542H18.772C18.5779 19.0542 18.4208 19.2115 18.4208 19.4054C18.4208 19.5993 18.5779 19.7566 18.772 19.7566H21.1581C21.3522 19.7566 21.5095 19.5993 21.5095 19.4054C21.5095 19.2115 21.3522 19.0542 21.1581 19.0542Z" fill="white"/>
<path d="M17.5789 19.0542H17.0322C16.8381 19.0542 16.6808 19.2115 16.6808 19.4054C16.6808 19.5993 16.8381 19.7566 17.0322 19.7566H17.5789C17.773 19.7566 17.9301 19.5993 17.9301 19.4054C17.9301 19.2115 17.773 19.0542 17.5789 19.0542Z" fill="white"/>
<path d="M22.4543 0.046875H1.54597C0.693606 0.046875 0 0.740298 0 1.59284V18.5882C0 19.4406 0.693606 20.134 1.54597 20.134H2.86781C3.06172 20.134 3.21901 19.9769 3.21901 19.7828C3.21901 19.5889 3.06172 19.4316 2.86781 19.4316H1.54597C1.08088 19.4316 0.702578 19.0533 0.702578 18.5882V17.2557H13.4993V17.8611H13.2208C12.8398 17.8611 12.53 18.1709 12.53 18.552V19.4316H5.00338C4.80947 19.4316 4.65218 19.5889 4.65218 19.7828C4.65218 19.9769 4.80947 20.134 5.00338 20.134H8.38059V21.3938H7.32004C6.61251 21.3938 6.03701 21.9694 6.03701 22.6768V23.4356C6.03701 23.7584 6.29958 24.021 6.6224 24.021H17.351C17.6738 24.021 17.9363 23.7584 17.9363 23.4356V22.6768C17.9363 21.9694 17.3608 21.3938 16.6533 21.3938H15.5928V20.9497H22.0863C22.4671 20.9497 22.7769 20.6399 22.7769 20.2589V20.0935C23.4616 19.9346 23.9734 19.3203 23.9734 18.5882L23.9999 1.59266C24.0001 0.740298 23.3067 0.046875 22.4543 0.046875ZM13.2325 16.4195V14.7358H22.0745V16.4195H13.2325ZM14.2017 14.0333V13.2942H21.1052V14.0333H14.2017ZM21.1052 17.1219V17.8611H14.2017V17.1219H21.1052ZM9.08298 20.134H12.53V20.2591C12.53 20.6399 12.8398 20.9497 13.2208 20.9497H14.8904V21.3938H9.08298V20.134ZM16.6535 22.0963C16.9736 22.0963 17.234 22.3567 17.234 22.6768V23.3186H6.73941V22.6768C6.73941 22.3567 6.99997 22.0963 7.32004 22.0963H16.6535ZM22.0745 20.2471H13.2325V18.5637H22.0745V20.2471ZM23.271 18.5882C23.271 18.9284 23.0681 19.2216 22.7771 19.3547V18.5518C22.7771 18.1709 22.4671 17.8611 22.0863 17.8611H21.8078V17.2557H23.271V18.5882ZM23.271 16.5533H22.7656C22.7727 16.5136 22.7771 14.7241 22.7771 14.7241C22.7771 14.3431 22.4671 14.0333 22.0863 14.0333H21.8078V13.2942H22.0863C22.4671 13.2942 22.7771 12.9842 22.7771 12.6034V10.8963C22.7771 10.5154 22.4671 10.2054 22.0863 10.2054H20.1023C19.9082 10.2054 19.7511 10.3627 19.7511 10.5568C19.7511 10.7507 19.9082 10.908 20.1023 10.908H22.0745V12.5917H13.2325V10.908H17.9168C18.1108 10.908 18.268 10.7507 18.268 10.5568C18.268 10.3627 18.1108 10.2054 17.9168 10.2054H13.2208C12.8398 10.2054 12.53 10.5154 12.53 10.8963V12.6034C12.53 12.9842 12.8398 13.2942 13.2208 13.2942H13.4993V14.0333H13.2208C12.8398 14.0333 12.53 14.3433 12.53 14.7241C12.53 14.7241 12.5344 16.5136 12.5415 16.5533H0.702578V4.82485H23.271V16.5533ZM23.271 4.12227H0.728396V1.59266C0.728396 1.12775 1.10669 0.749453 1.57178 0.749453H22.4276C22.8927 0.749453 23.271 1.12775 23.271 1.59284V4.12227Z" fill="white"/>
<path d="M2.5904 1.39502C2.02204 1.39502 1.55969 1.85736 1.55969 2.42572C1.55969 2.99409 2.02204 3.45661 2.5904 3.45661C3.15876 3.45661 3.62128 2.99409 3.62128 2.42572C3.62128 1.85736 3.15876 1.39502 2.5904 1.39502ZM2.5904 2.75403C2.40949 2.75403 2.26209 2.60682 2.26209 2.42572C2.26209 2.24482 2.40949 2.09741 2.5904 2.09741C2.77149 2.09741 2.91871 2.24482 2.91871 2.42572C2.91871 2.60682 2.77149 2.75403 2.5904 2.75403Z" fill="white"/>
<path d="M5.21485 1.39502C4.64649 1.39502 4.18396 1.85736 4.18396 2.42572C4.18396 2.99409 4.64649 3.45661 5.21485 3.45661C5.78321 3.45661 6.24555 2.99409 6.24555 2.42572C6.24555 1.85736 5.78303 1.39502 5.21485 1.39502ZM5.21485 2.75403C5.03376 2.75403 4.88654 2.60682 4.88654 2.42572C4.88654 2.24482 5.03376 2.09741 5.21485 2.09741C5.39576 2.09741 5.54316 2.24482 5.54316 2.42572C5.54316 2.60682 5.39576 2.75403 5.21485 2.75403Z" fill="white"/>
<path d="M7.83912 1.39502C7.27075 1.39502 6.80841 1.85736 6.80841 2.42572C6.80841 2.99409 7.27075 3.45661 7.83912 3.45661C8.40748 3.45661 8.87 2.99409 8.87 2.42572C8.87 1.85736 8.40748 1.39502 7.83912 1.39502ZM7.83912 2.75403C7.65821 2.75403 7.51081 2.60682 7.51081 2.42572C7.51081 2.24482 7.65821 2.09741 7.83912 2.09741C8.02021 2.09741 8.16742 2.24482 8.16742 2.42572C8.16742 2.60682 8.02021 2.75403 7.83912 2.75403Z" fill="white"/>
</g>
<defs>
<clipPath id="clip0_361_6358">
<rect width="24" height="24" fill="white"/>
</clipPath>
</defs>
</svg>
