<svg width="595" height="460" viewBox="0 0 595 460" fill="none" xmlns="http://www.w3.org/2000/svg">
<g clip-path="url(#clip0_358_1235)">
<path d="M301.342 119C292.523 119 285.372 111.873 285.372 103.085V69.2116H317.312V103.085C317.312 111.873 310.16 119 301.342 119Z" fill="#F89DA7"/>
<path d="M285.358 79.9728C285.358 79.9728 294.148 96.2566 304.191 95.4474C319.72 94.2122 317.141 75.0465 317.141 75.0465C317.141 75.0465 311.115 87.8379 301.598 87.8521C290.985 87.8521 285.358 79.9728 285.358 79.9728Z" fill="#F0717C"/>
<path d="M277.508 57.4566L275.912 41.3574C273.861 31.0646 281.924 25.6272 288.962 25.6272H313.366C320.845 25.6272 329.735 31.022 325.945 42.6351L323.766 60.1824L277.508 57.4566Z" fill="#000714"/>
<path d="M322.127 66.287C326.971 69.8504 335.334 53.6518 330.618 49.8187C325.903 45.9855 322.783 53.013 322.783 53.013L322.669 58.9615L321.971 64.5408L321.7 66.2586L322.127 66.287Z" fill="#F89DA7"/>
<path d="M329.308 54.7024C329.308 54.7024 325.803 53.5383 323.31 58.6775" stroke="#F0717C" stroke-width="0.6735" stroke-miterlimit="10" stroke-linecap="round" stroke-linejoin="round"/>
<path d="M325.019 56.1647C325.019 56.1647 328.837 58.1948 326.316 61.2471" stroke="#F0717C" stroke-width="0.6735" stroke-miterlimit="10" stroke-linecap="round" stroke-linejoin="round"/>
<path d="M279.887 66.287C275.057 69.8505 266.681 53.6518 271.396 49.8187C276.112 45.9855 279.075 53.084 279.075 53.084L279.346 58.9615L280.044 64.5408L280.314 66.2587L279.887 66.287Z" fill="#F89DA7"/>
<path d="M272.693 54.7024C272.693 54.7024 276.197 53.5383 278.69 58.6775" stroke="#F0717C" stroke-width="0.6735" stroke-miterlimit="10" stroke-linecap="round" stroke-linejoin="round"/>
<path d="M276.995 56.1647C276.995 56.1647 273.177 58.1948 275.698 61.2471" stroke="#F0717C" stroke-width="0.6735" stroke-miterlimit="10" stroke-linecap="round" stroke-linejoin="round"/>
<path d="M323.709 45.4035C323.709 55.4264 322.37 64.0865 321.03 70.2196C319.72 76.2248 316.044 81.4777 310.844 84.8565L309.904 85.467C304.405 89.0446 297.296 89.1298 291.711 85.68C286.084 82.2017 282.138 76.5656 280.927 70.1202C278.719 58.3936 278.477 45.3893 278.477 45.3893C278.477 45.3893 276.382 20.0904 300.772 20.5873C325.162 21.07 323.709 45.4035 323.709 45.4035Z" fill="#F89DA7"/>
<path d="M324.036 16.7258C316.286 11.26 300.972 15.079 292.623 18.8979C292.794 16.4135 291.27 16.6832 291.27 16.6832C276.596 20.6157 280.443 32.1436 280.443 32.1436C280.443 32.1436 280.5 32.172 280.585 32.2146C279.046 35.5366 277.066 42.5925 278.947 55.398C278.947 55.398 282.836 41.5561 282.95 33.2935C289.461 36.1613 307.311 43.1178 318.965 39.2278C320.119 46.2837 323.167 55.398 323.167 55.398C324.392 47.1071 323.88 41.187 323.053 37.1977C323.766 36.7008 324.449 36.1471 325.076 35.494C325.048 35.4798 335.02 24.4631 324.036 16.7258Z" fill="#000714"/>
<path d="M298.963 55.0857V63.2489C298.963 63.5187 299.02 63.7884 299.12 64.0297C299.504 64.9809 300.587 65.4352 301.584 65.1655L303.707 64.5976" stroke="#F0717C" stroke-width="0.6735" stroke-miterlimit="10" stroke-linecap="round" stroke-linejoin="round"/>
<path d="M292.951 52.8142C292.951 53.9784 291.996 54.9295 290.828 54.9295C289.66 54.9295 288.705 53.9784 288.705 52.8142C288.705 51.6501 289.66 50.6989 290.828 50.6989C292.011 50.6989 292.951 51.6501 292.951 52.8142Z" fill="#000714"/>
<path d="M312.568 52.8142C312.568 53.9784 311.614 54.9295 310.445 54.9295C309.277 54.9295 308.323 53.9784 308.323 52.8142C308.323 51.6501 309.277 50.6989 310.445 50.6989C311.614 50.6989 312.568 51.6501 312.568 52.8142Z" fill="#000714"/>
<path d="M294.675 55.1283L289.404 58.5923" stroke="#F0717C" stroke-width="0.5051" stroke-miterlimit="10" stroke-linecap="round" stroke-linejoin="round"/>
<path d="M307.112 55.0999L311.77 58.6065" stroke="#F0717C" stroke-width="0.5051" stroke-miterlimit="10" stroke-linecap="round" stroke-linejoin="round"/>
<path d="M300.872 80.5833V82.869" stroke="#F0717C" stroke-width="0.5051" stroke-miterlimit="10" stroke-linecap="round" stroke-linejoin="round"/>
<path d="M296.213 46.1275L296.299 42.0104L288.634 42.1524C287.665 42.1666 286.739 42.5215 285.999 43.132L282.95 46.6244L288.022 45.872L296.213 46.1275Z" fill="#000714"/>
<path d="M305.174 46.1275L305.089 42.0104L312.753 42.1524C313.722 42.1666 314.648 42.5215 315.389 43.132L318.438 46.6244L313.366 45.872L305.174 46.1275Z" fill="#000714"/>
<path d="M292.039 67.8771H309.178C309.178 67.8771 308.28 73.712 300.402 73.712C292.524 73.712 292.039 67.8771 292.039 67.8771Z" fill="white"/>
<path opacity="0.19" d="M321.515 54.9721C321.515 60.012 317.412 64.1007 312.354 64.1007C307.297 64.1007 303.194 60.012 303.194 54.9721C303.194 49.9323 307.297 45.8436 312.354 45.8436C317.412 45.8436 321.515 49.9323 321.515 54.9721Z" fill="white"/>
<path opacity="0.19" d="M298.991 54.9721C298.991 60.012 294.888 64.1007 289.831 64.1007C284.773 64.1007 280.671 60.012 280.671 54.9721C280.671 49.9323 284.773 45.8436 289.831 45.8436C294.888 45.8436 298.991 49.9323 298.991 54.9721Z" fill="white"/>
<path d="M298.991 54.9721C298.991 60.012 294.888 64.1007 289.831 64.1007C284.773 64.1007 280.671 60.012 280.671 54.9721C280.671 49.9323 284.773 45.8436 289.831 45.8436C294.888 45.8436 298.991 49.9323 298.991 54.9721Z" stroke="#000714" stroke-width="0.4282" stroke-miterlimit="10" stroke-linecap="round" stroke-linejoin="round"/>
<path d="M321.515 54.9721C321.515 60.012 317.412 64.1007 312.354 64.1007C307.297 64.1007 303.194 60.012 303.194 54.9721C303.194 49.9323 307.297 45.8436 312.354 45.8436C317.412 45.8436 321.515 49.9323 321.515 54.9721Z" stroke="#000714" stroke-width="0.4282" stroke-miterlimit="10" stroke-linecap="round" stroke-linejoin="round"/>
<path d="M298.991 54.9722C298.991 54.9722 301.157 52.9562 303.18 54.9722" stroke="#000714" stroke-width="0.4282" stroke-miterlimit="10" stroke-linecap="round" stroke-linejoin="round"/>
<path d="M280.656 54.9721H279.132" stroke="#000714" stroke-width="0.4282" stroke-miterlimit="10"/>
<path d="M323.31 54.9721H321.785" stroke="#000714" stroke-width="0.4282" stroke-miterlimit="10"/>
</g>
<path d="M193.882 458.809C193.813 458.809 193.744 458.801 193.676 458.784C193.22 458.671 192.944 458.21 193.057 457.754L238.178 276.975C238.273 276.597 238.612 276.331 239.002 276.331H341.919C342.309 276.331 342.648 276.597 342.742 276.975L387.911 457.754C388.026 458.209 387.749 458.67 387.293 458.784C386.839 458.898 383.905 458.621 383.791 458.166L327.707 278.03H251.369L196.698 458.166C196.602 458.551 194.263 458.809 193.882 458.809Z" fill="#5E43A4"/>
<path fill-rule="evenodd" clip-rule="evenodd" d="M359.806 291.482H224.293C219.063 291.482 214.824 287.243 214.824 282.014V272.349C214.824 267.119 219.063 262.88 224.293 262.88H359.806C365.036 262.88 369.275 267.12 369.275 272.349V282.013C369.275 287.243 365.036 291.482 359.806 291.482Z" fill="#7B5BB3"/>
<path d="M357.891 291.482H235.919C245.138 290.049 252.845 287.697 259.538 284.916H336.755C343.983 288.494 350.66 291.017 355.118 291.017C355.349 291.017 355.575 291.01 355.795 290.996C357.161 290.91 358.461 290.878 359.693 290.878C360.311 290.878 360.912 290.886 361.495 290.9C360.363 291.277 359.151 291.482 357.891 291.482ZM222.073 290.706C218.065 289.14 215.168 285.364 214.863 280.876C215.103 281.16 215.358 281.432 215.625 281.692C217.561 285.526 220.135 288.758 222.073 290.706Z" fill="#704EAC"/>
<path fill-rule="evenodd" clip-rule="evenodd" d="M376.139 278.636C374.83 261.806 364.753 242.491 350.008 227.699C337.577 215.229 264.918 220.472 255.955 224.954C244.278 230.792 228.026 248.102 216.648 261.212C205.271 274.32 222.908 292.805 224.709 292.691C261.027 290.387 276.728 274.729 292.911 266.249C296.747 264.239 300.956 263.138 304.541 265.567C316.992 274.007 344.558 291.704 355.795 290.996C359.058 290.791 361.939 290.895 364.431 291C373.19 291.368 377.158 291.737 376.139 278.636Z" fill="#8920EC"/>
<mask id="mask0_358_1235" style="mask-type:luminance" maskUnits="userSpaceOnUse" x="212" y="219" width="165" height="74">
<path d="M376.139 278.636C374.83 261.806 364.753 242.491 350.008 227.699C337.577 215.229 264.918 220.472 255.955 224.954C244.278 230.792 228.026 248.102 216.648 261.212C205.271 274.32 222.908 292.805 224.709 292.691C261.027 290.387 276.728 274.729 292.911 266.249C296.747 264.239 300.956 263.138 304.541 265.567C316.992 274.007 344.558 291.704 355.795 290.996C359.058 290.791 361.939 290.895 364.431 291C373.19 291.368 377.158 291.737 376.139 278.636Z" fill="white"/>
</mask>
<g mask="url(#mask0_358_1235)">
<path fill-rule="evenodd" clip-rule="evenodd" d="M247.333 301.617L253.578 280.799C253.578 280.799 283.446 250.442 296.344 250.442C309.242 250.442 332.172 268.37 348.816 272.559C365.458 276.75 385.137 302.918 386.004 301.617C386.872 300.315 247.333 301.617 247.333 301.617Z" fill="#44256A"/>
</g>
<path fill-rule="evenodd" clip-rule="evenodd" d="M295.097 389.562L285.018 413.275L263.922 405.085C263.922 405.085 275.295 388.289 281.006 385.487C286.718 382.686 295.097 389.562 295.097 389.562Z" fill="#F89DA7"/>
<path fill-rule="evenodd" clip-rule="evenodd" d="M255.388 404.303C250.011 408.14 244.258 422.26 243.522 427.431C242.5 434.616 240.528 437.593 253.879 451.063C267.547 464.852 271.071 452.075 273.949 442.472C273.949 442.472 258.154 409.757 262.017 404.397C262.312 403.989 266.09 399.431 266.414 399.046C263.879 399.745 260.388 400.736 255.388 404.303Z" fill="#100F0D"/>
<path fill-rule="evenodd" clip-rule="evenodd" d="M266.682 396.119C263.604 397.464 261.002 399.702 259.037 402.427C255.174 407.786 248.184 418.065 247.448 423.235C246.426 430.42 244.454 433.397 257.805 446.866C271.473 460.656 271.949 448.884 274.827 439.281C277.705 429.677 290.73 413.958 290.244 408.821C289.534 401.331 280.777 389.965 266.682 396.119Z" fill="#8920EC"/>
<path d="M272.494 426.042C272.316 426.042 272.151 425.929 272.092 425.751C269.994 419.465 263.486 419.207 263.21 419.2C262.976 419.193 262.791 418.998 262.797 418.764C262.803 418.529 262.98 418.362 263.234 418.35C263.306 418.353 270.609 418.624 272.896 425.484C272.971 425.705 272.851 425.946 272.628 426.02L272.494 426.042Z" fill="white"/>
<path d="M276.002 420.758C275.824 420.758 275.658 420.646 275.599 420.468C273.503 414.181 266.994 413.923 266.718 413.916C266.484 413.909 266.298 413.713 266.305 413.479C266.311 413.245 266.502 413.079 266.741 413.066C266.814 413.069 274.117 413.339 276.404 420.199C276.479 420.422 276.359 420.662 276.136 420.737L276.002 420.758Z" fill="white"/>
<path d="M279.509 415.473C279.332 415.473 279.165 415.361 279.107 415.183C277.01 408.897 270.502 408.639 270.225 408.631C269.991 408.625 269.806 408.429 269.813 408.195C269.82 407.961 270.037 407.803 270.248 407.782C270.322 407.785 277.625 408.055 279.913 414.915C279.986 415.136 279.865 415.377 279.644 415.451L279.509 415.473Z" fill="white"/>
<path fill-rule="evenodd" clip-rule="evenodd" d="M277.999 387.579C277.873 385.319 295.886 334.212 319.932 299.058C343.977 263.903 368.224 248.56 376.919 273.449C385.613 298.34 359.462 332.066 346.229 348.734C325.804 374.46 292.71 396.017 292.71 396.017L277.999 387.579Z" fill="#8920EC"/>
<mask id="mask1_358_1235" style="mask-type:luminance" maskUnits="userSpaceOnUse" x="277" y="261" width="102" height="136">
<path d="M277.999 387.58C277.873 385.319 295.886 334.212 319.932 299.058C343.977 263.903 368.224 248.56 376.919 273.449C385.613 298.34 359.462 332.066 346.229 348.734C325.804 374.46 292.71 396.017 292.71 396.017L277.999 387.58Z" fill="white"/>
</mask>
<g mask="url(#mask1_358_1235)">
<path fill-rule="evenodd" clip-rule="evenodd" d="M276.166 370.524C278.447 374.419 290.783 384.639 307.447 374.512C338.283 355.771 360.625 323.28 370.789 302.769C380.953 282.259 375.905 258.181 375.905 258.181C375.905 258.181 404.376 261.638 391.455 301.481C378.536 341.323 300.309 403.903 297.126 405.826C295.413 406.861 276.69 404.541 271.917 403.653L276.166 370.524Z" fill="#44256A"/>
</g>
<path fill-rule="evenodd" clip-rule="evenodd" d="M316.104 383.617C316.104 383.617 322.369 388.008 326.43 388.45C330.491 388.893 329.01 412.836 317.524 408.008C306.039 403.18 295.178 389.28 295.178 389.28L316.104 383.617Z" fill="#F89DA7"/>
<path fill-rule="evenodd" clip-rule="evenodd" d="M317.516 388.333C319.213 386.871 319.731 384.461 318.783 382.433C313.631 371.415 297.098 336.628 285.497 318.729C270.061 294.912 243.615 245.261 219.878 259.043C197.126 272.255 207.621 303.656 219.726 321.783C230.653 338.147 285.98 387.72 301.403 397.521C303.266 398.704 305.68 398.533 307.352 397.092L317.516 388.333Z" fill="#8920EC"/>
<path fill-rule="evenodd" clip-rule="evenodd" d="M329.299 387.847C329.299 387.847 333.971 393.49 332.559 396.428C331.146 399.366 337.524 406.444 331.135 410.325C324.747 414.205 329.022 424.082 330.203 433.267C332.326 449.783 338.068 449.286 343.809 448.787C349.55 448.289 358.569 438.459 355.516 427.635C352.463 416.811 343.435 407.413 342.793 402.827C342.153 398.241 339.84 385.59 329.299 387.847Z" fill="#100F0D"/>
<path fill-rule="evenodd" clip-rule="evenodd" d="M324.35 387.783C324.35 387.783 329.023 393.426 327.61 396.363C326.198 399.301 322.537 393.143 316.149 397.025C309.761 400.906 305.156 404.868 309.558 410.638C313.96 416.408 320.568 425.217 325.255 433.204C329.942 441.191 332.38 448.064 338.121 447.566C343.862 447.068 353.622 438.395 350.567 427.572C347.514 416.748 338.487 407.348 337.846 402.763C337.205 398.177 334.891 385.525 324.35 387.783Z" fill="#8920EC"/>
<path d="M323.559 423.488L323.462 423.478C323.234 423.424 323.092 423.195 323.145 422.967C324.767 416.009 331.927 415.074 331.999 415.066C332.226 415.035 332.442 415.203 332.471 415.436C332.499 415.669 332.333 415.881 332.1 415.908C331.829 415.942 325.457 416.791 323.973 423.16C323.927 423.357 323.752 423.488 323.559 423.488Z" fill="white"/>
<path d="M319.626 418.613L319.529 418.603C319.3 418.548 319.158 418.321 319.212 418.093C320.834 411.134 327.993 410.199 328.065 410.191C328.295 410.162 328.51 410.328 328.537 410.562C328.565 410.794 328.4 411.005 328.166 411.034C327.896 411.066 321.524 411.915 320.04 418.285C319.994 418.481 319.819 418.613 319.626 418.613Z" fill="white"/>
<path d="M315.692 413.738L315.597 413.727C315.367 413.673 315.225 413.446 315.278 413.217C316.901 406.26 324.06 405.325 324.132 405.316C324.36 405.278 324.576 405.453 324.604 405.686C324.632 405.919 324.467 406.13 324.234 406.158C323.963 406.191 317.591 407.04 316.106 413.41C316.061 413.606 315.886 413.738 315.692 413.738Z" fill="white"/>
<mask id="mask2_358_1235" style="mask-type:luminance" maskUnits="userSpaceOnUse" x="206" y="256" width="114" height="143">
<path d="M317.517 388.333C319.214 386.871 319.731 384.461 318.784 382.433C313.631 371.415 297.099 336.628 285.498 318.729C270.061 294.912 243.615 245.261 219.878 259.044C197.125 272.255 207.622 303.656 219.726 321.783C230.654 338.147 285.981 387.72 301.403 397.521C303.266 398.704 305.68 398.533 307.353 397.092L317.517 388.333Z" fill="white"/>
</mask>
<g mask="url(#mask2_358_1235)">
<path fill-rule="evenodd" clip-rule="evenodd" d="M275.349 300.652C275.349 300.652 279.287 309.786 302.23 371.514C305.896 381.379 298.346 393.584 283.023 387.377C281.538 386.776 292.084 420.107 302.758 408.77C313.432 397.434 334.504 408.462 322.41 376.412C310.317 344.363 275.349 300.652 275.349 300.652Z" fill="#44256A"/>
</g>
<path d="M221.929 162.945C221.929 162.945 202.37 219.713 202.302 224.509C202.129 236.502 211.209 236.815 219.824 235.169C228.44 233.523 250.477 172.981 250.477 172.981L221.929 162.945Z" fill="#F89DA7"/>
<mask id="mask3_358_1235" style="mask-type:luminance" maskUnits="userSpaceOnUse" x="202" y="162" width="49" height="74">
<path d="M221.93 162.946C221.93 162.946 202.37 219.713 202.302 224.509C202.129 236.502 211.209 236.815 219.824 235.169C228.44 233.523 250.477 172.981 250.477 172.981L221.93 162.946Z" fill="white"/>
</mask>
<g mask="url(#mask3_358_1235)">
<path d="M231.788 156.589C231.788 156.589 227.141 161.738 226.738 181.056C226.426 196.037 235.502 198.797 219.222 230.366C215.947 236.718 195.073 244.605 195.073 244.605C195.073 244.605 220.334 273.234 230.008 245.409C239.684 217.582 252.628 173.269 252.628 173.269L231.788 156.589Z" fill="#F0717C"/>
</g>
<path d="M378.23 164.308C378.23 164.308 379.992 224.324 378.629 228.923C375.221 240.423 366.461 238.017 358.726 233.879C350.993 229.742 347.989 165.384 347.989 165.384L378.23 164.308Z" fill="#F89DA7"/>
<mask id="mask4_358_1235" style="mask-type:luminance" maskUnits="userSpaceOnUse" x="347" y="164" width="33" height="74">
<path d="M378.23 164.308C378.23 164.308 379.992 224.324 378.629 228.923C375.221 240.423 366.461 238.017 358.726 233.879C350.993 229.742 347.989 165.384 347.989 165.384L378.23 164.308Z" fill="white"/>
</mask>
<g mask="url(#mask4_358_1235)">
<path d="M387.582 182.107V159.339L370.711 155.317L370.712 155.303L370.689 155.312L320.431 143.332C320.431 143.332 324.566 215.284 342.412 208.779C343.415 208.414 344.45 208 345.505 207.554C345.519 218.87 345.635 230.695 345.954 240.62C346.901 270.064 379.543 250.261 379.543 250.261C379.543 250.261 369.19 237.785 367.955 230.747C367.401 227.589 367.134 223.157 367.066 218.005C366.893 204.761 373.26 192.269 384.077 184.624C386.287 183.063 387.582 182.107 387.582 182.107Z" fill="#F0717C"/>
</g>
<path d="M205.81 234.938C214.319 238.171 228.247 235.283 242.726 233.67C252.763 232.552 259.666 231.551 259.791 231.534L259.792 231.533L263.348 218.52C263.348 218.52 234.49 212.553 220.377 211.353C212.364 210.671 204.864 215.525 202.773 221.973C201.178 226.883 203.382 234.014 205.81 234.938Z" fill="#F89DA7"/>
<mask id="mask5_358_1235" style="mask-type:luminance" maskUnits="userSpaceOnUse" x="202" y="211" width="62" height="26">
<path d="M205.81 234.937C214.319 238.171 228.247 235.283 242.726 233.67C252.763 232.552 259.666 231.551 259.791 231.534L259.793 231.533L263.348 218.52C263.348 218.52 234.49 212.553 220.377 211.353C212.364 210.671 204.864 215.525 202.773 221.973C201.178 226.883 203.382 234.014 205.81 234.937Z" fill="white"/>
</mask>
<g mask="url(#mask5_358_1235)">
<path d="M200.703 218.792C200.703 218.792 198.745 233.61 210.918 231.075C223.09 228.54 248.642 221.764 248.952 222.002C249.262 222.24 260.047 226.721 260.047 226.721L262.992 234.724L211.279 244.38L196.76 238.85L200.703 218.792Z" fill="#F0717C"/>
</g>
<path d="M374.891 235.499C366.186 238.161 352.48 234.354 338.139 231.785C328.199 230.002 321.38 228.546 321.255 228.519H321.254L318.57 215.299C318.57 215.299 347.76 211.26 361.922 211C369.962 210.852 377.123 216.192 378.782 222.765C380.048 227.77 377.374 234.739 374.891 235.499Z" fill="#F89DA7"/>
<mask id="mask6_358_1235" style="mask-type:luminance" maskUnits="userSpaceOnUse" x="318" y="210" width="62" height="27">
<path d="M374.891 235.499C366.186 238.161 352.48 234.354 338.139 231.785C328.199 230.002 321.38 228.546 321.255 228.519H321.254L318.57 215.299C318.57 215.299 347.76 211.26 361.922 211C369.962 210.852 377.123 216.192 378.782 222.765C380.048 227.77 377.374 234.739 374.891 235.499Z" fill="white"/>
</mask>
<g mask="url(#mask6_358_1235)">
<path d="M381.059 219.729C381.059 219.729 382.029 234.644 370.051 231.307C358.074 227.969 333.028 219.513 332.703 219.729C332.377 219.946 321.319 223.7 321.319 223.7L317.85 231.49L368.807 244.558L383.661 240.004L381.059 219.729Z" fill="#F0717C"/>
</g>
<path d="M353.87 181.84L377.528 176.478C377.528 176.478 380.098 170.972 377.528 151.151C374.96 131.331 362.847 121.975 362.847 121.975C361.229 120.749 359.702 119.826 358.26 119.169C357.677 118.595 357.034 118.073 356.324 117.623C347.492 112.017 331.251 103.111 314.631 101.159C311.698 104.6 308.046 106.931 302.727 106.931C296.388 106.931 291.948 104.067 289.318 99.4584C277.951 99.3454 263.089 104.963 252.807 110.744C252.807 110.744 241.803 115.47 235.081 128.047C229.2 139.049 222.506 157.093 218.834 170.333C218.442 171.745 219.177 173.221 220.535 173.772L243.729 183.172C245.151 183.749 246.776 183.116 247.426 181.726C247.813 180.899 248.283 179.872 248.813 178.689C249.626 186.149 250.402 193.99 251.079 202.007C251.97 212.575 249.005 225.495 247.855 229.987C247.616 230.925 248.118 231.886 249.021 232.232L254.469 234.319C281.149 244.536 310.307 246.385 338.064 239.622L355.294 235.424C356.341 235.169 357.009 234.14 356.815 233.08C353.198 213.22 352.253 203.364 353.813 182.573C353.831 182.329 353.851 182.083 353.87 181.84Z" fill="#FCD66A"/>
<mask id="mask7_358_1235" style="mask-type:luminance" maskUnits="userSpaceOnUse" x="218" y="99" width="161" height="145">
<path d="M353.87 181.84L377.528 176.478C377.528 176.478 380.098 170.972 377.528 151.151C374.96 131.331 362.847 121.975 362.847 121.975C361.229 120.749 359.702 119.826 358.26 119.169C357.677 118.595 357.034 118.073 356.324 117.623C347.492 112.017 331.251 103.111 314.631 101.159C311.698 104.6 308.046 106.931 302.727 106.931C296.388 106.931 291.948 104.067 289.318 99.4584C277.951 99.3454 263.089 104.963 252.807 110.744C252.807 110.744 241.803 115.47 235.081 128.047C229.2 139.049 222.506 157.093 218.834 170.333C218.442 171.745 219.177 173.221 220.535 173.772L243.729 183.172C245.151 183.749 246.776 183.116 247.426 181.726C247.813 180.899 248.283 179.872 248.813 178.689C249.626 186.149 250.402 193.99 251.079 202.007C251.97 212.575 249.005 225.495 247.855 229.987C247.616 230.925 248.118 231.886 249.021 232.232L254.469 234.319C281.149 244.536 310.307 246.385 338.064 239.622L355.294 235.424C356.341 235.169 357.009 234.14 356.815 233.08C353.198 213.22 352.253 203.364 353.813 182.573C353.831 182.329 353.851 182.083 353.87 181.84Z" fill="white"/>
</mask>
<g mask="url(#mask7_358_1235)">
<path d="M356.658 107.874C356.658 107.874 374.596 151.226 356.518 164.983C353.265 167.459 351.194 171.185 350.533 175.219C349.036 184.367 347.482 202.701 349.43 236.419C352.611 291.482 370.536 242.202 370.536 242.202L380.945 214.735L396.846 152.573L356.658 107.874Z" fill="#FABE2C"/>
<path d="M320.246 93.4669C320.246 102.85 312 110.457 301.827 110.457C291.655 110.457 283.408 102.85 283.408 93.4669C283.408 84.0839 291.655 76.4768 301.827 76.4768C312 76.4768 320.246 84.0839 320.246 93.4669Z" fill="#FABE2C"/>
</g>
<path d="M334.085 70.0852C334.111 69.8853 334.13 69.6861 334.143 69.4869C334.13 69.6854 334.111 69.8853 334.085 70.0852Z" fill="#F7B8BD"/>
<path d="M324.764 78.444C324.359 78.444 323.95 78.4171 323.538 78.362C323.95 78.4171 324.359 78.444 324.764 78.444ZM323.498 78.3571C323.492 78.3556 323.486 78.355 323.48 78.3543C323.486 78.355 323.492 78.3556 323.498 78.3571ZM323.461 78.3514C323.458 78.3514 323.455 78.3507 323.452 78.35C323.454 78.3507 323.459 78.3514 323.461 78.3514Z" fill="#C12F5D"/>
<path d="M226.933 176.365C226.933 176.365 229.273 157.554 250.477 138.458L248.814 178.689C248.814 178.689 247.122 183.045 245.812 183.205C244.502 183.366 245.188 183.743 226.933 176.365Z" fill="#FABE2C"/>
<path d="M357.321 236.671H239.413C237.62 236.671 236.166 235.218 236.166 233.425V229.038C236.166 228.44 236.651 227.957 237.248 227.957H359.486C360.083 227.957 360.568 228.44 360.568 229.038V233.425C360.568 235.218 359.114 236.671 357.321 236.671Z" fill="#BAB4E0"/>
<path d="M353.309 232.747H243.426C240.636 232.747 238.375 230.487 238.375 227.698V161.063C238.375 158.275 240.636 156.013 243.426 156.013H353.309C356.099 156.013 358.359 158.275 358.359 161.063V227.698C358.359 230.487 356.099 232.747 353.309 232.747Z" fill="white"/>
<mask id="mask8_358_1235" style="mask-type:luminance" maskUnits="userSpaceOnUse" x="238" y="156" width="121" height="77">
<path d="M353.309 232.747H243.426C240.636 232.747 238.375 230.487 238.375 227.698V161.063C238.375 158.275 240.636 156.013 243.426 156.013H353.309C356.099 156.013 358.359 158.275 358.359 161.063V227.698C358.359 230.487 356.099 232.747 353.309 232.747Z" fill="white"/>
</mask>
<g mask="url(#mask8_358_1235)">
<path d="M353.309 232.747H265.619C299.979 227.718 314.591 218.722 321.965 211.154C336.69 196.04 346.91 171.225 352.18 156.013H353.309C356.098 156.013 358.359 158.275 358.359 161.063V227.698C358.359 230.487 356.098 232.747 353.309 232.747Z" fill="#DFDBF1"/>
</g>
<path d="M298.367 201.13C294.639 201.13 291.616 198.109 291.616 194.38C291.616 190.652 294.639 187.63 298.367 187.63C302.095 187.63 305.117 190.652 305.117 194.38C305.117 198.109 302.095 201.13 298.367 201.13Z" fill="#DFDBF1"/>
<path d="M32.9672 456.972H186.001V238.204H32.9672V456.972Z" fill="#5E43A4"/>
<path d="M32.9672 237.687H186.001V248.761H32.9672V237.687Z" fill="#4D298C"/>
<path d="M434.941 237.826L474.374 452.002C474.85 454.587 472.865 456.972 470.236 456.972C468.32 456.972 466.646 455.677 466.163 453.823L410.02 237.826H434.941Z" fill="#5E43A4"/>
<path d="M434.941 237.826H410.02L412.918 248.761H437.015L434.941 237.826Z" fill="#4D298C"/>
<path d="M32.9672 243.563H476.613V232.846H32.9672V243.563Z" fill="#5E43A4"/>
<path d="M39.3671 303.029H179.6V257.74H39.3671V303.029Z" fill="#8920EC"/>
<path d="M156 303.029H39.3671V259.717C42.0521 263.484 45.1511 266.953 48.4471 270.037C57.6704 278.667 68.9289 283.53 80.7524 287.571C104.84 295.802 130.662 300.195 156 303.029Z" fill="#44256A"/>
<path d="M39.3671 438.625H179.6V393.336H39.3671V438.625Z" fill="#8920EC"/>
<path d="M39.3671 370.233H179.6V324.942H39.3671V370.233Z" fill="#8920EC"/>
<path d="M156 370.233H39.3671V326.92C42.0521 330.686 45.1511 334.156 48.4471 337.241C57.6704 345.87 68.9289 350.733 80.7524 354.774C104.84 363.005 130.662 367.399 156 370.233Z" fill="#44256A"/>
<path d="M156 438.625H39.3671V395.313C42.0521 399.079 45.1511 402.549 48.4471 405.633C57.6704 414.263 68.9289 419.126 80.7524 423.166C104.84 431.398 130.662 435.791 156 438.625Z" fill="#44256A"/>
<path d="M121.864 283.523H97.1048V277.247H121.864V283.523Z" fill="#4D298C"/>
<path d="M121.864 350.726H97.1048V344.45H121.864V350.726Z" fill="#4D298C"/>
<path d="M121.864 419.118H97.1048V412.843H121.864V419.118Z" fill="#4D298C"/>
<path d="M107.946 192.934L87.0687 232.76H110.403L107.946 192.934Z" fill="#FCD66A"/>
<path d="M110.403 232.76H87.0687L97.1785 213.474C99.0738 219.666 104.06 224.084 110.035 226.799L110.403 232.76Z" fill="#FBC53C"/>
<path d="M107.946 192.934H73.969L51.0438 232.76H87.069L107.946 192.934Z" fill="#FDE9AA"/>
<path d="M91.573 217.914C87.6815 220.468 83.4113 222.449 79.0105 223.949C74.3286 225.544 69.7229 226.203 64.7859 226.22C61.5528 226.231 58.1226 226.525 54.8343 226.175L51.0438 232.76H87.069L97.1789 213.474C95.444 214.827 93.4131 216.707 91.573 217.914Z" fill="#FCD66A"/>
<path d="M82.4617 205.01L79.1911 210.975H71.8143L75.1096 205.01H82.4617Z" fill="white"/>
<path d="M92.5354 205.01L89.7317 210.975H81.8533L85.1211 205.01H92.5354Z" fill="white"/>
<path d="M88.4677 213.665L85.1696 220.684H76.5325L80.3802 213.665H88.4677Z" fill="white"/>
<path d="M77.7179 213.665L73.8687 220.684H66.4545L70.3304 213.665H77.7179Z" fill="white"/>
<path d="M71.0452 198.013H105.284L107.946 192.934H73.969L71.0452 198.013Z" fill="#FABE2C"/>
<path d="M77.1385 197.028H78.9398C78.9398 197.028 79.0217 190.661 80.5412 191.874C80.7185 192.015 80.9134 192.576 80.8696 192.934H82.4618C82.4618 192.934 82.3855 191.628 81.7908 190.996C80.7163 189.856 77.4564 188.574 77.1385 197.028Z" fill="#FDE9AA"/>
<path d="M86.8343 197.028H88.6356C88.6356 197.028 88.7175 190.661 90.2363 191.874C90.4136 192.015 90.6092 192.576 90.5654 192.934H92.1576C92.1576 192.934 92.0813 191.628 91.4866 190.996C90.4114 189.856 87.1529 188.574 86.8343 197.028Z" fill="#FDE9AA"/>
<path d="M98.0037 197.028H99.805C99.805 197.028 99.887 190.661 101.406 191.874C101.584 192.015 101.779 192.576 101.736 192.934H103.328C103.328 192.934 103.251 191.628 102.656 190.996C101.582 189.856 98.3223 188.574 98.0037 197.028Z" fill="#FDE9AA"/>
<path d="M170.31 217.301C166.941 217.301 164.21 214.57 164.21 211.201C164.21 207.831 166.941 205.1 170.31 205.1C173.679 205.1 176.41 207.831 176.41 211.201C176.41 214.57 173.679 217.301 170.31 217.301ZM171.842 200.37C166.301 200.37 161.808 205.219 161.808 211.201C161.808 217.182 166.301 222.032 171.842 222.032C177.384 222.032 181.877 217.182 181.877 211.201C181.877 205.219 177.384 200.37 171.842 200.37Z" fill="#F790C3"/>
<path d="M170.31 217.301C169.756 217.301 169.218 217.227 168.707 217.089V217.088C169.218 217.227 169.756 217.301 170.31 217.301V217.301Z" fill="#F684C1"/>
<path d="M170.31 221.906C169.76 221.815 169.224 221.676 168.707 221.493V217.089C169.218 217.227 169.756 217.301 170.31 217.301V221.906Z" fill="#F363AD"/>
<path d="M168.707 205.313V200.909C169.224 200.726 169.76 200.587 170.31 200.496V205.101C169.756 205.101 169.218 205.175 168.707 205.313Z" fill="#F363AD"/>
<path d="M152.85 204.438L151.772 203.816C150.894 203.308 150.591 202.175 151.098 201.297L168.847 170.554C169.354 169.676 170.488 169.372 171.366 169.879L172.443 170.502C173.321 171.008 173.625 172.142 173.118 173.02L155.369 203.763C154.861 204.641 153.728 204.945 152.85 204.438Z" fill="#FBC3D6"/>
<path d="M160.213 195.372H154.518L156.002 192.802H161.696L160.213 195.372Z" fill="#F9ACCD"/>
<path d="M160.937 232.846H146.713C142.44 232.846 138.943 229.349 138.943 225.075V195.372H168.707V225.075C168.707 229.349 165.211 232.846 160.937 232.846Z" fill="#FBC3D6"/>
<path d="M161.366 232.846H160.937C161.122 232.846 161.306 232.839 161.488 232.826C161.447 232.833 161.407 232.839 161.366 232.846ZM146.713 232.846H146.26C146.209 232.838 146.158 232.831 146.108 232.822C146.308 232.838 146.509 232.846 146.713 232.846Z" fill="#FABEDA"/>
<path d="M157.997 233.077H149.719C148.415 233.077 147.268 232.997 146.26 232.846H146.713H160.937H161.366C160.414 232.993 159.304 233.077 157.997 233.077Z" fill="#CE79C3"/>
<path d="M143.305 232.054C141.395 231.238 140.319 229.982 139.714 228.441C140.474 230.007 141.744 231.285 143.305 232.054Z" fill="#FABEDA"/>
<path d="M160.937 232.846H146.713C146.51 232.846 146.308 232.838 146.108 232.822C145.016 232.648 144.089 232.388 143.305 232.054C141.744 231.285 140.473 230.007 139.714 228.441C139 226.621 138.943 224.405 138.943 222.056V213.399C141.156 216.57 143.929 219.372 146.834 221.559C152.36 225.718 160.702 227.773 167.375 229.347C166.416 230.654 165.175 232.225 161.489 232.826C161.306 232.839 161.122 232.846 160.937 232.846Z" fill="#F9ACCD"/>
<path d="M138.943 202.439H168.707V195.372H138.943V202.439Z" fill="#F790C3"/>
<path d="M163.885 202.439H138.943V195.372C142.59 197.98 147.242 198.796 151.472 199.971C155.562 201.109 159.718 201.798 163.885 202.439Z" fill="#F363AD"/>
<path d="M542.276 403.716C542.276 403.716 538.091 334.102 517.065 341.218C496.038 348.333 536.021 403.939 542.276 403.716Z" fill="#82D3AE"/>
<path d="M516.766 341.625C518.022 345.792 519.346 349.938 520.738 354.062C522.129 358.186 523.587 362.287 525.112 366.363C526.636 370.44 528.227 374.491 529.883 378.516C531.54 382.541 533.261 386.539 535.047 390.507C536.832 394.477 538.683 398.416 540.597 402.325C540.836 402.813 541.077 403.302 541.317 403.79C541.482 404.122 542.014 403.889 541.847 403.554C539.918 399.652 538.051 395.721 536.249 391.758C534.447 387.798 532.71 383.807 531.038 379.789C529.365 375.771 527.758 371.725 526.217 367.655C524.676 363.585 523.2 359.49 521.792 355.372C520.385 351.254 519.043 347.112 517.77 342.951C517.611 342.431 517.452 341.91 517.296 341.389C517.187 341.033 516.658 341.271 516.766 341.625Z" fill="#3DABA0"/>
<path d="M530.374 377.674C532.114 372.632 533.279 367.392 533.823 362.086C533.978 360.585 534.082 359.079 534.138 357.571C534.152 357.2 533.577 357.129 533.562 357.501C533.365 362.798 532.564 368.074 531.16 373.187C530.765 374.625 530.322 376.05 529.836 377.459C529.714 377.811 530.252 378.028 530.374 377.674Z" fill="#3DABA0"/>
<path d="M524.13 363.383C521.266 359.792 518.084 356.457 514.63 353.428C513.66 352.577 512.668 351.751 511.656 350.95C511.364 350.717 511.02 351.184 511.312 351.416C514.874 354.239 518.184 357.373 521.192 360.782C522.045 361.75 522.875 362.739 523.679 363.747C523.912 364.039 524.364 363.677 524.13 363.383Z" fill="#3DABA0"/>
<path d="M551.292 373.263C551.292 373.263 515.032 318.228 538.793 312.977C562.556 307.725 551.292 373.263 551.292 373.263Z" fill="#82D3AE"/>
<path d="M538.402 313.644C540.552 321.275 542.508 328.96 544.263 336.691C546.011 344.384 547.561 352.12 548.913 359.891C549.675 364.27 550.373 368.659 551.008 373.059C551.062 373.428 551.635 373.342 551.582 372.973C550.448 365.125 549.115 357.308 547.58 349.53C546.053 341.792 544.328 334.092 542.408 326.442C541.325 322.131 540.181 317.836 538.976 313.557C538.876 313.204 538.301 313.286 538.402 313.644Z" fill="#3DABA0"/>
<path d="M545.053 335.641C545.819 330.56 546.584 325.479 547.35 320.398C547.568 318.947 547.787 317.495 548.005 316.043C548.061 315.673 547.486 315.606 547.43 315.974C546.665 321.055 545.899 326.136 545.133 331.216C544.914 332.668 544.696 334.12 544.476 335.571C544.421 335.941 544.997 336.01 545.053 335.641Z" fill="#3DABA0"/>
<path d="M547.378 348.423C543.625 344.598 539.872 340.774 536.119 336.95C535.067 335.876 534.014 334.804 532.961 333.73C532.702 333.466 532.247 333.827 532.509 334.094C536.262 337.919 540.015 341.743 543.767 345.568C544.82 346.641 545.873 347.714 546.926 348.787C547.185 349.05 547.64 348.69 547.378 348.423Z" fill="#3DABA0"/>
<path d="M546.534 392.599C546.534 392.599 575.549 355.395 588.166 369.225C600.789 383.057 553.673 394.662 546.534 392.599Z" fill="#82D3AE"/>
<path d="M547.28 392.774C552.506 389.644 557.767 386.571 563.06 383.555C568.354 380.54 573.677 377.581 579.039 374.681C582.041 373.054 585.057 371.446 588.081 369.856C588.406 369.683 588.173 369.152 587.841 369.326C582.451 372.161 577.089 375.055 571.76 378.006C566.431 380.958 561.133 383.966 555.869 387.033C552.916 388.752 549.974 390.49 547.044 392.244C546.729 392.433 546.959 392.966 547.28 392.774Z" fill="#3DABA0"/>
<path d="M558.489 385.957C559.581 383.12 560.672 380.283 561.764 377.447C561.897 377.099 561.36 376.883 561.225 377.232C560.133 380.069 559.042 382.905 557.95 385.742C557.816 386.09 558.355 386.305 558.489 385.957Z" fill="#3DABA0"/>
<path d="M576.044 376.145C577.019 372.937 578.432 369.871 580.24 367.045C580.438 366.733 579.972 366.386 579.774 366.701C577.937 369.567 576.496 372.675 575.507 375.93C575.394 376.285 575.931 376.503 576.044 376.145Z" fill="#3DABA0"/>
<path d="M563.687 383.246C569.354 382.602 575.02 381.957 580.685 381.312C582.296 381.129 583.899 380.946 585.51 380.763C585.884 380.72 585.792 380.148 585.425 380.189C579.76 380.835 574.095 381.479 568.425 382.124C566.817 382.308 565.21 382.49 563.601 382.673C563.23 382.715 563.316 383.288 563.687 383.246Z" fill="#3DABA0"/>
<path d="M532.7 418.071C536.657 413.038 540.076 407.589 542.902 401.845C545.728 396.101 547.955 390.064 549.537 383.861C550.424 380.383 551.108 376.856 551.58 373.298C551.629 372.927 551.053 372.858 551.004 373.228C550.164 379.558 548.653 385.791 546.512 391.806C544.382 397.789 541.638 403.556 538.322 408.972C536.466 412.006 534.432 414.931 532.233 417.727C532.002 418.021 532.469 418.364 532.7 418.071Z" fill="#3DABA0"/>
<path d="M462.647 457.295C462.019 450.368 464.899 443.211 470.131 438.688C475.364 434.165 482.812 432.398 489.492 434.094C489.007 427.758 493.14 421.35 499.075 419.236C505.009 417.124 512.209 419.495 515.768 424.736C514.157 420.22 515.988 414.9 519.561 411.735C523.133 408.569 528.133 407.385 532.873 407.76C538.488 408.203 544.022 410.827 547.481 415.314C550.941 419.802 552.066 426.186 549.809 431.395C553.44 424.982 561.517 421.506 568.613 423.302C575.712 425.099 581.208 432.012 581.413 439.397C581.589 445.933 578.079 452 573.96 457.052L462.647 457.295Z" fill="#82D3AE"/>
<path d="M462.647 457.295C462.608 456.861 462.582 456.426 462.57 455.991C462.482 452.835 463.103 449.668 464.327 446.759V446.76C462.935 450.069 462.322 453.712 462.647 457.295ZM471.697 437.462V437.46C475.372 434.858 479.869 433.458 484.358 433.458C486.087 433.458 487.813 433.666 489.491 434.092C489.491 434.092 489.491 434.093 489.491 434.094C487.813 433.668 486.087 433.46 484.358 433.46C479.869 433.46 475.372 434.86 471.697 437.462Z" fill="#DAF2EE"/>
<path d="M464.327 446.76V446.759C465.626 443.668 467.604 440.869 470.131 438.686C470.633 438.251 471.156 437.843 471.697 437.46V437.462C471.156 437.845 470.633 438.254 470.131 438.688C467.605 440.872 465.626 443.67 464.327 446.76Z" fill="#8920EC"/>
<path d="M498.987 419.267C498.991 419.267 498.994 419.265 498.998 419.264C498.994 419.265 498.99 419.267 498.987 419.267Z" fill="#DAF2EE"/>
<path d="M462.647 457.295C462.322 453.712 462.935 450.069 464.327 446.76C465.626 443.67 467.605 440.872 470.131 438.688C470.633 438.254 471.156 437.845 471.697 437.462C475.372 434.86 479.869 433.46 484.358 433.46C486.087 433.46 487.813 433.668 489.491 434.094C489.491 434.093 489.491 434.092 489.491 434.092L489.497 434.087C489.469 433.699 489.45 433.311 489.455 432.923C489.458 432.61 489.481 432.297 489.506 431.985C489.512 431.911 489.512 431.838 489.518 431.766C489.554 431.395 489.606 431.025 489.672 430.659L489.678 430.62C489.741 430.271 489.82 429.925 489.907 429.581L489.928 429.49C491.129 424.932 494.512 420.928 498.916 419.294C498.917 419.294 498.917 419.293 498.918 419.293C498.941 419.284 498.964 419.276 498.987 419.267C498.99 419.267 498.994 419.265 498.998 419.264C499.004 419.262 499.008 419.26 499.014 419.258C499.02 419.256 499.025 419.254 499.03 419.252C499.035 419.25 499.039 419.249 499.044 419.247C499.054 419.243 499.064 419.24 499.074 419.236C500.537 418.715 502.077 418.467 503.62 418.467C508.338 418.467 513.086 420.787 515.768 424.736C515.365 423.608 515.177 422.428 515.178 421.245C515.181 417.695 516.88 414.109 519.56 411.735C522.711 408.944 526.972 407.693 531.185 407.693C531.749 407.693 532.313 407.715 532.872 407.76C538.487 408.203 544.022 410.827 547.481 415.314C547.487 415.322 547.494 415.33 547.499 415.338C549.073 417.388 550.154 419.832 550.657 422.377C547.645 419.911 543.912 418.348 539.737 417.887C538.945 417.8 538.147 417.756 537.351 417.756C534.648 417.756 531.947 418.259 529.437 419.272C525.451 420.879 522.927 423.624 519.891 426.533C518.097 428.253 516.689 428.454 514.303 428.662C511.615 428.898 509.142 429.423 506.667 430.517C503.882 431.746 499.887 432.447 496.376 433.507C493.455 434.388 491.537 437.243 491.889 440.274C492.595 446.346 490.686 456.005 482.295 457.237L479.757 457.254V457.257L462.647 457.295Z" fill="#71CEAC"/>
<path d="M476.443 426.911C482.322 429.04 486.736 434.882 487.175 441.163C487.659 448.106 483.431 455.062 477.168 458.096L408.597 457.274C405.449 453.803 404.239 448.679 405.503 444.166C406.766 439.654 410.46 435.904 414.954 434.572C419.446 433.241 424.587 434.374 428.106 437.468C427.534 432.678 430.154 427.747 434.277 425.243C438.401 422.74 443.783 422.628 448.167 424.642C452.55 426.656 455.9 430.65 457.468 435.211C460.098 428.768 467.736 424.917 474.543 426.366C475.19 426.504 475.825 426.687 476.443 426.911Z" fill="#82D3AE"/>
<path d="M593.209 459.154L1.55874 458.095C0.973774 458.095 0.5 457.621 0.5 457.037C0.5 456.451 0.973774 455.978 1.55874 455.978L593.209 457.037C593.795 457.037 594.269 457.51 594.269 458.096C594.269 458.68 593.795 459.154 593.209 459.154Z" fill="#B68FCE"/>
<path d="M373.938 20.6119H421.184C426.432 20.6119 430.726 16.3185 430.726 11.07C430.726 5.82295 426.432 1.52881 421.184 1.52881H373.938C368.691 1.52881 364.396 5.82295 364.396 11.07C364.396 16.3185 368.691 20.6119 373.938 20.6119Z" fill="#F68C8E"/>
<path d="M372.27 19.0831H419.517C424.764 19.0831 429.059 14.7897 429.059 9.5412C429.059 4.29414 424.764 3.8147e-06 419.517 3.8147e-06H372.27C367.022 3.8147e-06 362.729 4.29414 362.729 9.5412C362.729 14.7897 367.022 19.0831 372.27 19.0831Z" fill="#FABABC"/>
<path d="M388.111 19.083L380.099 28.2081V19.083H388.111Z" fill="#F68C8E"/>
<path d="M386.768 18.6663L380.099 26.2628V18.6663H386.768Z" fill="#FABABC"/>
<path d="M411.99 9.54115C411.99 10.8593 413.058 11.9266 414.375 11.9266C415.693 11.9266 416.761 10.8593 416.761 9.54115C416.761 8.22444 415.693 7.15567 414.375 7.15567C413.058 7.15567 411.99 8.22444 411.99 9.54115Z" fill="#F68C8E"/>
<path d="M399.9 9.54115C399.9 10.8593 400.968 11.9266 402.286 11.9266C403.603 11.9266 404.671 10.8593 404.671 9.54115C404.671 8.22444 403.603 7.15567 402.286 7.15567C400.968 7.15567 399.9 8.22444 399.9 9.54115Z" fill="#F68C8E"/>
<path d="M387.532 9.54115C387.532 10.8593 388.601 11.9266 389.918 11.9266C391.236 11.9266 392.303 10.8593 392.303 9.54115C392.303 8.22444 391.236 7.15567 389.918 7.15567C388.601 7.15567 387.532 8.22444 387.532 9.54115Z" fill="#F68C8E"/>
<path d="M375.026 9.54115C375.026 10.8593 376.094 11.9266 377.411 11.9266C378.729 11.9266 379.797 10.8593 379.797 9.54115C379.797 8.22444 378.729 7.15567 377.411 7.15567C376.094 7.15567 375.026 8.22444 375.026 9.54115Z" fill="#F68C8E"/>
<defs>
<clipPath id="clip0_358_1235">
<rect width="62" height="105" fill="white" transform="translate(270 14)"/>
</clipPath>
</defs>
</svg>
