<svg width="189" height="107" viewBox="0 0 189 107" fill="none" xmlns="http://www.w3.org/2000/svg">
<g filter="url(#filter0_d_358_1296)">
<path d="M144.665 98.4858H8.97561C6.23869 98.4858 4 96.2463 4 93.5102V4.9758C4 2.23921 6.23869 0.000190735 8.97561 0.000190735H144.665C147.401 0.000190735 149.641 2.23921 149.641 4.9758V93.5102C149.641 96.2463 147.401 98.4858 144.665 98.4858Z" fill="#F3E4F4"/>
<path d="M149.641 14.8253H4V4.9757C4 2.23953 6.23869 8.86917e-05 8.97561 8.86917e-05H144.665C147.401 8.86917e-05 149.641 2.23953 149.641 4.9757V14.8253Z" fill="#CDAADA"/>
<path d="M13.1381 7.41294C13.1381 8.5366 12.227 9.44754 11.1033 9.44754C9.97974 9.44754 9.06866 8.5366 9.06866 7.41294C9.06866 6.28928 9.97974 5.37833 11.1033 5.37833C12.227 5.37833 13.1381 6.28928 13.1381 7.41294Z" fill="#B68FCE"/>
<path d="M20.1346 7.41294C20.1346 8.5366 19.2237 9.44754 18.0999 9.44754C16.9762 9.44754 16.0651 8.5366 16.0651 7.41294C16.0651 6.28928 16.9762 5.37833 18.0999 5.37833C19.2237 5.37833 20.1346 6.28928 20.1346 7.41294Z" fill="#B68FCE"/>
<path d="M27.3452 7.41294C27.3452 8.5366 26.4342 9.44754 25.3105 9.44754C24.1869 9.44754 23.2759 8.5366 23.2759 7.41294C23.2759 6.28928 24.1869 5.37833 25.3105 5.37833C26.4342 5.37833 27.3452 6.28928 27.3452 7.41294Z" fill="#B68FCE"/>
<path d="M9.3269 27.1899L13.5392 25.0537V26.2275L10.5161 27.7003L13.5392 29.2154V30.3963L9.3269 28.2277V27.1899Z" fill="#B68FCE"/>
<path d="M14.5925 30.7905L17.1365 23.8906H18.2287L15.6923 30.7905H14.5925Z" fill="#B68FCE"/>
<path d="M23.4924 28.2592L19.2806 30.3963V29.2137L22.3037 27.741L19.2806 26.2259V25.0537L23.4924 27.221V28.2592Z" fill="#B68FCE"/>
<path d="M116.992 28.7173H28.0717C27.5323 28.7173 27.0907 28.2757 27.0907 27.7363V27.7135C27.0907 27.1736 27.5323 26.732 28.0717 26.732H116.992C117.532 26.732 117.974 27.1736 117.974 27.7135V27.7363C117.974 28.2757 117.532 28.7173 116.992 28.7173Z" fill="#CDAADA"/>
<path d="M110.085 35.4642H56.843C56.3032 35.4642 55.862 35.0226 55.862 34.4832V34.4608C55.862 33.921 56.3032 33.4789 56.843 33.4789H110.085C110.624 33.4789 111.066 33.921 111.066 34.4608V34.4832C111.066 35.0226 110.624 35.4642 110.085 35.4642Z" fill="#82D3AE"/>
<path d="M143.845 28.7173H121.31C120.771 28.7173 120.329 28.2757 120.329 27.7363V27.7135C120.329 27.1736 120.771 26.732 121.31 26.732H143.845C144.385 26.732 144.826 27.1736 144.826 27.7135V27.7363C144.826 28.2757 144.385 28.7173 143.845 28.7173Z" fill="white"/>
<path d="M76.3341 42.5843H10.3084C9.76861 42.5843 9.3269 42.1431 9.3269 41.6033V41.5805C9.3269 41.0411 9.76861 40.5995 10.3084 40.5995H76.3341C76.8735 40.5995 77.3151 41.0411 77.3151 41.5805V41.6033C77.3151 42.1431 76.8735 42.5843 76.3341 42.5843Z" fill="#CDAADA"/>
<path d="M143.845 42.5843H117.437C116.898 42.5843 116.456 42.1431 116.456 41.6033V41.5805C116.456 41.0411 116.898 40.5995 117.437 40.5995H143.845C144.385 40.5995 144.826 41.0411 144.826 41.5805V41.6033C144.826 42.1431 144.385 42.5843 143.845 42.5843Z" fill="white"/>
<path d="M113.351 42.5843H80.8132C80.2733 42.5843 79.8317 42.1431 79.8317 41.6033V41.5805C79.8317 41.0411 80.2733 40.5995 80.8132 40.5995H113.351C113.891 40.5995 114.332 41.0411 114.332 41.5805V41.6033C114.332 42.1431 113.891 42.5843 113.351 42.5843Z" fill="#82D3AE"/>
<path d="M36.3186 68.4285H9.79694C9.25763 68.4285 8.81592 67.9873 8.81592 67.4475V67.4246C8.81592 66.8852 9.25763 66.4432 9.79694 66.4432H36.3186C36.858 66.4432 37.2996 66.8852 37.2996 67.4246V67.4475C37.2996 67.9873 36.858 68.4285 36.3186 68.4285Z" fill="#CDAADA"/>
<path d="M143.334 68.4285H94.6096C94.0697 68.4285 93.6285 67.9873 93.6285 67.4475V67.4246C93.6285 66.8852 94.0697 66.4432 94.6096 66.4432H143.334C143.874 66.4432 144.315 66.8852 144.315 67.4246V67.4475C144.315 67.9873 143.874 68.4285 143.334 68.4285Z" fill="white"/>
<path d="M89.8628 68.4285H40.7083C40.1685 68.4285 39.7273 67.9873 39.7273 67.4475V67.4246C39.7273 66.8852 40.1685 66.4432 40.7083 66.4432H89.8628C90.4027 66.4432 90.8438 66.8852 90.8438 67.4246V67.4475C90.8438 67.9873 90.4027 68.4285 89.8628 68.4285Z" fill="#82D3AE"/>
<path d="M51.9533 77.9954H9.79543C9.25578 77.9954 8.8139 77.5538 8.8139 77.0139V76.9915C8.8139 76.4517 9.25578 76.0105 9.79543 76.0105H51.9533C52.4931 76.0105 52.9347 76.4517 52.9347 76.9915V77.0139C52.9347 77.5538 52.4931 77.9954 51.9533 77.9954Z" fill="#CDAADA"/>
<path d="M143.332 77.9954H101.249C100.709 77.9954 100.268 77.5538 100.268 77.0139V76.9915C100.268 76.4517 100.709 76.0105 101.249 76.0105H143.332C143.872 76.0105 144.313 76.4517 144.313 76.9915V77.0139C144.313 77.5538 143.872 77.9954 143.332 77.9954Z" fill="white"/>
<path d="M96.5737 77.9954H57.2714C56.7319 77.9954 56.2899 77.5538 56.2899 77.0139V76.9915C56.2899 76.4517 56.7319 76.0105 57.2714 76.0105H96.5737C97.1132 76.0105 97.5551 76.4517 97.5551 76.9915V77.0139C97.5551 77.5538 97.1132 77.9954 96.5737 77.9954Z" fill="#82D3AE"/>
<path d="M143.845 59.2144H106.461C105.921 59.2144 105.48 58.7728 105.48 58.2334V58.2106C105.48 57.6707 105.921 57.2296 106.461 57.2296H143.845C144.385 57.2296 144.826 57.6707 144.826 58.2106V58.2334C144.826 58.7728 144.385 59.2144 143.845 59.2144Z" fill="white"/>
<path d="M102.213 59.2144H69.6754C69.1359 59.2144 68.6943 58.7728 68.6943 58.2334V58.2106C68.6943 57.6707 69.1359 57.2296 69.6754 57.2296H102.213C102.753 57.2296 103.195 57.6707 103.195 58.2106V58.2334C103.195 58.7728 102.753 59.2144 102.213 59.2144Z" fill="#82D3AE"/>
<path d="M59.5211 51.4302H10.3084C9.76861 51.4302 9.3269 50.9891 9.3269 50.4492V50.4264C9.3269 49.887 9.76861 49.4454 10.3084 49.4454H59.5211C60.0605 49.4454 60.5021 49.887 60.5021 50.4264V50.4492C60.5021 50.9891 60.0605 51.4302 59.5211 51.4302Z" fill="#CDAADA"/>
<path d="M113.351 51.4302H63.7678C63.2279 51.4302 62.7867 50.9891 62.7867 50.4492V50.4264C62.7867 49.887 63.2279 49.4454 63.7678 49.4454H113.351C113.89 49.4454 114.332 49.887 114.332 50.4264V50.4492C114.332 50.9891 113.89 51.4302 113.351 51.4302Z" fill="#82D3AE"/>
<path d="M143.845 35.4642H114.171C113.631 35.4642 113.19 35.0226 113.19 34.4832V34.4604C113.19 33.9209 113.631 33.4789 114.171 33.4789H143.845C144.385 33.4789 144.826 33.9209 144.826 34.4604V34.4832C144.826 35.0226 144.385 35.4642 143.845 35.4642Z" fill="white"/>
<path d="M149.641 52.9079H140.21C138.607 52.9079 137.308 51.6084 137.308 50.0054V42.5843H143.845C144.385 42.5843 144.826 42.1431 144.826 41.6033V41.5805C144.826 41.041 144.385 40.5994 143.845 40.5994H137.308V35.4642H143.845C144.385 35.4642 144.826 35.0226 144.826 34.4832V34.4604C144.826 33.9209 144.385 33.4789 143.845 33.4789H137.308V28.7173H143.845C144.385 28.7173 144.826 28.2757 144.826 27.7362V27.7134C144.826 27.1736 144.385 26.732 143.845 26.732H137.308V21.8592C137.308 20.2563 138.607 18.9568 140.21 18.9568H149.641V52.9079Z" fill="#E1C6E7"/>
<path d="M143.845 28.7173H137.308V26.732H143.845C144.385 26.732 144.826 27.1736 144.826 27.7135V27.7363C144.826 28.2757 144.385 28.7173 143.845 28.7173Z" fill="#EAD5ED"/>
<path d="M143.845 42.5843H137.308V40.5995H143.845C144.385 40.5995 144.826 41.0411 144.826 41.5805V41.6033C144.826 42.1431 144.385 42.5843 143.845 42.5843Z" fill="#EAD5ED"/>
<path d="M143.845 35.4642H137.308V33.4789H143.845C144.385 33.4789 144.826 33.9209 144.826 34.4604V34.4832C144.826 35.0226 144.385 35.4642 143.845 35.4642Z" fill="#EAD5ED"/>
<path d="M182.076 49.4453H143.395C141.954 49.4453 140.775 48.517 140.775 47.3829V23.7591C140.775 22.6251 141.954 21.6968 143.395 21.6968H182.076C183.517 21.6968 184.696 22.6251 184.696 23.7591V47.3829C184.696 48.517 183.517 49.4453 182.076 49.4453Z" fill="#FDE9AA"/>
<path d="M184.696 27.995H140.775V24.3164C140.775 22.8755 141.954 21.6967 143.395 21.6967H182.076C183.517 21.6967 184.696 22.8755 184.696 24.3164V27.995Z" fill="#FCD66A"/>
<path d="M146.321 24.8459C146.321 25.5305 145.766 26.0861 145.081 26.0861C144.396 26.0861 143.841 25.5305 143.841 24.8459C143.841 24.1609 144.396 23.6057 145.081 23.6057C145.766 23.6057 146.321 24.1609 146.321 24.8459Z" fill="#FABE2C"/>
<path d="M150.166 24.8459C150.166 25.5305 149.611 26.0861 148.927 26.0861C148.242 26.0861 147.687 25.5305 147.687 24.8459C147.687 24.1609 148.242 23.6057 148.927 23.6057C149.611 23.6057 150.166 24.1609 150.166 24.8459Z" fill="#FABE2C"/>
<path d="M154.068 24.846C154.068 25.5306 153.513 26.0862 152.828 26.0862C152.143 26.0862 151.588 25.5306 151.588 24.846C151.588 24.161 152.143 23.6058 152.828 23.6058C153.513 23.6058 154.068 24.161 154.068 24.846Z" fill="#FABE2C"/>
<path d="M145.094 33.479H147.025V36.9624H150.618V33.479H152.549V42.4102H150.618V38.5454H147.025V42.4102H145.094V33.479Z" fill="#FABE2C"/>
<path d="M156.599 35.0617H153.886V33.479H161.235V35.0617H158.532V42.4102H156.599V35.0617Z" fill="#FABE2C"/>
<path d="M169.985 39.06C169.985 37.5362 170.011 35.8283 170.048 34.8191H169.987C169.567 36.6402 168.674 39.616 167.818 42.4102H166.173C165.522 39.9676 164.598 36.5772 164.207 34.7934H164.147C164.223 35.842 164.26 37.6792 164.26 39.2113V42.4102H162.5V33.479H165.375C166.071 35.8126 166.851 38.7395 167.119 40.0709H167.134C167.353 38.8979 168.333 35.767 169.079 33.479H171.848V42.4102H169.985V39.06Z" fill="#FABE2C"/>
<path d="M173.996 33.479H175.928V40.8272H180.377L180.155 42.4102H173.996V33.479Z" fill="#FABE2C"/>
</g>
<defs>
<filter id="filter0_d_358_1296" x="0" y="9.15527e-05" width="188.696" height="106.486" filterUnits="userSpaceOnUse" color-interpolation-filters="sRGB">
<feFlood flood-opacity="0" result="BackgroundImageFix"/>
<feColorMatrix in="SourceAlpha" type="matrix" values="0 0 0 0 0 0 0 0 0 0 0 0 0 0 0 0 0 0 127 0" result="hardAlpha"/>
<feOffset dy="4"/>
<feGaussianBlur stdDeviation="2"/>
<feComposite in2="hardAlpha" operator="out"/>
<feColorMatrix type="matrix" values="0 0 0 0 0 0 0 0 0 0 0 0 0 0 0 0 0 0 0.25 0"/>
<feBlend mode="normal" in2="BackgroundImageFix" result="effect1_dropShadow_358_1296"/>
<feBlend mode="normal" in="SourceGraphic" in2="effect1_dropShadow_358_1296" result="shape"/>
</filter>
</defs>
</svg>
