<svg width="18" height="18" viewBox="0 0 18 18" fill="none" xmlns="http://www.w3.org/2000/svg">
<path d="M13.163 5.97063C13.7183 5.97063 14.1684 5.52052 14.1684 4.96529C14.1684 4.41006 13.7183 3.95996 13.163 3.95996C12.6078 3.95996 12.1577 4.41006 12.1577 4.96529C12.1577 5.52052 12.6078 5.97063 13.163 5.97063Z" fill="white"/>
<path fill-rule="evenodd" clip-rule="evenodd" d="M4.6333 9.2675C4.6333 11.5777 6.51202 13.4564 8.82219 13.4564C11.1324 13.4564 13.0111 11.5777 13.0111 9.2675C13.0111 6.95733 11.1324 5.07861 8.82219 5.07861C6.51202 5.07861 4.6333 6.95733 4.6333 9.2675ZM6.72778 9.26758C6.72778 8.11249 7.66714 7.17313 8.82222 7.17313C9.97731 7.17313 10.9167 8.11249 10.9167 9.26758C10.9167 10.4227 9.97731 11.362 8.82222 11.362C7.66714 11.362 6.72778 10.4227 6.72778 9.26758Z" fill="white"/>
<path fill-rule="evenodd" clip-rule="evenodd" d="M4.63335 17.6452H13.0111C15.1642 17.6452 17.2 15.6094 17.2 13.4563V5.07854C17.2 2.92545 15.1642 0.889648 13.0111 0.889648H4.63335C2.48026 0.889648 0.444458 2.92545 0.444458 5.07854V13.4563C0.444458 15.6094 2.48026 17.6452 4.63335 17.6452ZM2.53889 5.07869C2.53889 4.09954 3.65418 2.98424 4.63333 2.98424H13.0111C13.9903 2.98424 15.1056 4.09954 15.1056 5.07869V13.4565C15.1056 14.4356 13.9903 15.5509 13.0111 15.5509H4.63333C3.63533 15.5509 2.53889 14.4545 2.53889 13.4565V5.07869Z" fill="white"/>
</svg>
