<svg width="24" height="24" viewBox="0 0 24 24" fill="none" xmlns="http://www.w3.org/2000/svg">
<g clip-path="url(#clip0_363_6450)">
<path d="M23.7041 0.348759C23.48 0.12465 23.1713 0.0200716 22.8571 0.0615091L21.2054 0.280134C18.0867 0.692962 15.144 2.14534 12.9195 4.36979L11.9707 5.31863C9.6609 5.05276 7.31697 5.8652 5.66898 7.51285L2.99804 10.1843C2.73428 10.4481 2.63832 10.8195 2.7414 11.1779C2.84439 11.5362 3.12292 11.7998 3.48625 11.8831L5.584 12.3648C5.55217 12.6857 5.59501 13.0137 5.71581 13.319L4.75248 13.8377C4.46856 13.9906 4.27886 14.2614 4.23203 14.5805C4.18525 14.8996 4.28922 15.2135 4.51726 15.4416L5.67367 16.598C5.74234 16.6666 5.83234 16.7009 5.92229 16.7009C6.01225 16.7009 6.10225 16.6666 6.17092 16.598C6.30822 16.4606 6.30822 16.2381 6.17092 16.1008L5.01451 14.9444C4.94514 14.875 4.91354 14.7796 4.92775 14.6826C4.94195 14.5855 4.99961 14.5032 5.08586 14.4568L6.08509 13.9188C6.11204 13.9491 10.1038 17.9404 10.1342 17.9673L9.59556 18.9675C9.54915 19.0536 9.46703 19.1112 9.37018 19.1254C9.27297 19.1395 9.17804 19.108 9.1089 19.0388L7.21759 17.1475C7.08025 17.0102 6.85768 17.0102 6.72039 17.1475C6.58309 17.2848 6.58309 17.5074 6.72039 17.6447L8.6117 19.536C8.80379 19.7281 9.05664 19.832 9.32228 19.832C9.37197 19.832 9.42208 19.8284 9.47228 19.821C9.79122 19.7742 10.0618 19.5846 10.2146 19.3007L10.7344 18.3356C10.9751 18.4307 11.2295 18.4786 11.4836 18.4786C11.5517 18.4786 11.6198 18.4751 11.6876 18.4684L12.1694 20.5666C12.2527 20.93 12.5165 21.2084 12.875 21.3114C12.9698 21.3387 13.0655 21.352 13.1599 21.352C13.4225 21.352 13.6748 21.2488 13.8687 21.0548L16.5397 18.3835C18.1876 16.7355 19.0003 14.3918 18.7339 12.0825L19.5649 11.2515C19.7023 11.1142 19.7023 10.8916 19.565 10.7543C19.4277 10.6171 19.2051 10.617 19.0678 10.7543L12.435 17.3866C11.9959 17.8257 11.2976 17.9037 10.7735 17.5715C10.691 17.5196 10.6133 17.4573 10.5424 17.3866C10.5424 17.3866 6.53247 13.3616 6.48039 13.2783C6.1487 12.7551 6.2267 12.0569 6.66597 11.618L9.01295 9.27099C9.15025 9.13365 9.15025 8.91109 9.01295 8.77379C8.87561 8.63654 8.65304 8.63654 8.51575 8.77379L6.16881 11.1207C6.00137 11.288 5.86839 11.48 5.77093 11.6864L3.64351 11.1978C3.48428 11.1613 3.43215 11.0358 3.41711 10.9836C3.40211 10.9313 3.37956 10.7971 3.49525 10.6814L6.16614 8.01006C7.52593 6.65059 9.40736 5.91774 11.3134 5.97592L9.36147 7.92784C9.22417 8.06518 9.22417 8.28774 9.36147 8.42504C9.49881 8.56229 9.72137 8.56229 9.85867 8.42504L13.4167 4.86699C15.5325 2.7512 18.3313 1.36979 21.2976 0.977212L22.9493 0.758587C23.0448 0.745884 23.1386 0.777712 23.2068 0.845869C23.2749 0.914025 23.3067 1.00782 23.294 1.10331L23.0754 2.75499C22.7386 5.30012 21.696 7.69229 20.0602 9.67299C19.9366 9.82267 19.9577 10.0443 20.1075 10.1679C20.1729 10.222 20.2523 10.2484 20.3311 10.2484C20.4324 10.2484 20.5329 10.2049 20.6024 10.1207C22.3221 8.03828 23.4183 5.5232 23.7725 2.84729L23.9911 1.1956C24.0328 0.881493 23.9281 0.572822 23.7041 0.348759ZM12.9321 17.8839L18.0772 12.7391C18.1358 14.6449 17.4024 16.5264 16.0424 17.8864L13.3715 20.5577C13.2558 20.6733 13.1215 20.6507 13.0692 20.6357C13.0169 20.6207 12.8912 20.5685 12.8546 20.4093L12.366 18.2812C12.5725 18.1838 12.7647 18.0512 12.9321 17.8839Z" fill="white"/>
<path d="M19.7557 4.29695C19.3239 3.86504 18.7497 3.6272 18.1389 3.6272C17.5282 3.6272 16.954 3.86504 16.5221 4.2969C15.6306 5.18842 15.6306 6.63901 16.5221 7.53053C16.9679 7.97626 17.5534 8.19915 18.1389 8.19915C18.7244 8.19915 19.31 7.97626 19.7557 7.53053C20.6472 6.63906 20.6472 5.18842 19.7557 4.29695ZM19.2585 7.03332C18.6412 7.65067 17.6367 7.65071 17.0193 7.03337C16.402 6.41598 16.402 5.41145 17.0193 4.7941C17.3184 4.49504 17.716 4.33032 18.1389 4.33032C18.5619 4.33032 18.9595 4.49504 19.2585 4.79415C19.8759 5.41149 19.8759 6.41598 19.2585 7.03332Z" fill="white"/>
<path d="M6.31989 17.7366C6.18255 17.5994 5.95998 17.5994 5.82269 17.7366L1.25556 22.3037C1.11826 22.4411 1.11826 22.6636 1.25556 22.8009C1.32423 22.8696 1.41423 22.9039 1.50419 22.9039C1.59414 22.9039 1.68414 22.8696 1.75281 22.8009L6.31994 18.2338C6.45719 18.0965 6.45719 17.8739 6.31989 17.7366Z" fill="white"/>
<path d="M5.12919 16.6221C4.99185 16.4849 4.76929 16.4849 4.63199 16.6221L0.102973 21.1512C-0.0343242 21.2885 -0.0343242 21.5111 0.102973 21.6484C0.171645 21.717 0.261645 21.7513 0.351598 21.7513C0.441551 21.7513 0.531551 21.717 0.600223 21.6484L5.12924 17.1194C5.26649 16.982 5.26649 16.7594 5.12919 16.6221Z" fill="white"/>
<path d="M7.46863 18.8853C7.33128 18.748 7.10872 18.748 6.97138 18.8853L2.50934 23.3473C2.37205 23.4847 2.37205 23.7072 2.50934 23.8445C2.57802 23.9131 2.66802 23.9475 2.75797 23.9475C2.84792 23.9475 2.93792 23.9131 3.00659 23.8445L7.46863 19.3825C7.60592 19.2451 7.60592 19.0226 7.46863 18.8853Z" fill="white"/>
<path d="M11.0188 15.3879L8.66455 13.0337C8.52716 12.8965 8.3046 12.8965 8.1673 13.0337C8.03001 13.1711 8.03001 13.3936 8.1673 13.5309L10.5215 15.8851C10.5902 15.9538 10.6802 15.9881 10.7701 15.9881C10.8601 15.9881 10.9501 15.9538 11.0188 15.8851C11.1561 15.7478 11.1561 15.5252 11.0188 15.3879Z" fill="white"/>
<path d="M10.0392 12.9724L9.38252 12.3157C9.24518 12.1785 9.02262 12.1785 8.88532 12.3157C8.74802 12.453 8.74802 12.6756 8.88532 12.8129L9.54204 13.4696C9.61071 13.5383 9.70071 13.5726 9.79062 13.5726C9.88057 13.5726 9.97057 13.5383 10.0392 13.4696C10.1765 13.3323 10.1765 13.1097 10.0392 12.9724Z" fill="white"/>
</g>
<defs>
<clipPath id="clip0_363_6450">
<rect width="24" height="24" fill="white"/>
</clipPath>
</defs>
</svg>
