<svg width="25" height="25" viewBox="0 0 25 25" fill="none" xmlns="http://www.w3.org/2000/svg">
<path d="M16.4658 8.33691C18.0571 8.33691 19.5832 8.96906 20.7085 10.0943C21.8337 11.2195 22.4658 12.7456 22.4658 14.3369V21.3369H18.4658V14.3369C18.4658 13.8065 18.2551 13.2978 17.88 12.9227C17.505 12.5476 16.9963 12.3369 16.4658 12.3369C15.9354 12.3369 15.4267 12.5476 15.0516 12.9227C14.6765 13.2978 14.4658 13.8065 14.4658 14.3369V21.3369H10.4658V14.3369C10.4658 12.7456 11.098 11.2195 12.2232 10.0943C13.3484 8.96906 14.8745 8.33691 16.4658 8.33691Z" fill="#8920EC"/>
<path d="M6.46582 9.33691H2.46582V21.3369H6.46582V9.33691Z" fill="#8920EC"/>
<path d="M4.46582 6.33691C5.57039 6.33691 6.46582 5.44148 6.46582 4.33691C6.46582 3.23234 5.57039 2.33691 4.46582 2.33691C3.36125 2.33691 2.46582 3.23234 2.46582 4.33691C2.46582 5.44148 3.36125 6.33691 4.46582 6.33691Z" fill="#8920EC"/>
</svg>
