<svg width="19" height="19" viewBox="0 0 19 19" fill="none" xmlns="http://www.w3.org/2000/svg">
<path d="M2.79719 5.23965C3.99841 5.23965 4.97219 4.26587 4.97219 3.06465C4.97219 1.86343 3.99841 0.889648 2.79719 0.889648C1.59597 0.889648 0.622192 1.86343 0.622192 3.06465C0.622192 4.26587 1.59597 5.23965 2.79719 5.23965Z" fill="white"/>
<path d="M4.60969 6.68994H0.984692C0.784592 6.68994 0.622192 6.85234 0.622192 7.05244V17.9274C0.622192 18.1275 0.784592 18.2899 0.984692 18.2899H4.60969C4.80979 18.2899 4.97219 18.1275 4.97219 17.9274V7.05244C4.97219 6.85234 4.80979 6.68994 4.60969 6.68994Z" fill="white"/>
<path d="M15.4101 6.19036C13.8607 5.65966 11.9228 6.12584 10.7606 6.96176C10.7208 6.80589 10.5787 6.68989 10.4097 6.68989H6.78474C6.58464 6.68989 6.42224 6.85229 6.42224 7.05239V17.9274C6.42224 18.1275 6.58464 18.2899 6.78474 18.2899H10.4097C10.6098 18.2899 10.7722 18.1275 10.7722 17.9274V10.1119C11.358 9.60729 12.1128 9.44634 12.7305 9.70879C13.3293 9.96181 13.6722 10.5795 13.6722 11.4024V17.9274C13.6722 18.1275 13.8346 18.2899 14.0347 18.2899H17.6597C17.8598 18.2899 18.0222 18.1275 18.0222 17.9274V10.6723C17.9809 7.69329 16.5795 6.59056 15.4101 6.19036Z" fill="white"/>
</svg>
