<svg width="44" height="65" viewBox="0 0 44 65" fill="none" xmlns="http://www.w3.org/2000/svg">
<path d="M19.9974 64.0773H11.7193C10.4146 64.0773 9.26809 63.9974 8.26007 63.8463H8.71286H22.9367H23.3655C22.414 63.9932 21.3035 64.0773 19.9974 64.0773Z" fill="#CE79C3"/>
<path d="M32.31 48.3012C28.9413 48.3012 26.2103 45.5695 26.2103 42.2008C26.2103 38.8313 28.9413 36.1004 32.31 36.1004C35.6788 36.1004 38.4097 38.8313 38.4097 42.2008C38.4097 45.5695 35.6788 48.3012 32.31 48.3012ZM33.8422 31.3697C28.3006 31.3697 23.8079 36.2191 23.8079 42.2008C23.8079 48.1825 28.3006 53.0319 33.8422 53.0319C39.3838 53.0319 43.8772 48.1825 43.8772 42.2008C43.8772 36.2191 39.3838 31.3697 33.8422 31.3697Z" fill="#F790C3"/>
<path d="M32.3101 48.3014C31.7556 48.3014 31.2181 48.2272 30.7073 48.0888V48.0881C31.2181 48.2265 31.7556 48.3007 32.3101 48.3007V48.3014Z" fill="#F684C1"/>
<path d="M32.3101 52.9061C31.7599 52.815 31.2244 52.6759 30.7073 52.4929V48.0885C31.2181 48.227 31.7556 48.3012 32.3101 48.3012V52.9061Z" fill="#F363AD"/>
<path d="M30.7073 36.3131V31.9088C31.2244 31.7258 31.7599 31.5867 32.3101 31.4955V36.1005C31.7556 36.1005 31.2181 36.1747 30.7073 36.3131Z" fill="#F363AD"/>
<path d="M14.8496 35.438L13.7723 34.8156C12.8943 34.3084 12.5913 33.1754 13.0977 32.2974L30.8472 1.55382C31.3544 0.675777 32.4881 0.372044 33.3662 0.87923L34.4427 1.50156C35.3208 2.00805 35.6252 3.1418 35.118 4.01984L17.3686 34.7626C16.8614 35.6407 15.7276 35.9451 14.8496 35.438Z" fill="#FBC3D6"/>
<path d="M22.2126 26.3722H16.5184L18.0018 23.8024H23.696L22.2126 26.3722Z" fill="#F9ACCD"/>
<path d="M22.9369 63.8461H8.71298C4.44003 63.8461 0.942688 60.3487 0.942688 56.0751V26.372H30.7072V56.0751C30.7072 60.3487 27.2112 63.8461 22.9369 63.8461Z" fill="#FBC3D6"/>
<path d="M5.30476 63.0536C3.39468 62.2384 2.31884 60.9817 1.71417 59.4411C2.47354 61.0072 3.74364 62.285 5.30476 63.0536Z" fill="#FABEDA"/>
<path d="M22.9369 63.8461H8.71298C8.50954 63.8461 8.30822 63.8376 8.10831 63.822C7.01623 63.6483 6.08945 63.3876 5.30465 63.0535C3.74353 62.2849 2.47343 61.0071 1.71406 59.441C0.9999 57.6206 0.942688 55.4047 0.942688 53.056V44.3991C3.15581 47.5701 5.92909 50.3717 8.83377 52.5587C14.3599 56.7179 22.7016 58.7735 29.3749 60.3466C28.4163 61.6541 27.1752 63.2252 23.4886 63.8263C23.3063 63.839 23.1219 63.8461 22.9369 63.8461Z" fill="#F9ACCD"/>
<path d="M0.942688 33.4388H30.7071V26.3722H0.942688V33.4388Z" fill="#F790C3"/>
<path d="M25.8846 33.4388H0.942688V26.3721C4.59049 28.9801 9.24206 29.796 13.4719 30.9714C17.5619 32.1087 21.7176 32.7981 25.8846 33.4388Z" fill="#F363AD"/>
</svg>
