<svg width="24" height="24" viewBox="0 0 24 24" fill="none" xmlns="http://www.w3.org/2000/svg">
<g clip-path="url(#clip0_361_6319)">
<path d="M8.2678 0C12.8266 0 16.5356 3.7089 16.5356 8.2678C16.5356 10.1436 15.9072 11.8752 14.8506 13.264L16.5254 14.9389C16.5361 14.9495 16.5458 14.9607 16.5549 14.9722C16.692 14.9437 16.8329 14.9287 16.9762 14.9287C17.5231 14.9287 18.0373 15.1417 18.4241 15.5285L23.4003 20.5047C23.7871 20.8914 24 21.4055 24 21.9524C24 22.4994 23.7871 23.0136 23.4004 23.4001C23.0135 23.787 22.4993 23.9999 21.9524 23.9999C21.4056 23.9999 20.8914 23.787 20.5045 23.4001L15.5283 18.4239C15.1416 18.0373 14.9286 17.5232 14.9286 16.9762C14.9286 16.8329 14.9436 16.6919 14.9722 16.5548C14.9607 16.5457 14.9495 16.536 14.9389 16.5254L13.2641 14.8506C11.8752 15.9073 10.1436 16.5356 8.2678 16.5356C3.70895 16.5356 0 12.8267 0 8.2678C0 3.7089 3.70895 0 8.2678 0ZM21.0544 22.8503C21.2943 23.0903 21.6132 23.2224 21.9524 23.2224C22.2916 23.2224 22.6105 23.0903 22.8505 22.8503C23.0904 22.6105 23.2225 22.2917 23.2225 21.9524C23.2225 21.6132 23.0904 21.2943 22.8505 21.0545L18.3564 16.5605L16.5605 18.3564L21.0544 22.8503ZM16.0134 17.8039L17.8032 16.0141C17.566 15.8101 17.2715 15.707 16.9762 15.707C16.651 15.707 16.3257 15.8308 16.0781 16.0784C15.8383 16.3181 15.7062 16.637 15.7062 16.9763C15.7062 17.2834 15.8148 17.5737 16.0134 17.8039ZM15.3056 15.7925C15.3718 15.6994 15.4459 15.611 15.5283 15.5286C15.6108 15.4461 15.6994 15.372 15.7925 15.3057L14.3494 13.8626C14.1939 14.0315 14.0314 14.194 13.8625 14.3495L15.3056 15.7925ZM8.2678 15.7581C12.398 15.7581 15.7581 12.398 15.7581 8.2678C15.7581 4.13763 12.398 0.777536 8.2678 0.777536C4.13763 0.777536 0.777536 4.13763 0.777536 8.2678C0.777536 12.398 4.13763 15.7581 8.2678 15.7581Z" fill="white"/>
<path d="M8.26781 1.65869C11.9121 1.65869 14.8769 4.62349 14.8769 8.26775C14.8769 11.912 11.9121 14.8768 8.26781 14.8768C4.62355 14.8768 1.65875 11.912 1.65875 8.26775C1.65875 4.62349 4.62355 1.65869 8.26781 1.65869ZM8.26781 14.0993C11.4833 14.0993 14.0993 11.4833 14.0993 8.26775C14.0993 5.05222 11.4833 2.43623 8.26781 2.43623C5.05233 2.43623 2.43628 5.05222 2.43628 8.26775C2.43628 11.4833 5.05233 14.0993 8.26781 14.0993Z" fill="white"/>
<path d="M5.56824 4.1177C5.74811 4.00045 5.98894 4.05119 6.10619 4.23112C6.22344 4.41099 6.17264 4.65187 5.99277 4.76907C4.80449 5.54349 4.09507 6.85141 4.09507 8.26777C4.09507 9.23539 4.43376 10.1784 5.04879 10.9231C5.18554 11.0886 5.16216 11.3337 4.99659 11.4704C4.92413 11.5303 4.83642 11.5594 4.74923 11.5594C4.63727 11.5594 4.52613 11.5113 4.44926 11.4182C3.71947 10.5346 3.31753 9.41573 3.31753 8.26783C3.31748 6.58762 4.15888 5.03623 5.56824 4.1177Z" fill="white"/>
<path d="M7.36818 3.39915C7.66302 3.34498 7.96569 3.3175 8.26779 3.3175C8.48254 3.3175 8.65656 3.49157 8.65656 3.70627C8.65656 3.92098 8.48254 4.09504 8.26779 4.09504C8.01265 4.09504 7.75726 4.11821 7.50865 4.16388C7.48486 4.16823 7.46127 4.17036 7.43795 4.17036C7.25398 4.17036 7.09049 4.03916 7.05602 3.85178C7.01725 3.6406 7.157 3.43797 7.36818 3.39915Z" fill="white"/>
</g>
<defs>
<clipPath id="clip0_361_6319">
<rect width="24" height="24" fill="white" transform="matrix(-1 0 0 1 24 0)"/>
</clipPath>
</defs>
</svg>
