<svg width="24" height="24" viewBox="0 0 24 24" fill="none" xmlns="http://www.w3.org/2000/svg">
<g clip-path="url(#clip0_363_6443)">
<path d="M6.25031 16.7353C6.25031 16.9295 6.40767 17.0869 6.60187 17.0869C6.79608 17.0869 6.95344 16.9295 6.95344 16.7353V15.7608H16.4513C17.1672 15.7608 17.7497 15.1783 17.7497 14.4624V5.9119H19.5136C19.7078 5.9119 19.8652 5.75454 19.8652 5.56034C19.8652 5.36613 19.7078 5.20877 19.5136 5.20877H17.7497V2.24581C17.7497 1.5296 17.1672 0.946899 16.4513 0.946899H1.29844C0.582469 0.946899 0 1.5296 0 2.24581V8.62502C0 8.81923 0.157359 8.97659 0.351562 8.97659C0.545766 8.97659 0.703125 8.81923 0.703125 8.62502V2.24581C0.703125 1.91726 0.970172 1.65002 1.29844 1.65002H16.4513C16.7795 1.65002 17.0466 1.91726 17.0466 2.24581V14.4624C17.0466 14.7906 16.7795 15.0577 16.4513 15.0577H6.22312C6.12989 15.0577 6.0405 15.0947 5.9745 15.1606L3.54422 17.5909V15.4092C3.54422 15.215 3.38686 15.0577 3.19266 15.0577H1.29844C0.970172 15.0577 0.703125 14.7906 0.703125 14.4624V10.2656C0.703125 10.0714 0.545766 9.91409 0.351562 9.91409C0.157359 9.91409 0 10.0714 0 10.2656V14.4624C0 15.1783 0.582469 15.7608 1.29844 15.7608H2.84109V18.4397C2.84109 18.5818 2.92673 18.7101 3.05813 18.7645C3.10162 18.7825 3.14728 18.7912 3.19256 18.7912C3.28406 18.7912 3.37397 18.7555 3.44128 18.6883L6.25031 15.8792V16.7353Z" fill="white"/>
<path d="M22.7016 5.20874H21.1542C20.96 5.20874 20.8026 5.3661 20.8026 5.5603C20.8026 5.75451 20.96 5.91187 21.1542 5.91187H22.7016C23.0298 5.91187 23.2969 6.17891 23.2969 6.50718V18.7237C23.2969 19.0522 23.0298 19.3195 22.7016 19.3195H20.8073C20.6131 19.3195 20.4558 19.4769 20.4558 19.6711V21.8528L18.0255 19.4225C17.9595 19.3566 17.8701 19.3195 17.7769 19.3195H7.54874C7.22048 19.3195 6.95343 19.0522 6.95343 18.7237V18.3759C6.95343 18.1817 6.79607 18.0243 6.60187 18.0243C6.40766 18.0243 6.25031 18.1817 6.25031 18.3759V18.7237C6.25031 19.4399 6.83277 20.0226 7.54874 20.0226H17.6313L20.5587 22.9501C20.626 23.0174 20.7159 23.0531 20.8074 23.0531C20.8527 23.0531 20.8984 23.0443 20.9419 23.0263C21.0733 22.9719 21.1589 22.8437 21.1589 22.7015V20.0226H22.7016C23.4175 20.0226 24 19.4399 24 18.7237V6.50718C24 5.79126 23.4175 5.20874 22.7016 5.20874Z" fill="white"/>
<path d="M9.99438 8.845C10.4756 8.6717 10.9095 8.38923 11.2615 8.01854C11.8864 7.36037 12.2047 6.49787 12.1576 5.58995C12.069 3.88412 10.6611 2.52095 8.95259 2.48664C7.29195 2.45026 5.86915 3.66442 5.63988 5.30725C5.61898 5.45725 5.60834 5.61053 5.60834 5.76278C5.60834 6.37436 6.10592 6.87193 6.71749 6.87193C7.32912 6.87193 7.8267 6.37436 7.8267 5.76278C7.8267 5.71267 7.83012 5.66242 7.83692 5.61376C7.90976 5.092 8.3599 4.70429 8.88781 4.70429C8.89437 4.70429 8.90098 4.70439 8.90759 4.70448C9.45921 4.71564 9.91362 5.15509 9.94217 5.70498C9.95745 5.99926 9.85465 6.27845 9.65267 6.49112C9.45054 6.70403 9.17796 6.82126 8.88518 6.82126C8.27356 6.82126 7.77598 7.31884 7.77598 7.93046V10.0822C7.77598 10.6938 8.27356 11.1914 8.88518 11.1914C9.49676 11.1914 9.99434 10.6938 9.99434 10.0822V8.845H9.99438ZM9.55123 8.2479C9.39785 8.28929 9.29126 8.42846 9.29126 8.58732V10.0823C9.29126 10.3061 9.1091 10.4883 8.88523 10.4883C8.66135 10.4883 8.47915 10.3061 8.47915 10.0823V7.93051C8.47915 7.70664 8.66135 7.52443 8.88523 7.52443C9.37273 7.52443 9.82643 7.32943 10.1626 6.97529C10.4987 6.62139 10.6698 6.15732 10.6444 5.66856C10.5968 4.75229 9.84012 4.02006 8.92113 4.00154C8.91012 4.00135 8.89924 4.00126 8.88828 4.00126C8.01021 4.00126 7.2619 4.64739 7.14054 5.51678C7.12934 5.59764 7.12362 5.68037 7.12362 5.76282C7.12362 5.9867 6.94142 6.16885 6.71754 6.16885C6.49367 6.16885 6.31151 5.9867 6.31151 5.76282C6.31151 5.64292 6.31985 5.52235 6.33626 5.40442C6.51377 4.13251 7.60357 3.18906 8.88359 3.18906C8.90173 3.18906 8.91996 3.18925 8.9382 3.18962C10.2802 3.21662 11.3859 4.28696 11.4554 5.62642C11.4924 6.33986 11.2425 7.01743 10.7516 7.53442C10.4263 7.87712 10.0112 8.12382 9.55123 8.2479Z" fill="white"/>
<path d="M8.88526 12.0035C8.27364 12.0035 7.77606 12.5011 7.77606 13.1127C7.77606 13.7243 8.27364 14.2219 8.88526 14.2219C9.49684 14.2219 9.99442 13.7243 9.99442 13.1127C9.99442 12.5011 9.49684 12.0035 8.88526 12.0035ZM8.88526 13.5188C8.66139 13.5188 8.47919 13.3366 8.47919 13.1127C8.47919 12.8889 8.66139 12.7067 8.88526 12.7067C9.10914 12.7067 9.2913 12.8889 9.2913 13.1127C9.2913 13.3366 9.10914 13.5188 8.88526 13.5188Z" fill="white"/>
</g>
<defs>
<clipPath id="clip0_363_6443">
<rect width="24" height="24" fill="white"/>
</clipPath>
</defs>
</svg>
