<svg width="56" height="56" viewBox="0 0 56 56" fill="none" xmlns="http://www.w3.org/2000/svg">
<g clip-path="url(#clip0_361_4770)">
<path d="M42.875 0H13.125C5.87626 0 0 5.87626 0 13.125V42.875C0 50.1237 5.87626 56 13.125 56H42.875C50.1237 56 56 50.1237 56 42.875V13.125C56 5.87626 50.1237 0 42.875 0Z" fill="#022264"/>
<path d="M28 31.5655C29.9898 31.5655 31.6029 29.9524 31.6029 27.9625C31.6029 25.9727 29.9898 24.3596 28 24.3596C26.0101 24.3596 24.397 25.9727 24.397 27.9625C24.397 29.9524 26.0101 31.5655 28 31.5655Z" fill="#00D8FF"/>
<path d="M28 36.2234C23.6694 36.3281 19.3497 35.7444 15.2023 34.4939C13.2864 33.8866 11.4995 32.9299 9.93193 31.6721C9.33374 31.2424 8.83558 30.6884 8.47164 30.0481C8.1077 29.4078 7.88659 28.6963 7.82349 27.9625C7.82349 25.5803 10.4407 23.2456 14.8247 21.7179C19.083 20.3643 23.5322 19.7082 28 19.7752C32.4081 19.7136 36.7977 20.3578 41.0023 21.6833C42.8474 22.2716 44.5737 23.182 46.1011 24.3726C46.6891 24.7822 47.1798 25.3161 47.5384 25.9365C47.8971 26.5569 48.1149 27.2486 48.1764 27.9625C48.1764 30.4385 45.2508 32.9476 40.5382 34.5069C36.4711 35.7166 32.2425 36.2955 28 36.2234ZM28 21.4989C23.7256 21.4417 19.4694 22.0654 15.3911 23.3464C11.3558 24.7545 9.54713 26.6799 9.54713 27.9582C9.54713 29.2956 11.4913 31.3983 15.76 32.8582C19.7277 34.0484 23.8589 34.6024 28 34.4997C32.0589 34.5723 36.105 34.0231 39.9977 32.8712C44.4294 31.4026 46.447 29.2971 46.447 27.9625C46.3743 27.5046 46.2074 27.0667 45.9569 26.6765C45.7063 26.2863 45.3776 25.9523 44.9914 25.6956C43.6248 24.6394 42.0827 23.8325 40.4359 23.3119C36.4136 22.049 32.2154 21.437 28 21.4989Z" fill="#00D8FF"/>
<path d="M19.8141 45.9326C19.1418 45.948 18.4774 45.7849 17.8887 45.4599C15.8249 44.2694 15.1101 40.8366 15.9762 36.2752C16.9312 31.91 18.5859 27.728 20.8762 23.8912C23.0246 20.042 25.7751 16.5613 29.0232 13.581C30.4545 12.2763 32.1057 11.2356 33.9001 10.507C34.5492 10.2028 35.2572 10.0452 35.974 10.0452C36.6908 10.0452 37.3988 10.2028 38.0478 10.507C40.1938 11.7435 40.9043 15.5309 39.9026 20.392C38.9182 24.5204 37.3064 28.4733 35.1237 32.1131C33.0509 35.9169 30.3871 39.3673 27.2318 42.3354C25.7485 43.6912 24.0271 44.7608 22.1546 45.4901C21.4049 45.7684 20.6136 45.9179 19.8141 45.9326ZM22.3693 24.7473C20.1846 28.4213 18.5987 32.4197 17.6711 36.5923C16.8741 40.7933 17.6393 43.3197 18.7519 43.9625C19.9049 44.6297 22.7036 43.9971 26.1019 41.0282C29.114 38.1847 31.6566 34.8819 33.635 31.2426C35.726 27.763 37.2721 23.9836 38.2193 20.0361C39.1619 15.4603 38.3476 12.6587 37.1918 11.9929C36.7586 11.8269 36.2957 11.7526 35.8323 11.7746C35.3689 11.7967 34.9151 11.9147 34.4997 12.1211C32.9024 12.7802 31.4339 13.716 30.1617 14.8853C27.0584 17.74 24.4312 21.0722 22.3794 24.7559L22.3693 24.7473Z" fill="#00D8FF"/>
<path d="M36.1815 45.9513C34.2287 45.9513 31.7485 44.7695 29.1659 42.5487C25.8608 39.5413 23.0639 36.0193 20.8835 32.1189C18.6219 28.3349 16.9803 24.2134 16.0209 19.9107C15.6049 18.0177 15.5278 16.0659 15.7932 14.146C15.8546 13.4338 16.0715 12.7437 16.4285 12.1244C16.7856 11.5051 17.2742 10.9717 17.8599 10.5618C20.0029 9.32092 23.639 10.5964 27.35 13.8909C30.435 16.8052 33.0547 20.1754 35.118 23.884C37.3781 27.5797 39.037 31.6109 40.0324 35.827C40.4663 37.7895 40.5333 39.8153 40.2298 41.8022C40.1576 42.5349 39.9278 43.2433 39.5562 43.8789C39.1845 44.5144 38.6798 45.0621 38.0767 45.4844C37.4976 45.8053 36.8435 45.9665 36.1815 45.9513ZM22.3751 31.2513C24.4668 34.9788 27.1386 38.3496 30.29 41.2372C33.5312 44.0259 36.1023 44.6254 37.2077 43.9754C38.3606 43.3053 39.2109 40.5699 38.3347 36.1441C37.3747 32.1188 35.7836 28.2708 33.6206 24.7429C31.6517 21.1935 29.1511 17.9663 26.2057 15.1735C22.7123 12.0721 19.879 11.3789 18.7246 12.0476C18.3648 12.34 18.0695 12.7038 17.8574 13.1161C17.6453 13.5284 17.521 13.9801 17.4924 14.4429C17.2632 16.1551 17.3379 17.8943 17.7129 19.5807C18.6357 23.6954 20.2101 27.6363 22.3765 31.2542L22.3751 31.2513Z" fill="#00D8FF"/>
</g>
<defs>
<clipPath id="clip0_361_4770">
<rect width="56" height="56" fill="white"/>
</clipPath>
</defs>
</svg>
