<svg width="72" height="72" viewBox="0 0 72 72" fill="none" xmlns="http://www.w3.org/2000/svg">
<g clip-path="url(#clip0_361_4750)">
<path d="M55.125 0H16.875C7.55519 0 0 7.55519 0 16.875V55.125C0 64.4448 7.55519 72 16.875 72H55.125C64.4448 72 72 64.4448 72 55.125V16.875C72 7.55519 64.4448 0 55.125 0Z" fill="#022264"/>
<path d="M40.7627 10.7049L56.4494 10.6875L30.1314 36.9917L23.2726 43.8123L15.4688 35.9989L40.7627 10.7049ZM40.6167 34.1913C40.8203 33.9224 41.195 34.0552 41.4793 34.0206L56.4359 34.0242L42.8046 47.6423L34.9602 39.8461L40.6167 34.1913Z" fill="#44D1FD"/>
<path d="M27.1409 47.6556L34.9602 39.8461L42.8046 47.6424L42.8372 47.6769L34.9622 55.4788L27.1409 47.6556Z" fill="#1FBCFD"/>
<path d="M34.9622 55.4788L42.8372 47.6769L56.4415 61.2948C51.3171 61.3063 46.1944 61.2908 41.072 61.3024C40.7801 61.3676 40.5995 61.1007 40.4131 60.9356L34.9622 55.4788Z" fill="#08589C"/>
</g>
<defs>
<clipPath id="clip0_361_4750">
<rect width="72" height="72" fill="white"/>
</clipPath>
</defs>
</svg>
