<svg width="68" height="68" viewBox="0 0 68 68" fill="none" xmlns="http://www.w3.org/2000/svg">
<g clip-path="url(#clip0_361_4782)">
<path d="M52.0625 0H15.9375C7.13546 0 0 7.13546 0 15.9375V52.0625C0 60.8645 7.13546 68 15.9375 68H52.0625C60.8645 68 68 60.8645 68 52.0625V15.9375C68 7.13546 60.8645 0 52.0625 0Z" fill="#FEF6D9"/>
<g clip-path="url(#clip1_361_4782)">
<path d="M23.5735 30.5079C23.5735 31.1025 23.6373 31.5845 23.7485 31.938C23.8896 32.3357 24.0596 32.7223 24.257 33.0947C24.3365 33.2232 24.3682 33.3518 24.3682 33.4643C24.3682 33.6249 24.2729 33.7856 24.0663 33.9463L23.065 34.6211C22.922 34.7176 22.7789 34.7657 22.6516 34.7657C22.4928 34.7657 22.3338 34.6854 22.1748 34.5408C21.9606 34.3081 21.7691 34.0552 21.6027 33.7856C21.4437 33.5127 21.2847 33.2071 21.11 32.8377C19.8702 34.3158 18.3125 35.055 16.4371 35.055C15.1021 35.055 14.0371 34.6693 13.2582 33.8982C12.4795 33.1268 12.0822 32.0985 12.0822 30.8132C12.0822 29.4476 12.559 28.3389 13.5286 27.5034C14.498 26.6679 15.7855 26.2502 17.4226 26.2502C17.963 26.2502 18.5193 26.2983 19.1073 26.3787C19.6955 26.459 20.2994 26.5876 20.9352 26.7322V25.5593C20.9352 24.3381 20.6808 23.4866 20.188 22.9885C19.6795 22.4904 18.8212 22.2493 17.5973 22.2493C17.041 22.2493 16.469 22.3137 15.8808 22.4584C15.2928 22.6028 14.7205 22.7796 14.1642 23.0046C13.91 23.117 13.7193 23.1813 13.6079 23.2135C13.4967 23.2457 13.4172 23.2616 13.3537 23.2616C13.1311 23.2616 13.0199 23.1009 13.0199 22.7635V21.9762C13.0199 21.7192 13.0518 21.5264 13.1311 21.414C13.2106 21.3014 13.3537 21.189 13.5762 21.0766C14.1325 20.7874 14.8 20.5463 15.5787 20.3535C16.3578 20.1446 17.1843 20.0483 18.0584 20.0483C19.9499 20.0483 21.3327 20.482 22.2228 21.3497C23.0969 22.2173 23.542 23.5348 23.542 25.3023V30.5079H23.5735ZM17.1205 32.9501C17.6452 32.9501 18.1855 32.8538 18.7576 32.6609C19.3298 32.4681 19.8385 32.1146 20.2675 31.6326C20.522 31.3274 20.7127 30.9901 20.8079 30.6043C20.9033 30.2188 20.9669 29.7527 20.9669 29.2065V28.5317C20.4849 28.4131 19.9967 28.3219 19.5046 28.2586C19.0091 28.1949 18.5101 28.1627 18.0106 28.1621C16.9456 28.1621 16.1669 28.371 15.6425 28.8048C15.1178 29.2387 14.8636 29.8492 14.8636 30.6525C14.8636 31.4076 15.0543 31.97 15.4516 32.3557C15.8332 32.7573 16.3895 32.9501 17.1205 32.9501ZM29.8835 34.6854C29.5973 34.6854 29.4067 34.6372 29.2795 34.5246C29.1524 34.4284 29.041 34.2034 28.9458 33.8982L25.2108 21.4782C25.1152 21.1568 25.0675 20.9479 25.0675 20.8355C25.0675 20.5785 25.1947 20.4337 25.4491 20.4337H27.0067C27.3085 20.4337 27.5153 20.482 27.6265 20.5944C27.7537 20.6909 27.8491 20.9159 27.9443 21.221L30.6145 31.8576L33.094 21.221C33.1735 20.8998 33.269 20.6909 33.3959 20.5944C33.5232 20.4981 33.7458 20.4339 34.0319 20.4339H35.3033C35.6052 20.4339 35.812 20.482 35.939 20.5944C36.0663 20.6909 36.1775 20.9159 36.241 21.221L38.7524 31.9861L41.5019 21.221C41.5972 20.8998 41.7085 20.6909 41.8197 20.5944C41.9468 20.4981 42.1535 20.4339 42.4396 20.4339H43.9177C44.1721 20.4339 44.3152 20.5624 44.3152 20.8355C44.3152 20.9159 44.2992 20.9962 44.2833 21.0925C44.2673 21.189 44.2357 21.3175 44.1721 21.4944L40.3415 33.9141C40.2462 34.2356 40.135 34.4445 40.0077 34.5408C39.8806 34.6372 39.674 34.7015 39.404 34.7015H38.0371C37.735 34.7015 37.5284 34.6533 37.4011 34.5408C37.274 34.4284 37.1628 34.2195 37.0992 33.8982L34.6355 23.5348L32.1878 33.8819C32.1085 34.2034 32.0131 34.4122 31.886 34.5246C31.7588 34.6372 31.5363 34.6854 31.2503 34.6854H29.8835ZM50.3073 35.1192C49.4808 35.1192 48.6543 35.0228 47.8597 34.83C47.0648 34.6372 46.4452 34.4282 46.0319 34.1874C45.7775 34.0426 45.6025 33.8821 45.5392 33.7375C45.4773 33.5957 45.4448 33.4425 45.4437 33.2875V32.4681C45.4437 32.1307 45.5708 31.97 45.8093 31.97C45.9067 31.9704 46.0033 31.9867 46.0955 32.0183C46.1907 32.0505 46.3338 32.1146 46.4928 32.1789C47.0541 32.4285 47.6402 32.617 48.241 32.7412C48.8636 32.869 49.4973 32.9335 50.1325 32.934C51.1338 32.934 51.9127 32.7573 52.453 32.4039C52.9934 32.0504 53.2795 31.5363 53.2795 30.8775C53.2795 30.4277 53.1365 30.0581 52.8503 29.7527C52.5642 29.4476 52.0238 29.1744 51.2452 28.9172L48.9404 28.1943C47.7802 27.8247 46.922 27.2784 46.3973 26.5553C45.8729 25.8483 45.6027 25.0612 45.6027 24.2257C45.6027 23.5509 45.7458 22.9563 46.0319 22.4421C46.3178 21.928 46.6994 21.4782 47.1762 21.1247C47.653 20.7551 48.1934 20.482 48.8292 20.2892C49.4648 20.0965 50.1323 20.0161 50.8317 20.0161C51.1814 20.0161 51.547 20.0322 51.8967 20.0804C52.2623 20.1285 52.5961 20.1928 52.9298 20.257C53.2477 20.3374 53.5497 20.4178 53.8358 20.5142C54.122 20.6105 54.3443 20.707 54.5033 20.8033C54.7259 20.932 54.8847 21.0605 54.9802 21.2051C55.0756 21.3336 55.1232 21.5103 55.1232 21.7353V22.4904C55.1232 22.8278 54.9961 23.0046 54.7576 23.0046C54.6305 23.0046 54.4238 22.9402 54.1538 22.8117C53.2477 22.3939 52.2305 22.185 51.1021 22.185C50.1961 22.185 49.4808 22.3297 48.988 22.635C48.4955 22.9402 48.241 23.4063 48.241 24.0649C48.241 24.5149 48.4 24.9004 48.7178 25.2058C49.0358 25.511 49.6238 25.8163 50.4663 26.0894L52.7232 26.8125C53.8675 27.1821 54.694 27.6962 55.1868 28.3548C55.6795 29.0137 55.918 29.7688 55.918 30.6043C55.918 31.2952 55.7748 31.9218 55.5046 32.4681C55.2187 33.0144 54.8371 33.4964 54.3443 33.8821C53.8516 34.2837 53.2636 34.573 52.5802 34.7819C51.8648 35.0068 51.1178 35.1192 50.3073 35.1192Z" fill="#252F3E"/>
<path d="M53.3112 42.9278C48.0822 46.8322 40.4847 48.9049 33.9524 48.9049C24.7973 48.9049 16.5485 45.4825 10.318 39.7947C9.82527 39.3449 10.2702 38.7344 10.8582 39.0877C17.5973 43.0404 25.91 45.4343 34.5087 45.4343C40.31 45.4343 46.6835 44.2133 52.5485 41.7068C53.4226 41.305 54.1696 42.2853 53.3112 42.9278ZM55.4888 40.4213C54.8213 39.5538 51.0702 40.0036 49.3696 40.2124C48.8609 40.2769 48.7814 39.8269 49.2425 39.4895C52.2305 37.3685 57.1418 37.9792 57.7139 38.6861C58.2861 39.4092 57.5549 44.3738 54.7576 46.7518C54.3286 47.1215 53.9153 46.9287 54.106 46.4467C54.7416 44.8559 56.1563 41.2729 55.4888 40.4213Z" fill="#FF9900"/>
</g>
</g>
<defs>
<clipPath id="clip0_361_4782">
<rect width="68" height="68" fill="white"/>
</clipPath>
<clipPath id="clip1_361_4782">
<rect width="48" height="29" fill="white" transform="translate(10 20)"/>
</clipPath>
</defs>
</svg>
