<svg width="68" height="68" viewBox="0 0 68 68" fill="none" xmlns="http://www.w3.org/2000/svg">
<g clip-path="url(#clip0_361_4761)">
<path d="M52.0625 0H15.9375C7.13546 0 0 7.13546 0 15.9375V52.0625C0 60.8645 7.13546 68 15.9375 68H52.0625C60.8645 68 68 60.8645 68 52.0625V15.9375C68 7.13546 60.8645 0 52.0625 0Z" fill="#000714"/>
<g clip-path="url(#clip1_361_4761)">
<path d="M24.048 14.62C25.5499 15.1288 26.9787 15.8321 28.298 16.712C30.1611 16.2358 32.0769 15.9966 34 16C35.986 16 37.902 16.248 39.698 16.71C41.0167 15.831 42.4448 15.1283 43.946 14.62C45.34 14.146 47.326 13.378 48.506 14.684C49.306 15.572 49.506 17.06 49.648 18.196C49.808 19.464 49.846 21.116 49.426 22.756C51.032 24.83 52 27.304 52 30C52 34.084 49.788 37.63 46.514 40.086C44.9383 41.2531 43.1908 42.168 41.334 42.798C41.762 43.778 42 44.862 42 46V52C42 52.5304 41.7893 53.0391 41.4142 53.4142C41.0391 53.7893 40.5304 54 40 54H28C27.4695 54 26.9608 53.7893 26.5858 53.4142C26.2107 53.0391 26 52.5304 26 52V50.018C24.09 50.252 22.488 50.044 21.126 49.466C19.702 48.862 18.71 47.926 17.964 47.03C17.256 46.182 16.484 44.27 15.368 43.898C15.1187 43.815 14.8883 43.6837 14.6897 43.5117C14.4912 43.3396 14.3285 43.1301 14.211 42.8952C13.9736 42.4207 13.9344 41.8714 14.102 41.368C14.2696 40.8646 14.6303 40.4484 15.1048 40.211C15.5792 39.9736 16.1286 39.9344 16.632 40.102C17.964 40.546 18.832 41.506 19.426 42.278C20.386 43.518 21.166 45.138 22.686 45.784C23.312 46.05 24.23 46.224 25.666 46.028L26 45.96C26.0038 44.8716 26.2304 43.7955 26.666 42.798C24.8091 42.168 23.0616 41.2531 21.486 40.086C18.212 37.63 16 34.086 16 30C16 27.308 16.966 24.836 18.568 22.764C18.148 21.124 18.184 19.468 18.344 18.198L18.354 18.122C18.5 16.958 18.67 15.588 19.486 14.684C20.666 13.378 22.654 14.148 24.046 14.622L24.048 14.62Z" fill="white"/>
</g>
</g>
<defs>
<clipPath id="clip0_361_4761">
<rect width="68" height="68" fill="white"/>
</clipPath>
<clipPath id="clip1_361_4761">
<rect width="48" height="48" fill="white" transform="translate(10 10)"/>
</clipPath>
</defs>
</svg>
