<svg width="24" height="24" viewBox="0 0 24 24" fill="none" xmlns="http://www.w3.org/2000/svg">
<g clip-path="url(#clip0_363_6441)">
<path d="M23.8971 2.57935L22.7145 1.39622C22.5844 1.2661 22.376 1.25832 22.2366 1.37822C18.0502 4.97874 13.8438 7.89526 10.2194 12.6069C10.101 12.7608 10.1204 12.9792 10.2713 13.1014C10.4432 13.221 10.6081 13.2037 10.7657 13.0494C11.1061 12.6293 11.4546 12.2134 11.8103 11.8029L13.4901 13.4828C12.2064 14.5943 10.8645 15.6402 9.47635 16.6107L8.68252 15.8169C9.05119 15.2893 9.43491 14.7628 9.82566 14.2484C9.94308 14.0938 9.91294 13.8732 9.75835 13.7558C9.60366 13.6383 9.38316 13.6684 9.26569 13.8231C8.89454 14.3117 8.52952 14.8112 8.17749 15.3124C8.03387 15.1875 7.81201 15.1289 7.65437 15.2865L6.06966 16.8712C5.20772 16.7135 4.28466 16.9672 3.61951 17.6323L2.82549 18.4264C1.72285 19.529 0.486474 19.2526 0.43613 19.2408C0.28299 19.2029 0.123099 19.2717 0.0454739 19.4091C-0.0321511 19.5466 -0.00861984 19.719 0.10299 19.8306L1.80455 21.5322C3.04557 22.7732 5.02487 23.07 6.57648 22.2343C6.74738 22.1423 6.81137 21.929 6.7193 21.7581C6.62719 21.5872 6.41396 21.5231 6.24305 21.6153C4.95694 22.3081 3.33624 22.0694 2.3018 21.035L1.22719 19.9604C1.81805 19.8938 2.59815 19.6481 3.32274 18.9235L4.11671 18.1295C4.91804 17.3283 6.22163 17.3284 7.02268 18.1295C7.70546 18.8123 7.81707 19.9222 7.27712 20.7261C7.16883 20.8873 7.21172 21.1058 7.37293 21.214C7.53408 21.3222 7.75257 21.2794 7.86076 21.1182C8.19437 20.6216 8.3709 19.9309 8.31643 19.3291L10.0066 17.6388C10.1602 17.4832 10.1308 17.0133 9.98077 17.1158C14.0781 14.3171 17.2187 11.2883 20.5065 7.21022C20.6284 7.05905 20.6137 6.84024 20.4656 6.71471C20.3175 6.58918 20.0956 6.60751 19.9701 6.75563C18.5047 8.4848 17.0079 10.1943 15.3723 11.766L13.5274 9.92105C16.2768 7.05957 19.4371 4.69233 22.4473 2.12358L23.1781 2.8546C22.8154 3.30915 21.9793 4.35047 20.9533 5.58441C20.8292 5.73371 20.8496 5.95538 20.9989 6.07951C21.1482 6.20363 21.3699 6.18324 21.494 6.03394C22.8749 4.37307 23.914 3.05897 23.9244 3.0459C24.0348 2.90593 24.0231 2.70544 23.8971 2.57935ZM8.12077 18.5303C7.8503 17.9015 7.41474 17.4317 6.81418 17.121L7.90294 16.0322L9.26087 17.3902L8.12077 18.5303ZM14.8615 12.2496C14.5839 12.5088 14.3032 12.7649 14.0194 13.0178L12.2753 11.2737C12.5282 10.9901 12.7844 10.7093 13.0436 10.4318L14.8615 12.2496Z" fill="white"/>
</g>
<defs>
<clipPath id="clip0_363_6441">
<rect width="24" height="24" fill="white"/>
</clipPath>
</defs>
</svg>
