<svg width="21" height="15" viewBox="0 0 21 15" fill="none" xmlns="http://www.w3.org/2000/svg">
<path fill-rule="evenodd" clip-rule="evenodd" d="M18.4538 0.620888C19.3369 0.854621 20.0324 1.53963 20.2694 2.40778C20.7093 3.99231 20.6887 7.29593 20.6887 7.29593C20.6887 7.29593 20.6856 10.5813 20.2591 12.1649C20.019 13.032 19.3204 13.716 18.4384 13.9487C16.8248 14.3636 10.3694 14.3565 10.3694 14.3565C10.3694 14.3565 3.93162 14.3494 2.30155 13.9143C1.41748 13.6806 0.721977 12.9956 0.484989 12.1284C0.0625319 10.5601 0.0666519 7.25748 0.0666519 7.25748C0.0666519 7.25748 0.070775 3.97106 0.496323 2.38653C0.735371 1.51939 1.45046 0.819207 2.31598 0.587498C3.93059 0.171636 10.3849 0.178719 10.3849 0.178719C10.3849 0.178719 16.8402 0.185801 18.4538 0.620888ZM8.32515 4.23164L8.31999 10.3026L13.6903 7.27219L8.32515 4.23164Z" fill="white"/>
</svg>
